SplineFontDB: 3.0
FontName: WP34SRasterFontSmall
FullName: WP 34S Raster Font Small
FamilyName: WP 34S Raster Font Small
Weight: Normal
Copyright: (c) 2012 The WP 34S Team. Covered by the GPL V3.
UComments: "2012-2-19: Created." 
Version: 001.000
ItalicAngle: 0
UnderlinePosition: -100
UnderlineWidth: 50
Ascent: 819
Descent: 205
LayerCount: 2
Layer: 0 0 "Back"  1
Layer: 1 0 "Fore"  0
XUID: [1021 211 1576984752 10382226]
OS2Version: 0
OS2_WeightWidthSlopeOnly: 0
OS2_UseTypoMetrics: 1
CreationTime: 1329657961
ModificationTime: 1329658191
PfmFamily: 32
TTFWeight: 400
TTFWidth: 5
LineGap: 166
VLineGap: 0
OS2TypoAscent: 0
OS2TypoAOffset: 1
OS2TypoDescent: 0
OS2TypoDOffset: 1
OS2TypoLinegap: 0
OS2WinAscent: 0
OS2WinAOffset: 1
OS2WinDescent: 0
OS2WinDOffset: 1
HheadAscent: 0
HheadAOffset: 1
HheadDescent: 0
HheadDOffset: 1
OS2Vendor: 'PfEd'
MarkAttachClasses: 1
DEI: 91125
Encoding: win
UnicodeInterp: none
NameList: Adobe Glyph List
DisplaySize: -36
AntiAlias: 1
FitToEm: 1
WinInfo: 0 30 11
BeginPrivate: 0
EndPrivate
BeginChars: 256 256

StartChar: uni0000
Encoding: 0 0 0
Width: 200
VWidth: 0
Flags: HW
LayerCount: 2
Back
Fore
SplineSet
175 -175 m 1
 200 -200 l 1
 175 -175 l 1
EndSplineSet
EndChar

StartChar: u10000
Encoding: 1 65536 1
Width: 800
VWidth: 0
Flags: HW
LayerCount: 2
Back
Fore
SplineSet
200 1000 m 1
 350 1000 l 1
 350 850 l 1
 200 850 l 1
 200 1000 l 1
400 1000 m 1
 550 1000 l 1
 550 850 l 1
 400 850 l 1
 400 1000 l 1
0 600 m 1
 150 600 l 1
 150 450 l 1
 0 450 l 1
 0 600 l 1
400 600 m 1
 550 600 l 1
 550 450 l 1
 400 450 l 1
 400 600 l 1
200 400 m 1
 350 400 l 1
 350 250 l 1
 200 250 l 1
 200 400 l 1
0 200 m 1
 150 200 l 1
 150 50 l 1
 0 50 l 1
 0 200 l 1
400 200 m 1
 550 200 l 1
 550 50 l 1
 400 50 l 1
 400 200 l 1
0 1000 m 1
 150 1000 l 1
 150 850 l 1
 0 850 l 1
 0 1000 l 1
EndSplineSet
EndChar

StartChar: u20000
Encoding: 2 131072 2
Width: 800
VWidth: 0
Flags: HW
LayerCount: 2
Back
Fore
SplineSet
200 1000 m 1
 350 1000 l 1
 350 850 l 1
 200 850 l 1
 200 1000 l 1
400 1000 m 1
 550 1000 l 1
 550 850 l 1
 400 850 l 1
 400 1000 l 1
0 600 m 1
 150 600 l 1
 150 450 l 1
 0 450 l 1
 0 600 l 1
400 600 m 1
 550 600 l 1
 550 450 l 1
 400 450 l 1
 400 600 l 1
0 400 m 1
 150 400 l 1
 150 250 l 1
 0 250 l 1
 0 400 l 1
200 400 m 1
 350 400 l 1
 350 250 l 1
 200 250 l 1
 200 400 l 1
400 400 m 1
 550 400 l 1
 550 250 l 1
 400 250 l 1
 400 400 l 1
400 200 m 1
 550 200 l 1
 550 50 l 1
 400 50 l 1
 400 200 l 1
0 0 m 1
 150 0 l 1
 150 -150 l 1
 0 -150 l 1
 0 0 l 1
200 0 m 1
 350 0 l 1
 350 -150 l 1
 200 -150 l 1
 200 0 l 1
0 1000 m 1
 150 1000 l 1
 150 850 l 1
 0 850 l 1
 0 1000 l 1
EndSplineSet
EndChar

StartChar: u30000
Encoding: 3 196608 3
Width: 1000
VWidth: 0
Flags: HW
LayerCount: 2
Back
Fore
SplineSet
200 1000 m 1
 350 1000 l 1
 350 850 l 1
 200 850 l 1
 200 1000 l 1
400 1000 m 1
 550 1000 l 1
 550 850 l 1
 400 850 l 1
 400 1000 l 1
600 1000 m 1
 750 1000 l 1
 750 850 l 1
 600 850 l 1
 600 1000 l 1
200 800 m 1
 350 800 l 1
 350 650 l 1
 200 650 l 1
 200 800 l 1
200 600 m 1
 350 600 l 1
 350 450 l 1
 200 450 l 1
 200 600 l 1
0 400 m 1
 150 400 l 1
 150 250 l 1
 0 250 l 1
 0 400 l 1
200 400 m 1
 350 400 l 1
 350 250 l 1
 200 250 l 1
 200 400 l 1
200 200 m 1
 350 200 l 1
 350 50 l 1
 200 50 l 1
 200 200 l 1
EndSplineSet
EndChar

StartChar: u40000
Encoding: 4 262144 4
Width: 800
VWidth: 0
Flags: HW
LayerCount: 2
Back
Fore
SplineSet
200 1000 m 1
 350 1000 l 1
 350 850 l 1
 200 850 l 1
 200 1000 l 1
400 1000 m 1
 550 1000 l 1
 550 850 l 1
 400 850 l 1
 400 1000 l 1
200 800 m 1
 350 800 l 1
 350 650 l 1
 200 650 l 1
 200 800 l 1
200 600 m 1
 350 600 l 1
 350 450 l 1
 200 450 l 1
 200 600 l 1
200 400 m 1
 350 400 l 1
 350 250 l 1
 200 250 l 1
 200 400 l 1
200 200 m 1
 350 200 l 1
 350 50 l 1
 200 50 l 1
 200 200 l 1
0 0 m 1
 150 0 l 1
 150 -150 l 1
 0 -150 l 1
 0 0 l 1
200 0 m 1
 350 0 l 1
 350 -150 l 1
 200 -150 l 1
 200 0 l 1
EndSplineSet
EndChar

StartChar: u50000
Encoding: 5 327680 5
Width: 800
VWidth: 0
Flags: HW
LayerCount: 2
Back
Fore
SplineSet
200 1000 m 1
 350 1000 l 1
 350 850 l 1
 200 850 l 1
 200 1000 l 1
400 1000 m 1
 550 1000 l 1
 550 850 l 1
 400 850 l 1
 400 1000 l 1
0 800 m 1
 150 800 l 1
 150 650 l 1
 0 650 l 1
 0 800 l 1
400 800 m 1
 550 800 l 1
 550 650 l 1
 400 650 l 1
 400 800 l 1
0 600 m 1
 150 600 l 1
 150 450 l 1
 0 450 l 1
 0 600 l 1
200 600 m 1
 350 600 l 1
 350 450 l 1
 200 450 l 1
 200 600 l 1
400 600 m 1
 550 600 l 1
 550 450 l 1
 400 450 l 1
 400 600 l 1
0 1000 m 1
 150 1000 l 1
 150 850 l 1
 0 850 l 1
 0 1000 l 1
EndSplineSet
EndChar

StartChar: u60000
Encoding: 6 393216 6
Width: 200
VWidth: 0
Flags: HW
LayerCount: 2
Back
Fore
SplineSet
175 -175 m 1
 200 -200 l 1
 175 -175 l 1
EndSplineSet
EndChar

StartChar: u70000
Encoding: 7 458752 7
Width: 1000
VWidth: 0
Flags: HW
LayerCount: 2
Back
Fore
SplineSet
200 1000 m 1
 350 1000 l 1
 350 850 l 1
 200 850 l 1
 200 1000 l 1
400 1000 m 1
 550 1000 l 1
 550 850 l 1
 400 850 l 1
 400 1000 l 1
600 1000 m 1
 750 1000 l 1
 750 850 l 1
 600 850 l 1
 600 1000 l 1
0 800 m 1
 150 800 l 1
 150 650 l 1
 0 650 l 1
 0 800 l 1
0 600 m 1
 150 600 l 1
 150 450 l 1
 0 450 l 1
 0 600 l 1
400 600 m 1
 550 600 l 1
 550 450 l 1
 400 450 l 1
 400 600 l 1
600 600 m 1
 750 600 l 1
 750 450 l 1
 600 450 l 1
 600 600 l 1
0 400 m 1
 150 400 l 1
 150 250 l 1
 0 250 l 1
 0 400 l 1
600 400 m 1
 750 400 l 1
 750 250 l 1
 600 250 l 1
 600 400 l 1
200 200 m 1
 350 200 l 1
 350 50 l 1
 200 50 l 1
 200 200 l 1
400 200 m 1
 550 200 l 1
 550 50 l 1
 400 50 l 1
 400 200 l 1
600 200 m 1
 750 200 l 1
 750 50 l 1
 600 50 l 1
 600 200 l 1
EndSplineSet
EndChar

StartChar: u80000
Encoding: 8 524288 8
Width: 800
VWidth: 0
Flags: HW
LayerCount: 2
Back
Fore
SplineSet
200 1000 m 1
 350 1000 l 1
 350 850 l 1
 200 850 l 1
 200 1000 l 1
0 800 m 1
 150 800 l 1
 150 650 l 1
 0 650 l 1
 0 800 l 1
200 800 m 1
 350 800 l 1
 350 650 l 1
 200 650 l 1
 200 800 l 1
400 800 m 1
 550 800 l 1
 550 650 l 1
 400 650 l 1
 400 800 l 1
200 600 m 1
 350 600 l 1
 350 450 l 1
 200 450 l 1
 200 600 l 1
0 200 m 1
 150 200 l 1
 150 50 l 1
 0 50 l 1
 0 200 l 1
200 200 m 1
 350 200 l 1
 350 50 l 1
 200 50 l 1
 200 200 l 1
400 200 m 1
 550 200 l 1
 550 50 l 1
 400 50 l 1
 400 200 l 1
EndSplineSet
EndChar

StartChar: u90000
Encoding: 9 589824 9
Width: 800
VWidth: 0
Flags: HW
LayerCount: 2
Back
Fore
SplineSet
400 1000 m 1
 550 1000 l 1
 550 850 l 1
 400 850 l 1
 400 1000 l 1
200 800 m 1
 350 800 l 1
 350 650 l 1
 200 650 l 1
 200 800 l 1
0 600 m 1
 150 600 l 1
 150 450 l 1
 0 450 l 1
 0 600 l 1
200 600 m 1
 350 600 l 1
 350 450 l 1
 200 450 l 1
 200 600 l 1
400 600 m 1
 550 600 l 1
 550 450 l 1
 400 450 l 1
 400 600 l 1
0 200 m 1
 150 200 l 1
 150 50 l 1
 0 50 l 1
 0 200 l 1
200 200 m 1
 350 200 l 1
 350 50 l 1
 200 50 l 1
 200 200 l 1
400 200 m 1
 550 200 l 1
 550 50 l 1
 400 50 l 1
 400 200 l 1
EndSplineSet
EndChar

StartChar: uA0000
Encoding: 10 655360 10
Width: 800
VWidth: 0
Flags: HW
LayerCount: 2
Back
Fore
SplineSet
200 800 m 1
 350 800 l 1
 350 650 l 1
 200 650 l 1
 200 800 l 1
0 600 m 1
 150 600 l 1
 150 450 l 1
 0 450 l 1
 0 600 l 1
200 600 m 1
 350 600 l 1
 350 450 l 1
 200 450 l 1
 200 600 l 1
400 600 m 1
 550 600 l 1
 550 450 l 1
 400 450 l 1
 400 600 l 1
0 200 m 1
 150 200 l 1
 150 50 l 1
 0 50 l 1
 0 200 l 1
200 200 m 1
 350 200 l 1
 350 50 l 1
 200 50 l 1
 200 200 l 1
400 200 m 1
 550 200 l 1
 550 50 l 1
 400 50 l 1
 400 200 l 1
0 1000 m 1
 150 1000 l 1
 150 850 l 1
 0 850 l 1
 0 1000 l 1
EndSplineSet
EndChar

StartChar: uB0000
Encoding: 11 720896 11
Width: 800
VWidth: 0
Flags: HW
LayerCount: 2
Back
Fore
SplineSet
200 1000 m 1
 350 1000 l 1
 350 850 l 1
 200 850 l 1
 200 1000 l 1
0 800 m 1
 150 800 l 1
 150 650 l 1
 0 650 l 1
 0 800 l 1
200 800 m 1
 350 800 l 1
 350 650 l 1
 200 650 l 1
 200 800 l 1
400 800 m 1
 550 800 l 1
 550 650 l 1
 400 650 l 1
 400 800 l 1
200 600 m 1
 350 600 l 1
 350 450 l 1
 200 450 l 1
 200 600 l 1
0 400 m 1
 150 400 l 1
 150 250 l 1
 0 250 l 1
 0 400 l 1
200 400 m 1
 350 400 l 1
 350 250 l 1
 200 250 l 1
 200 400 l 1
400 400 m 1
 550 400 l 1
 550 250 l 1
 400 250 l 1
 400 400 l 1
200 200 m 1
 350 200 l 1
 350 50 l 1
 200 50 l 1
 200 200 l 1
EndSplineSet
EndChar

StartChar: uC0000
Encoding: 12 786432 12
Width: 1000
VWidth: 0
Flags: HW
LayerCount: 2
Back
Fore
SplineSet
200 1000 m 1
 350 1000 l 1
 350 850 l 1
 200 850 l 1
 200 1000 l 1
400 1000 m 1
 550 1000 l 1
 550 850 l 1
 400 850 l 1
 400 1000 l 1
600 1000 m 1
 750 1000 l 1
 750 850 l 1
 600 850 l 1
 600 1000 l 1
0 800 m 1
 150 800 l 1
 150 650 l 1
 0 650 l 1
 0 800 l 1
0 600 m 1
 150 600 l 1
 150 450 l 1
 0 450 l 1
 0 600 l 1
200 600 m 1
 350 600 l 1
 350 450 l 1
 200 450 l 1
 200 600 l 1
400 600 m 1
 550 600 l 1
 550 450 l 1
 400 450 l 1
 400 600 l 1
0 400 m 1
 150 400 l 1
 150 250 l 1
 0 250 l 1
 0 400 l 1
200 200 m 1
 350 200 l 1
 350 50 l 1
 200 50 l 1
 200 200 l 1
400 200 m 1
 550 200 l 1
 550 50 l 1
 400 50 l 1
 400 200 l 1
600 200 m 1
 750 200 l 1
 750 50 l 1
 600 50 l 1
 600 200 l 1
EndSplineSet
EndChar

StartChar: uD0000
Encoding: 13 851968 13
Width: 1000
VWidth: 0
Flags: HW
LayerCount: 2
Back
Fore
SplineSet
200 1000 m 1
 350 1000 l 1
 350 850 l 1
 200 850 l 1
 200 1000 l 1
400 800 m 1
 550 800 l 1
 550 650 l 1
 400 650 l 1
 400 800 l 1
0 600 m 1
 150 600 l 1
 150 450 l 1
 0 450 l 1
 0 600 l 1
200 600 m 1
 350 600 l 1
 350 450 l 1
 200 450 l 1
 200 600 l 1
400 600 m 1
 550 600 l 1
 550 450 l 1
 400 450 l 1
 400 600 l 1
600 600 m 1
 750 600 l 1
 750 450 l 1
 600 450 l 1
 600 600 l 1
400 400 m 1
 550 400 l 1
 550 250 l 1
 400 250 l 1
 400 400 l 1
200 200 m 1
 350 200 l 1
 350 50 l 1
 200 50 l 1
 200 200 l 1
EndSplineSet
EndChar

StartChar: uE0000
Encoding: 14 917504 14
Width: 1000
VWidth: 0
Flags: HW
LayerCount: 2
Back
Fore
SplineSet
400 1000 m 1
 550 1000 l 1
 550 850 l 1
 400 850 l 1
 400 1000 l 1
200 800 m 1
 350 800 l 1
 350 650 l 1
 200 650 l 1
 200 800 l 1
0 600 m 1
 150 600 l 1
 150 450 l 1
 0 450 l 1
 0 600 l 1
200 600 m 1
 350 600 l 1
 350 450 l 1
 200 450 l 1
 200 600 l 1
400 600 m 1
 550 600 l 1
 550 450 l 1
 400 450 l 1
 400 600 l 1
600 600 m 1
 750 600 l 1
 750 450 l 1
 600 450 l 1
 600 600 l 1
200 400 m 1
 350 400 l 1
 350 250 l 1
 200 250 l 1
 200 400 l 1
400 200 m 1
 550 200 l 1
 550 50 l 1
 400 50 l 1
 400 200 l 1
EndSplineSet
EndChar

StartChar: uF0000
Encoding: 15 983040 15
Width: 800
VWidth: 0
Flags: HW
LayerCount: 2
Back
Fore
SplineSet
200 1000 m 1
 350 1000 l 1
 350 850 l 1
 200 850 l 1
 200 1000 l 1
200 800 m 1
 350 800 l 1
 350 650 l 1
 200 650 l 1
 200 800 l 1
200 600 m 1
 350 600 l 1
 350 450 l 1
 200 450 l 1
 200 600 l 1
0 400 m 1
 150 400 l 1
 150 250 l 1
 0 250 l 1
 0 400 l 1
200 400 m 1
 350 400 l 1
 350 250 l 1
 200 250 l 1
 200 400 l 1
400 400 m 1
 550 400 l 1
 550 250 l 1
 400 250 l 1
 400 400 l 1
200 200 m 1
 350 200 l 1
 350 50 l 1
 200 50 l 1
 200 200 l 1
EndSplineSet
EndChar

StartChar: u100000
Encoding: 16 1048576 16
Width: 800
VWidth: 0
Flags: HW
LayerCount: 2
Back
Fore
SplineSet
200 1000 m 1
 350 1000 l 1
 350 850 l 1
 200 850 l 1
 200 1000 l 1
0 800 m 1
 150 800 l 1
 150 650 l 1
 0 650 l 1
 0 800 l 1
200 800 m 1
 350 800 l 1
 350 650 l 1
 200 650 l 1
 200 800 l 1
400 800 m 1
 550 800 l 1
 550 650 l 1
 400 650 l 1
 400 800 l 1
200 600 m 1
 350 600 l 1
 350 450 l 1
 200 450 l 1
 200 600 l 1
200 400 m 1
 350 400 l 1
 350 250 l 1
 200 250 l 1
 200 400 l 1
200 200 m 1
 350 200 l 1
 350 50 l 1
 200 50 l 1
 200 200 l 1
EndSplineSet
EndChar

StartChar: u110000
Encoding: 17 1114112 17
Width: 800
VWidth: 0
Flags: HW
LayerCount: 2
Back
Fore
SplineSet
200 1000 m 1
 350 1000 l 1
 350 850 l 1
 200 850 l 1
 200 1000 l 1
400 1000 m 1
 550 1000 l 1
 550 850 l 1
 400 850 l 1
 400 1000 l 1
200 800 m 1
 350 800 l 1
 350 650 l 1
 200 650 l 1
 200 800 l 1
0 600 m 1
 150 600 l 1
 150 450 l 1
 0 450 l 1
 0 600 l 1
200 600 m 1
 350 600 l 1
 350 450 l 1
 200 450 l 1
 200 600 l 1
400 600 m 1
 550 600 l 1
 550 450 l 1
 400 450 l 1
 400 600 l 1
200 400 m 1
 350 400 l 1
 350 250 l 1
 200 250 l 1
 200 400 l 1
EndSplineSet
EndChar

StartChar: u120000
Encoding: 18 1179648 18
Width: 800
VWidth: 0
Flags: HW
LayerCount: 2
Back
Fore
SplineSet
200 1000 m 1
 350 1000 l 1
 350 850 l 1
 200 850 l 1
 200 1000 l 1
400 1000 m 1
 550 1000 l 1
 550 850 l 1
 400 850 l 1
 400 1000 l 1
0 800 m 1
 150 800 l 1
 150 650 l 1
 0 650 l 1
 0 800 l 1
200 800 m 1
 350 800 l 1
 350 650 l 1
 200 650 l 1
 200 800 l 1
400 800 m 1
 550 800 l 1
 550 650 l 1
 400 650 l 1
 400 800 l 1
400 600 m 1
 550 600 l 1
 550 450 l 1
 400 450 l 1
 400 600 l 1
0 400 m 1
 150 400 l 1
 150 250 l 1
 0 250 l 1
 0 400 l 1
200 400 m 1
 350 400 l 1
 350 250 l 1
 200 250 l 1
 200 400 l 1
0 1000 m 1
 150 1000 l 1
 150 850 l 1
 0 850 l 1
 0 1000 l 1
EndSplineSet
EndChar

StartChar: u130000
Encoding: 19 1245184 19
Width: 800
VWidth: 0
Flags: HW
LayerCount: 2
Back
Fore
SplineSet
0 800 m 1
 150 800 l 1
 150 650 l 1
 0 650 l 1
 0 800 l 1
200 800 m 1
 350 800 l 1
 350 650 l 1
 200 650 l 1
 200 800 l 1
400 800 m 1
 550 800 l 1
 550 650 l 1
 400 650 l 1
 400 800 l 1
0 600 m 1
 150 600 l 1
 150 450 l 1
 0 450 l 1
 0 600 l 1
400 600 m 1
 550 600 l 1
 550 450 l 1
 400 450 l 1
 400 600 l 1
0 1000 m 1
 150 1000 l 1
 150 850 l 1
 0 850 l 1
 0 1000 l 1
EndSplineSet
EndChar

StartChar: u140000
Encoding: 20 1310720 20
Width: 600
VWidth: 0
Flags: HW
LayerCount: 2
Back
Fore
SplineSet
200 1000 m 1
 350 1000 l 1
 350 850 l 1
 200 850 l 1
 200 1000 l 1
0 800 m 1
 150 800 l 1
 150 650 l 1
 0 650 l 1
 0 800 l 1
0 600 m 1
 150 600 l 1
 150 450 l 1
 0 450 l 1
 0 600 l 1
200 600 m 1
 350 600 l 1
 350 450 l 1
 200 450 l 1
 200 600 l 1
0 1000 m 1
 150 1000 l 1
 150 850 l 1
 0 850 l 1
 0 1000 l 1
EndSplineSet
EndChar

StartChar: u150000
Encoding: 21 1376256 21
Width: 1200
VWidth: 0
Flags: HW
LayerCount: 2
Back
Fore
SplineSet
600 400 m 1
 750 400 l 1
 750 250 l 1
 600 250 l 1
 600 400 l 1
0 200 m 1
 150 200 l 1
 150 50 l 1
 0 50 l 1
 0 200 l 1
200 200 m 1
 350 200 l 1
 350 50 l 1
 200 50 l 1
 200 200 l 1
400 200 m 1
 550 200 l 1
 550 50 l 1
 400 50 l 1
 400 200 l 1
600 200 m 1
 750 200 l 1
 750 50 l 1
 600 50 l 1
 600 200 l 1
800 200 m 1
 950 200 l 1
 950 50 l 1
 800 50 l 1
 800 200 l 1
600 0 m 1
 750 0 l 1
 750 -150 l 1
 600 -150 l 1
 600 0 l 1
EndSplineSet
EndChar

StartChar: u160000
Encoding: 22 1441792 22
Width: 1200
VWidth: 0
Flags: HW
LayerCount: 2
Back
Fore
SplineSet
200 1000 m 1
 350 1000 l 1
 350 850 l 1
 200 850 l 1
 200 1000 l 1
0 800 m 1
 150 800 l 1
 150 650 l 1
 0 650 l 1
 0 800 l 1
200 800 m 1
 350 800 l 1
 350 650 l 1
 200 650 l 1
 200 800 l 1
400 800 m 1
 550 800 l 1
 550 650 l 1
 400 650 l 1
 400 800 l 1
600 800 m 1
 750 800 l 1
 750 650 l 1
 600 650 l 1
 600 800 l 1
800 800 m 1
 950 800 l 1
 950 650 l 1
 800 650 l 1
 800 800 l 1
200 600 m 1
 350 600 l 1
 350 450 l 1
 200 450 l 1
 200 600 l 1
EndSplineSet
EndChar

StartChar: u170000
Encoding: 23 1507328 23
Width: 1200
VWidth: 0
Flags: HW
LayerCount: 2
Back
Fore
SplineSet
200 1000 m 1
 350 1000 l 1
 350 850 l 1
 200 850 l 1
 200 1000 l 1
0 800 m 1
 150 800 l 1
 150 650 l 1
 0 650 l 1
 0 800 l 1
200 800 m 1
 350 800 l 1
 350 650 l 1
 200 650 l 1
 200 800 l 1
400 800 m 1
 550 800 l 1
 550 650 l 1
 400 650 l 1
 400 800 l 1
600 800 m 1
 750 800 l 1
 750 650 l 1
 600 650 l 1
 600 800 l 1
800 800 m 1
 950 800 l 1
 950 650 l 1
 800 650 l 1
 800 800 l 1
200 600 m 1
 350 600 l 1
 350 450 l 1
 200 450 l 1
 200 600 l 1
600 400 m 1
 750 400 l 1
 750 250 l 1
 600 250 l 1
 600 400 l 1
0 200 m 1
 150 200 l 1
 150 50 l 1
 0 50 l 1
 0 200 l 1
200 200 m 1
 350 200 l 1
 350 50 l 1
 200 50 l 1
 200 200 l 1
400 200 m 1
 550 200 l 1
 550 50 l 1
 400 50 l 1
 400 200 l 1
600 200 m 1
 750 200 l 1
 750 50 l 1
 600 50 l 1
 600 200 l 1
800 200 m 1
 950 200 l 1
 950 50 l 1
 800 50 l 1
 800 200 l 1
600 0 m 1
 750 0 l 1
 750 -150 l 1
 600 -150 l 1
 600 0 l 1
EndSplineSet
EndChar

StartChar: u180000
Encoding: 24 1572864 24
Width: 800
VWidth: 0
Flags: HW
LayerCount: 2
Back
Fore
SplineSet
200 1000 m 1
 350 1000 l 1
 350 850 l 1
 200 850 l 1
 200 1000 l 1
0 800 m 1
 150 800 l 1
 150 650 l 1
 0 650 l 1
 0 800 l 1
400 800 m 1
 550 800 l 1
 550 650 l 1
 400 650 l 1
 400 800 l 1
0 600 m 1
 150 600 l 1
 150 450 l 1
 0 450 l 1
 0 600 l 1
200 600 m 1
 350 600 l 1
 350 450 l 1
 200 450 l 1
 200 600 l 1
0 400 m 1
 150 400 l 1
 150 250 l 1
 0 250 l 1
 0 400 l 1
400 400 m 1
 550 400 l 1
 550 250 l 1
 400 250 l 1
 400 400 l 1
0 200 m 1
 150 200 l 1
 150 50 l 1
 0 50 l 1
 0 200 l 1
200 200 m 1
 350 200 l 1
 350 50 l 1
 200 50 l 1
 200 200 l 1
400 200 m 1
 550 200 l 1
 550 50 l 1
 400 50 l 1
 400 200 l 1
0 0 m 1
 150 0 l 1
 150 -150 l 1
 0 -150 l 1
 0 0 l 1
0 1000 m 1
 150 1000 l 1
 150 850 l 1
 0 850 l 1
 0 1000 l 1
EndSplineSet
EndChar

StartChar: u190000
Encoding: 25 1638400 25
Width: 800
VWidth: 0
Flags: HW
LayerCount: 2
Back
Fore
SplineSet
200 1000 m 1
 350 1000 l 1
 350 850 l 1
 200 850 l 1
 200 1000 l 1
0 800 m 1
 150 800 l 1
 150 650 l 1
 0 650 l 1
 0 800 l 1
400 800 m 1
 550 800 l 1
 550 650 l 1
 400 650 l 1
 400 800 l 1
0 400 m 1
 150 400 l 1
 150 250 l 1
 0 250 l 1
 0 400 l 1
400 400 m 1
 550 400 l 1
 550 250 l 1
 400 250 l 1
 400 400 l 1
200 200 m 1
 350 200 l 1
 350 50 l 1
 200 50 l 1
 200 200 l 1
0 0 m 1
 150 0 l 1
 150 -150 l 1
 0 -150 l 1
 0 0 l 1
400 0 m 1
 550 0 l 1
 550 -150 l 1
 400 -150 l 1
 400 0 l 1
EndSplineSet
EndChar

StartChar: u1A0000
Encoding: 26 1703936 26
Width: 800
VWidth: 0
Flags: HW
LayerCount: 2
Back
Fore
SplineSet
200 1000 m 1
 350 1000 l 1
 350 850 l 1
 200 850 l 1
 200 1000 l 1
0 800 m 1
 150 800 l 1
 150 650 l 1
 0 650 l 1
 0 800 l 1
400 800 m 1
 550 800 l 1
 550 650 l 1
 400 650 l 1
 400 800 l 1
0 400 m 1
 150 400 l 1
 150 250 l 1
 0 250 l 1
 0 400 l 1
400 400 m 1
 550 400 l 1
 550 250 l 1
 400 250 l 1
 400 400 l 1
200 200 m 1
 350 200 l 1
 350 50 l 1
 200 50 l 1
 200 200 l 1
200 0 m 1
 350 0 l 1
 350 -150 l 1
 200 -150 l 1
 200 0 l 1
EndSplineSet
EndChar

StartChar: u1B0000
Encoding: 27 1769472 27
Width: 1200
VWidth: 0
Flags: HW
LayerCount: 2
Back
Fore
SplineSet
200 200 m 1
 350 200 l 1
 350 50 l 1
 200 50 l 1
 200 200 l 1
400 200 m 1
 550 200 l 1
 550 50 l 1
 400 50 l 1
 400 200 l 1
600 200 m 1
 750 200 l 1
 750 50 l 1
 600 50 l 1
 600 200 l 1
800 200 m 1
 950 200 l 1
 950 50 l 1
 800 50 l 1
 800 200 l 1
0 0 m 1
 150 0 l 1
 150 -150 l 1
 0 -150 l 1
 0 0 l 1
400 0 m 1
 550 0 l 1
 550 -150 l 1
 400 -150 l 1
 400 0 l 1
800 0 m 1
 950 0 l 1
 950 -150 l 1
 800 -150 l 1
 800 0 l 1
0 200 m 1
 150 200 l 1
 150 50 l 1
 0 50 l 1
 0 200 l 1
EndSplineSet
EndChar

StartChar: u1C0000
Encoding: 28 1835008 28
Width: 800
VWidth: 0
Flags: HW
LayerCount: 2
Back
Fore
SplineSet
400 800 m 1
 550 800 l 1
 550 650 l 1
 400 650 l 1
 400 800 l 1
200 600 m 1
 350 600 l 1
 350 450 l 1
 200 450 l 1
 200 600 l 1
0 400 m 1
 150 400 l 1
 150 250 l 1
 0 250 l 1
 0 400 l 1
400 400 m 1
 550 400 l 1
 550 250 l 1
 400 250 l 1
 400 400 l 1
0 800 m 1
 150 800 l 1
 150 650 l 1
 0 650 l 1
 0 800 l 1
EndSplineSet
EndChar

StartChar: u1D0000
Encoding: 29 1900544 29
Width: 1000
VWidth: 0
Flags: HW
LayerCount: 2
Back
Fore
SplineSet
200 1000 m 1
 350 1000 l 1
 350 850 l 1
 200 850 l 1
 200 1000 l 1
600 1000 m 1
 750 1000 l 1
 750 850 l 1
 600 850 l 1
 600 1000 l 1
0 800 m 1
 150 800 l 1
 150 650 l 1
 0 650 l 1
 0 800 l 1
400 800 m 1
 550 800 l 1
 550 650 l 1
 400 650 l 1
 400 800 l 1
200 400 m 1
 350 400 l 1
 350 250 l 1
 200 250 l 1
 200 400 l 1
600 400 m 1
 750 400 l 1
 750 250 l 1
 600 250 l 1
 600 400 l 1
0 200 m 1
 150 200 l 1
 150 50 l 1
 0 50 l 1
 0 200 l 1
400 200 m 1
 550 200 l 1
 550 50 l 1
 400 50 l 1
 400 200 l 1
EndSplineSet
EndChar

StartChar: u1E0000
Encoding: 30 1966080 30
Width: 1000
VWidth: 0
Flags: HW
LayerCount: 2
Back
Fore
SplineSet
200 1000 m 1
 350 1000 l 1
 350 850 l 1
 200 850 l 1
 200 1000 l 1
400 1000 m 1
 550 1000 l 1
 550 850 l 1
 400 850 l 1
 400 1000 l 1
200 800 m 1
 350 800 l 1
 350 650 l 1
 200 650 l 1
 200 800 l 1
0 600 m 1
 150 600 l 1
 150 450 l 1
 0 450 l 1
 0 600 l 1
200 600 m 1
 350 600 l 1
 350 450 l 1
 200 450 l 1
 200 600 l 1
400 600 m 1
 550 600 l 1
 550 450 l 1
 400 450 l 1
 400 600 l 1
200 400 m 1
 350 400 l 1
 350 250 l 1
 200 250 l 1
 200 400 l 1
0 200 m 1
 150 200 l 1
 150 50 l 1
 0 50 l 1
 0 200 l 1
200 200 m 1
 350 200 l 1
 350 50 l 1
 200 50 l 1
 200 200 l 1
400 200 m 1
 550 200 l 1
 550 50 l 1
 400 50 l 1
 400 200 l 1
600 200 m 1
 750 200 l 1
 750 50 l 1
 600 50 l 1
 600 200 l 1
EndSplineSet
EndChar

StartChar: u1F0000
Encoding: 31 2031616 31
Width: 1200
VWidth: 0
Flags: HW
LayerCount: 2
Back
Fore
SplineSet
800 1000 m 1
 950 1000 l 1
 950 850 l 1
 800 850 l 1
 800 1000 l 1
200 800 m 1
 350 800 l 1
 350 650 l 1
 200 650 l 1
 200 800 l 1
400 800 m 1
 550 800 l 1
 550 650 l 1
 400 650 l 1
 400 800 l 1
600 800 m 1
 750 800 l 1
 750 650 l 1
 600 650 l 1
 600 800 l 1
400 600 m 1
 550 600 l 1
 550 450 l 1
 400 450 l 1
 400 600 l 1
200 400 m 1
 350 400 l 1
 350 250 l 1
 200 250 l 1
 200 400 l 1
400 400 m 1
 550 400 l 1
 550 250 l 1
 400 250 l 1
 400 400 l 1
600 400 m 1
 750 400 l 1
 750 250 l 1
 600 250 l 1
 600 400 l 1
400 200 m 1
 550 200 l 1
 550 50 l 1
 400 50 l 1
 400 200 l 1
0 1000 m 1
 150 1000 l 1
 150 850 l 1
 0 850 l 1
 0 1000 l 1
EndSplineSet
EndChar

StartChar: u200000
Encoding: 32 2097152 32
Width: 400
VWidth: 0
Flags: HW
LayerCount: 2
Back
Fore
SplineSet
375 -175 m 1
 400 -200 l 1
 375 -175 l 1
EndSplineSet
EndChar

StartChar: u210000
Encoding: 33 2162688 33
Width: 400
VWidth: 0
Flags: HW
LayerCount: 2
Back
Fore
SplineSet
0 200 m 1
 150 200 l 1
 150 50 l 1
 0 50 l 1
 0 200 l 1
0 600 m 1
 150 600 l 1
 150 450 l 1
 0 450 l 1
 0 600 l 1
0 600 m 1
0 800 m 1
 150 800 l 1
 150 650 l 1
 0 650 l 1
 0 800 l 1
0 800 m 1
0 1000 m 1
 150 1000 l 1
 150 850 l 1
 0 850 l 1
 0 1000 l 1
EndSplineSet
EndChar

StartChar: u220000
Encoding: 34 2228224 34
Width: 800
VWidth: 0
Flags: HW
LayerCount: 2
Back
Fore
SplineSet
400 1000 m 1
 550 1000 l 1
 550 850 l 1
 400 850 l 1
 400 1000 l 1
0 800 m 1
 150 800 l 1
 150 650 l 1
 0 650 l 1
 0 800 l 1
400 800 m 1
 550 800 l 1
 550 650 l 1
 400 650 l 1
 400 800 l 1
0 1000 m 1
 150 1000 l 1
 150 850 l 1
 0 850 l 1
 0 1000 l 1
EndSplineSet
EndChar

StartChar: u230000
Encoding: 35 2293760 35
Width: 1200
VWidth: 0
Flags: HW
LayerCount: 2
Back
Fore
SplineSet
200 1000 m 1
 350 1000 l 1
 350 850 l 1
 200 850 l 1
 200 1000 l 1
600 1000 m 1
 750 1000 l 1
 750 850 l 1
 600 850 l 1
 600 1000 l 1
0 800 m 1
 150 800 l 1
 150 650 l 1
 0 650 l 1
 0 800 l 1
200 800 m 1
 350 800 l 1
 350 650 l 1
 200 650 l 1
 200 800 l 1
400 800 m 1
 550 800 l 1
 550 650 l 1
 400 650 l 1
 400 800 l 1
600 800 m 1
 750 800 l 1
 750 650 l 1
 600 650 l 1
 600 800 l 1
800 800 m 1
 950 800 l 1
 950 650 l 1
 800 650 l 1
 800 800 l 1
200 600 m 1
 350 600 l 1
 350 450 l 1
 200 450 l 1
 200 600 l 1
600 600 m 1
 750 600 l 1
 750 450 l 1
 600 450 l 1
 600 600 l 1
0 400 m 1
 150 400 l 1
 150 250 l 1
 0 250 l 1
 0 400 l 1
200 400 m 1
 350 400 l 1
 350 250 l 1
 200 250 l 1
 200 400 l 1
400 400 m 1
 550 400 l 1
 550 250 l 1
 400 250 l 1
 400 400 l 1
600 400 m 1
 750 400 l 1
 750 250 l 1
 600 250 l 1
 600 400 l 1
800 400 m 1
 950 400 l 1
 950 250 l 1
 800 250 l 1
 800 400 l 1
200 200 m 1
 350 200 l 1
 350 50 l 1
 200 50 l 1
 200 200 l 1
600 200 m 1
 750 200 l 1
 750 50 l 1
 600 50 l 1
 600 200 l 1
EndSplineSet
EndChar

StartChar: u240000
Encoding: 36 2359296 36
Width: 1200
VWidth: 0
Flags: HW
LayerCount: 2
Back
Fore
SplineSet
200 1000 m 1
 350 1000 l 1
 350 850 l 1
 200 850 l 1
 200 1000 l 1
400 1000 m 1
 550 1000 l 1
 550 850 l 1
 400 850 l 1
 400 1000 l 1
600 1000 m 1
 750 1000 l 1
 750 850 l 1
 600 850 l 1
 600 1000 l 1
800 1000 m 1
 950 1000 l 1
 950 850 l 1
 800 850 l 1
 800 1000 l 1
0 800 m 1
 150 800 l 1
 150 650 l 1
 0 650 l 1
 0 800 l 1
400 800 m 1
 550 800 l 1
 550 650 l 1
 400 650 l 1
 400 800 l 1
200 600 m 1
 350 600 l 1
 350 450 l 1
 200 450 l 1
 200 600 l 1
400 600 m 1
 550 600 l 1
 550 450 l 1
 400 450 l 1
 400 600 l 1
600 600 m 1
 750 600 l 1
 750 450 l 1
 600 450 l 1
 600 600 l 1
400 400 m 1
 550 400 l 1
 550 250 l 1
 400 250 l 1
 400 400 l 1
800 400 m 1
 950 400 l 1
 950 250 l 1
 800 250 l 1
 800 400 l 1
0 200 m 1
 150 200 l 1
 150 50 l 1
 0 50 l 1
 0 200 l 1
200 200 m 1
 350 200 l 1
 350 50 l 1
 200 50 l 1
 200 200 l 1
400 200 m 1
 550 200 l 1
 550 50 l 1
 400 50 l 1
 400 200 l 1
600 200 m 1
 750 200 l 1
 750 50 l 1
 600 50 l 1
 600 200 l 1
EndSplineSet
EndChar

StartChar: u250000
Encoding: 37 2424832 37
Width: 800
VWidth: 0
Flags: HW
LayerCount: 2
Back
Fore
SplineSet
400 800 m 1
 550 800 l 1
 550 650 l 1
 400 650 l 1
 400 800 l 1
200 600 m 1
 350 600 l 1
 350 450 l 1
 200 450 l 1
 200 600 l 1
0 400 m 1
 150 400 l 1
 150 250 l 1
 0 250 l 1
 0 400 l 1
400 200 m 1
 550 200 l 1
 550 50 l 1
 400 50 l 1
 400 200 l 1
0 1000 m 1
 150 1000 l 1
 150 850 l 1
 0 850 l 1
 0 1000 l 1
EndSplineSet
EndChar

StartChar: u260000
Encoding: 38 2490368 38
Width: 1000
VWidth: 0
Flags: HW
LayerCount: 2
Back
Fore
SplineSet
200 1000 m 1
 350 1000 l 1
 350 850 l 1
 200 850 l 1
 200 1000 l 1
400 1000 m 1
 550 1000 l 1
 550 850 l 1
 400 850 l 1
 400 1000 l 1
0 800 m 1
 150 800 l 1
 150 650 l 1
 0 650 l 1
 0 800 l 1
400 800 m 1
 550 800 l 1
 550 650 l 1
 400 650 l 1
 400 800 l 1
200 600 m 1
 350 600 l 1
 350 450 l 1
 200 450 l 1
 200 600 l 1
0 400 m 1
 150 400 l 1
 150 250 l 1
 0 250 l 1
 0 400 l 1
400 400 m 1
 550 400 l 1
 550 250 l 1
 400 250 l 1
 400 400 l 1
600 400 m 1
 750 400 l 1
 750 250 l 1
 600 250 l 1
 600 400 l 1
0 200 m 1
 150 200 l 1
 150 50 l 1
 0 50 l 1
 0 200 l 1
200 200 m 1
 350 200 l 1
 350 50 l 1
 200 50 l 1
 200 200 l 1
400 200 m 1
 550 200 l 1
 550 50 l 1
 400 50 l 1
 400 200 l 1
600 0 m 1
 750 0 l 1
 750 -150 l 1
 600 -150 l 1
 600 0 l 1
0 1000 m 1
 150 1000 l 1
 150 850 l 1
 0 850 l 1
 0 1000 l 1
EndSplineSet
EndChar

StartChar: u270000
Encoding: 39 2555904 39
Width: 400
VWidth: 0
Flags: HW
LayerCount: 2
Back
Fore
SplineSet
0 800 m 1
 150 800 l 1
 150 650 l 1
 0 650 l 1
 0 800 l 1
0 800 m 1
0 1000 m 1
 150 1000 l 1
 150 850 l 1
 0 850 l 1
 0 1000 l 1
EndSplineSet
EndChar

StartChar: u280000
Encoding: 40 2621440 40
Width: 600
VWidth: 0
Flags: HW
LayerCount: 2
Back
Fore
SplineSet
200 1000 m 1
 350 1000 l 1
 350 850 l 1
 200 850 l 1
 200 1000 l 1
0 800 m 1
 150 800 l 1
 150 650 l 1
 0 650 l 1
 0 800 l 1
0 600 m 1
 150 600 l 1
 150 450 l 1
 0 450 l 1
 0 600 l 1
0 400 m 1
 150 400 l 1
 150 250 l 1
 0 250 l 1
 0 400 l 1
200 200 m 1
 350 200 l 1
 350 50 l 1
 200 50 l 1
 200 200 l 1
EndSplineSet
EndChar

StartChar: u290000
Encoding: 41 2686976 41
Width: 600
VWidth: 0
Flags: HW
LayerCount: 2
Back
Fore
SplineSet
200 800 m 1
 350 800 l 1
 350 650 l 1
 200 650 l 1
 200 800 l 1
200 600 m 1
 350 600 l 1
 350 450 l 1
 200 450 l 1
 200 600 l 1
200 400 m 1
 350 400 l 1
 350 250 l 1
 200 250 l 1
 200 400 l 1
0 200 m 1
 150 200 l 1
 150 50 l 1
 0 50 l 1
 0 200 l 1
0 1000 m 1
 150 1000 l 1
 150 850 l 1
 0 850 l 1
 0 1000 l 1
EndSplineSet
EndChar

StartChar: u2A0000
Encoding: 42 2752512 42
Width: 1200
VWidth: 0
Flags: HW
LayerCount: 2
Back
Fore
SplineSet
200 1000 m 1
 350 1000 l 1
 350 850 l 1
 200 850 l 1
 200 1000 l 1
600 1000 m 1
 750 1000 l 1
 750 850 l 1
 600 850 l 1
 600 1000 l 1
400 800 m 1
 550 800 l 1
 550 650 l 1
 400 650 l 1
 400 800 l 1
0 600 m 1
 150 600 l 1
 150 450 l 1
 0 450 l 1
 0 600 l 1
200 600 m 1
 350 600 l 1
 350 450 l 1
 200 450 l 1
 200 600 l 1
400 600 m 1
 550 600 l 1
 550 450 l 1
 400 450 l 1
 400 600 l 1
600 600 m 1
 750 600 l 1
 750 450 l 1
 600 450 l 1
 600 600 l 1
800 600 m 1
 950 600 l 1
 950 450 l 1
 800 450 l 1
 800 600 l 1
400 400 m 1
 550 400 l 1
 550 250 l 1
 400 250 l 1
 400 400 l 1
200 200 m 1
 350 200 l 1
 350 50 l 1
 200 50 l 1
 200 200 l 1
600 200 m 1
 750 200 l 1
 750 50 l 1
 600 50 l 1
 600 200 l 1
EndSplineSet
EndChar

StartChar: u2B0000
Encoding: 43 2818048 43
Width: 800
VWidth: 0
Flags: HW
LayerCount: 2
Back
Fore
SplineSet
200 800 m 1
 350 800 l 1
 350 650 l 1
 200 650 l 1
 200 800 l 1
0 600 m 1
 150 600 l 1
 150 450 l 1
 0 450 l 1
 0 600 l 1
200 600 m 1
 350 600 l 1
 350 450 l 1
 200 450 l 1
 200 600 l 1
400 600 m 1
 550 600 l 1
 550 450 l 1
 400 450 l 1
 400 600 l 1
200 400 m 1
 350 400 l 1
 350 250 l 1
 200 250 l 1
 200 400 l 1
EndSplineSet
EndChar

StartChar: u2C0000
Encoding: 44 2883584 44
Width: 600
VWidth: 0
Flags: HW
LayerCount: 2
Back
Fore
SplineSet
200 200 m 1
 350 200 l 1
 350 50 l 1
 200 50 l 1
 200 200 l 1
0 0 m 1
 150 0 l 1
 150 -150 l 1
 0 -150 l 1
 0 0 l 1
EndSplineSet
EndChar

StartChar: u2D0000
Encoding: 45 2949120 45
Width: 800
VWidth: 0
Flags: HW
LayerCount: 2
Back
Fore
SplineSet
400 600 m 1
 550 600 l 1
 550 450 l 1
 400 450 l 1
 400 600 l 1
200 600 m 1
 350 600 l 1
 350 450 l 1
 200 450 l 1
 200 600 l 1
0 600 m 1
 150 600 l 1
 150 450 l 1
 0 450 l 1
 0 600 l 1
EndSplineSet
EndChar

StartChar: u2E0000
Encoding: 46 3014656 46
Width: 400
VWidth: 0
Flags: HW
LayerCount: 2
Back
Fore
SplineSet
0 200 m 1
 150 200 l 1
 150 50 l 1
 0 50 l 1
 0 200 l 1
EndSplineSet
EndChar

StartChar: u2F0000
Encoding: 47 3080192 47
Width: 800
VWidth: 0
Flags: HW
LayerCount: 2
Back
Fore
SplineSet
400 1000 m 1
 550 1000 l 1
 550 850 l 1
 400 850 l 1
 400 1000 l 1
400 800 m 1
 550 800 l 1
 550 650 l 1
 400 650 l 1
 400 800 l 1
200 600 m 1
 350 600 l 1
 350 450 l 1
 200 450 l 1
 200 600 l 1
200 400 m 1
 350 400 l 1
 350 250 l 1
 200 250 l 1
 200 400 l 1
0 200 m 1
 150 200 l 1
 150 50 l 1
 0 50 l 1
 0 200 l 1
0 0 m 1
 150 0 l 1
 150 -150 l 1
 0 -150 l 1
 0 0 l 1
EndSplineSet
EndChar

StartChar: u300000
Encoding: 48 3145728 48
Width: 800
VWidth: 0
Flags: HW
LayerCount: 2
Back
Fore
SplineSet
200 1000 m 1
 350 1000 l 1
 350 850 l 1
 200 850 l 1
 200 1000 l 1
400 1000 m 1
 550 1000 l 1
 550 850 l 1
 400 850 l 1
 400 1000 l 1
0 800 m 1
 150 800 l 1
 150 650 l 1
 0 650 l 1
 0 800 l 1
400 800 m 1
 550 800 l 1
 550 650 l 1
 400 650 l 1
 400 800 l 1
0 600 m 1
 150 600 l 1
 150 450 l 1
 0 450 l 1
 0 600 l 1
400 600 m 1
 550 600 l 1
 550 450 l 1
 400 450 l 1
 400 600 l 1
0 400 m 1
 150 400 l 1
 150 250 l 1
 0 250 l 1
 0 400 l 1
400 400 m 1
 550 400 l 1
 550 250 l 1
 400 250 l 1
 400 400 l 1
0 200 m 1
 150 200 l 1
 150 50 l 1
 0 50 l 1
 0 200 l 1
200 200 m 1
 350 200 l 1
 350 50 l 1
 200 50 l 1
 200 200 l 1
EndSplineSet
EndChar

StartChar: u310000
Encoding: 49 3211264 49
Width: 600
VWidth: 0
Flags: HW
LayerCount: 2
Back
Fore
SplineSet
200 1000 m 1
 350 1000 l 1
 350 850 l 1
 200 850 l 1
 200 1000 l 1
0 800 m 1
 150 800 l 1
 150 650 l 1
 0 650 l 1
 0 800 l 1
200 800 m 1
 350 800 l 1
 350 650 l 1
 200 650 l 1
 200 800 l 1
200 600 m 1
 350 600 l 1
 350 450 l 1
 200 450 l 1
 200 600 l 1
200 400 m 1
 350 400 l 1
 350 250 l 1
 200 250 l 1
 200 400 l 1
200 200 m 1
 350 200 l 1
 350 50 l 1
 200 50 l 1
 200 200 l 1
EndSplineSet
EndChar

StartChar: u320000
Encoding: 50 3276800 50
Width: 800
VWidth: 0
Flags: HW
LayerCount: 2
Back
Fore
SplineSet
200 1000 m 1
 350 1000 l 1
 350 850 l 1
 200 850 l 1
 200 1000 l 1
400 1000 m 1
 550 1000 l 1
 550 850 l 1
 400 850 l 1
 400 1000 l 1
400 800 m 1
 550 800 l 1
 550 650 l 1
 400 650 l 1
 400 800 l 1
200 600 m 1
 350 600 l 1
 350 450 l 1
 200 450 l 1
 200 600 l 1
400 600 m 1
 550 600 l 1
 550 450 l 1
 400 450 l 1
 400 600 l 1
0 400 m 1
 150 400 l 1
 150 250 l 1
 0 250 l 1
 0 400 l 1
0 200 m 1
 150 200 l 1
 150 50 l 1
 0 50 l 1
 0 200 l 1
200 200 m 1
 350 200 l 1
 350 50 l 1
 200 50 l 1
 200 200 l 1
400 200 m 1
 550 200 l 1
 550 50 l 1
 400 50 l 1
 400 200 l 1
0 1000 m 1
 150 1000 l 1
 150 850 l 1
 0 850 l 1
 0 1000 l 1
EndSplineSet
EndChar

StartChar: u330000
Encoding: 51 3342336 51
Width: 800
VWidth: 0
Flags: HW
LayerCount: 2
Back
Fore
SplineSet
200 1000 m 1
 350 1000 l 1
 350 850 l 1
 200 850 l 1
 200 1000 l 1
400 1000 m 1
 550 1000 l 1
 550 850 l 1
 400 850 l 1
 400 1000 l 1
400 800 m 1
 550 800 l 1
 550 650 l 1
 400 650 l 1
 400 800 l 1
200 600 m 1
 350 600 l 1
 350 450 l 1
 200 450 l 1
 200 600 l 1
400 600 m 1
 550 600 l 1
 550 450 l 1
 400 450 l 1
 400 600 l 1
400 400 m 1
 550 400 l 1
 550 250 l 1
 400 250 l 1
 400 400 l 1
0 200 m 1
 150 200 l 1
 150 50 l 1
 0 50 l 1
 0 200 l 1
200 200 m 1
 350 200 l 1
 350 50 l 1
 200 50 l 1
 200 200 l 1
400 200 m 1
 550 200 l 1
 550 50 l 1
 400 50 l 1
 400 200 l 1
0 1000 m 1
 150 1000 l 1
 150 850 l 1
 0 850 l 1
 0 1000 l 1
EndSplineSet
EndChar

StartChar: u340000
Encoding: 52 3407872 52
Width: 800
VWidth: 0
Flags: HW
LayerCount: 2
Back
Fore
SplineSet
400 1000 m 1
 550 1000 l 1
 550 850 l 1
 400 850 l 1
 400 1000 l 1
0 800 m 1
 150 800 l 1
 150 650 l 1
 0 650 l 1
 0 800 l 1
400 800 m 1
 550 800 l 1
 550 650 l 1
 400 650 l 1
 400 800 l 1
0 600 m 1
 150 600 l 1
 150 450 l 1
 0 450 l 1
 0 600 l 1
200 600 m 1
 350 600 l 1
 350 450 l 1
 200 450 l 1
 200 600 l 1
400 600 m 1
 550 600 l 1
 550 450 l 1
 400 450 l 1
 400 600 l 1
400 400 m 1
 550 400 l 1
 550 250 l 1
 400 250 l 1
 400 400 l 1
400 200 m 1
 550 200 l 1
 550 50 l 1
 400 50 l 1
 400 200 l 1
0 1000 m 1
 150 1000 l 1
 150 850 l 1
 0 850 l 1
 0 1000 l 1
EndSplineSet
EndChar

StartChar: u350000
Encoding: 53 3473408 53
Width: 800
VWidth: 0
Flags: HW
LayerCount: 2
Back
Fore
SplineSet
200 1000 m 1
 350 1000 l 1
 350 850 l 1
 200 850 l 1
 200 1000 l 1
400 1000 m 1
 550 1000 l 1
 550 850 l 1
 400 850 l 1
 400 1000 l 1
0 800 m 1
 150 800 l 1
 150 650 l 1
 0 650 l 1
 0 800 l 1
0 600 m 1
 150 600 l 1
 150 450 l 1
 0 450 l 1
 0 600 l 1
200 600 m 1
 350 600 l 1
 350 450 l 1
 200 450 l 1
 200 600 l 1
400 600 m 1
 550 600 l 1
 550 450 l 1
 400 450 l 1
 400 600 l 1
400 400 m 1
 550 400 l 1
 550 250 l 1
 400 250 l 1
 400 400 l 1
0 200 m 1
 150 200 l 1
 150 50 l 1
 0 50 l 1
 0 200 l 1
200 200 m 1
 350 200 l 1
 350 50 l 1
 200 50 l 1
 200 200 l 1
400 200 m 1
 550 200 l 1
 550 50 l 1
 400 50 l 1
 400 200 l 1
0 1000 m 1
 150 1000 l 1
 150 850 l 1
 0 850 l 1
 0 1000 l 1
EndSplineSet
EndChar

StartChar: u360000
Encoding: 54 3538944 54
Width: 800
VWidth: 0
Flags: HW
LayerCount: 2
Back
Fore
SplineSet
200 1000 m 1
 350 1000 l 1
 350 850 l 1
 200 850 l 1
 200 1000 l 1
400 1000 m 1
 550 1000 l 1
 550 850 l 1
 400 850 l 1
 400 1000 l 1
0 800 m 1
 150 800 l 1
 150 650 l 1
 0 650 l 1
 0 800 l 1
0 600 m 1
 150 600 l 1
 150 450 l 1
 0 450 l 1
 0 600 l 1
200 600 m 1
 350 600 l 1
 350 450 l 1
 200 450 l 1
 200 600 l 1
400 600 m 1
 550 600 l 1
 550 450 l 1
 400 450 l 1
 400 600 l 1
0 400 m 1
 150 400 l 1
 150 250 l 1
 0 250 l 1
 0 400 l 1
400 400 m 1
 550 400 l 1
 550 250 l 1
 400 250 l 1
 400 400 l 1
0 200 m 1
 150 200 l 1
 150 50 l 1
 0 50 l 1
 0 200 l 1
200 200 m 1
 350 200 l 1
 350 50 l 1
 200 50 l 1
 200 200 l 1
400 200 m 1
 550 200 l 1
 550 50 l 1
 400 50 l 1
 400 200 l 1
EndSplineSet
EndChar

StartChar: u370000
Encoding: 55 3604480 55
Width: 800
VWidth: 0
Flags: HW
LayerCount: 2
Back
Fore
SplineSet
200 1000 m 1
 350 1000 l 1
 350 850 l 1
 200 850 l 1
 200 1000 l 1
400 1000 m 1
 550 1000 l 1
 550 850 l 1
 400 850 l 1
 400 1000 l 1
400 800 m 1
 550 800 l 1
 550 650 l 1
 400 650 l 1
 400 800 l 1
400 600 m 1
 550 600 l 1
 550 450 l 1
 400 450 l 1
 400 600 l 1
200 400 m 1
 350 400 l 1
 350 250 l 1
 200 250 l 1
 200 400 l 1
200 200 m 1
 350 200 l 1
 350 50 l 1
 200 50 l 1
 200 200 l 1
0 1000 m 1
 150 1000 l 1
 150 850 l 1
 0 850 l 1
 0 1000 l 1
EndSplineSet
EndChar

StartChar: u380000
Encoding: 56 3670016 56
Width: 800
VWidth: 0
Flags: HW
LayerCount: 2
Back
Fore
SplineSet
200 1000 m 1
 350 1000 l 1
 350 850 l 1
 200 850 l 1
 200 1000 l 1
400 1000 m 1
 550 1000 l 1
 550 850 l 1
 400 850 l 1
 400 1000 l 1
0 800 m 1
 150 800 l 1
 150 650 l 1
 0 650 l 1
 0 800 l 1
400 800 m 1
 550 800 l 1
 550 650 l 1
 400 650 l 1
 400 800 l 1
0 600 m 1
 150 600 l 1
 150 450 l 1
 0 450 l 1
 0 600 l 1
200 600 m 1
 350 600 l 1
 350 450 l 1
 200 450 l 1
 200 600 l 1
400 600 m 1
 550 600 l 1
 550 450 l 1
 400 450 l 1
 400 600 l 1
0 400 m 1
 150 400 l 1
 150 250 l 1
 0 250 l 1
 0 400 l 1
400 400 m 1
 550 400 l 1
 550 250 l 1
 400 250 l 1
 400 400 l 1
0 200 m 1
 150 200 l 1
 150 50 l 1
 0 50 l 1
 0 200 l 1
200 200 m 1
 350 200 l 1
 350 50 l 1
 200 50 l 1
 200 200 l 1
400 200 m 1
 550 200 l 1
 550 50 l 1
 400 50 l 1
 400 200 l 1
0 1000 m 1
 150 1000 l 1
 150 850 l 1
 0 850 l 1
 0 1000 l 1
EndSplineSet
EndChar

StartChar: u390000
Encoding: 57 3735552 57
Width: 800
VWidth: 0
Flags: HW
LayerCount: 2
Back
Fore
SplineSet
200 1000 m 1
 350 1000 l 1
 350 850 l 1
 200 850 l 1
 200 1000 l 1
400 1000 m 1
 550 1000 l 1
 550 850 l 1
 400 850 l 1
 400 1000 l 1
0 800 m 1
 150 800 l 1
 150 650 l 1
 0 650 l 1
 0 800 l 1
400 800 m 1
 550 800 l 1
 550 650 l 1
 400 650 l 1
 400 800 l 1
0 600 m 1
 150 600 l 1
 150 450 l 1
 0 450 l 1
 0 600 l 1
200 600 m 1
 350 600 l 1
 350 450 l 1
 200 450 l 1
 200 600 l 1
400 600 m 1
 550 600 l 1
 550 450 l 1
 400 450 l 1
 400 600 l 1
400 400 m 1
 550 400 l 1
 550 250 l 1
 400 250 l 1
 400 400 l 1
0 200 m 1
 150 200 l 1
 150 50 l 1
 0 50 l 1
 0 200 l 1
200 200 m 1
 350 200 l 1
 350 50 l 1
 200 50 l 1
 200 200 l 1
0 1000 m 1
 150 1000 l 1
 150 850 l 1
 0 850 l 1
 0 1000 l 1
EndSplineSet
EndChar

StartChar: u3A0000
Encoding: 58 3801088 58
Width: 400
VWidth: 0
Flags: HW
LayerCount: 2
Back
Fore
SplineSet
0 400 m 1
 150 400 l 1
 150 250 l 1
 0 250 l 1
 0 400 l 1
0 800 m 1
 150 800 l 1
 150 650 l 1
 0 650 l 1
 0 800 l 1
EndSplineSet
EndChar

StartChar: u3B0000
Encoding: 59 3866624 59
Width: 600
VWidth: 0
Flags: HW
LayerCount: 2
Back
Fore
SplineSet
200 600 m 1
 350 600 l 1
 350 450 l 1
 200 450 l 1
 200 600 l 1
200 200 m 1
 350 200 l 1
 350 50 l 1
 200 50 l 1
 200 200 l 1
0 0 m 1
 150 0 l 1
 150 -150 l 1
 0 -150 l 1
 0 0 l 1
EndSplineSet
EndChar

StartChar: u3C0000
Encoding: 60 3932160 60
Width: 800
VWidth: 0
Flags: HW
LayerCount: 2
Back
Fore
SplineSet
400 1000 m 1
 550 1000 l 1
 550 850 l 1
 400 850 l 1
 400 1000 l 1
200 800 m 1
 350 800 l 1
 350 650 l 1
 200 650 l 1
 200 800 l 1
0 600 m 1
 150 600 l 1
 150 450 l 1
 0 450 l 1
 0 600 l 1
200 400 m 1
 350 400 l 1
 350 250 l 1
 200 250 l 1
 200 400 l 1
400 200 m 1
 550 200 l 1
 550 50 l 1
 400 50 l 1
 400 200 l 1
EndSplineSet
EndChar

StartChar: u3D0000
Encoding: 61 3997696 61
Width: 800
VWidth: 0
Flags: HW
LayerCount: 2
Back
Fore
SplineSet
200 800 m 1
 350 800 l 1
 350 650 l 1
 200 650 l 1
 200 800 l 1
400 800 m 1
 550 800 l 1
 550 650 l 1
 400 650 l 1
 400 800 l 1
0 400 m 1
 150 400 l 1
 150 250 l 1
 0 250 l 1
 0 400 l 1
200 400 m 1
 350 400 l 1
 350 250 l 1
 200 250 l 1
 200 400 l 1
400 400 m 1
 550 400 l 1
 550 250 l 1
 400 250 l 1
 400 400 l 1
0 800 m 1
 150 800 l 1
 150 650 l 1
 0 650 l 1
 0 800 l 1
EndSplineSet
EndChar

StartChar: u3E0000
Encoding: 62 4063232 62
Width: 800
VWidth: 0
Flags: HW
LayerCount: 2
Back
Fore
SplineSet
200 800 m 1
 350 800 l 1
 350 650 l 1
 200 650 l 1
 200 800 l 1
400 600 m 1
 550 600 l 1
 550 450 l 1
 400 450 l 1
 400 600 l 1
200 400 m 1
 350 400 l 1
 350 250 l 1
 200 250 l 1
 200 400 l 1
0 200 m 1
 150 200 l 1
 150 50 l 1
 0 50 l 1
 0 200 l 1
0 1000 m 1
 150 1000 l 1
 150 850 l 1
 0 850 l 1
 0 1000 l 1
EndSplineSet
EndChar

StartChar: u3F0000
Encoding: 63 4128768 63
Width: 800
VWidth: 0
Flags: HW
LayerCount: 2
Back
Fore
SplineSet
200 1000 m 1
 350 1000 l 1
 350 850 l 1
 200 850 l 1
 200 1000 l 1
400 1000 m 1
 550 1000 l 1
 550 850 l 1
 400 850 l 1
 400 1000 l 1
400 800 m 1
 550 800 l 1
 550 650 l 1
 400 650 l 1
 400 800 l 1
200 600 m 1
 350 600 l 1
 350 450 l 1
 200 450 l 1
 200 600 l 1
400 600 m 1
 550 600 l 1
 550 450 l 1
 400 450 l 1
 400 600 l 1
200 200 m 1
 350 200 l 1
 350 50 l 1
 200 50 l 1
 200 200 l 1
0 1000 m 1
 150 1000 l 1
 150 850 l 1
 0 850 l 1
 0 1000 l 1
EndSplineSet
EndChar

StartChar: u400000
Encoding: 64 4194304 64
Width: 1000
VWidth: 0
Flags: HW
LayerCount: 2
Back
Fore
SplineSet
200 1000 m 1
 350 1000 l 1
 350 850 l 1
 200 850 l 1
 200 1000 l 1
400 1000 m 1
 550 1000 l 1
 550 850 l 1
 400 850 l 1
 400 1000 l 1
0 800 m 1
 150 800 l 1
 150 650 l 1
 0 650 l 1
 0 800 l 1
600 800 m 1
 750 800 l 1
 750 650 l 1
 600 650 l 1
 600 800 l 1
0 600 m 1
 150 600 l 1
 150 450 l 1
 0 450 l 1
 0 600 l 1
400 600 m 1
 550 600 l 1
 550 450 l 1
 400 450 l 1
 400 600 l 1
600 600 m 1
 750 600 l 1
 750 450 l 1
 600 450 l 1
 600 600 l 1
0 400 m 1
 150 400 l 1
 150 250 l 1
 0 250 l 1
 0 400 l 1
200 200 m 1
 350 200 l 1
 350 50 l 1
 200 50 l 1
 200 200 l 1
400 200 m 1
 550 200 l 1
 550 50 l 1
 400 50 l 1
 400 200 l 1
600 200 m 1
 750 200 l 1
 750 50 l 1
 600 50 l 1
 600 200 l 1
EndSplineSet
EndChar

StartChar: u410000
Encoding: 65 4259840 65
Width: 800
VWidth: 0
Flags: HW
LayerCount: 2
Back
Fore
SplineSet
200 1000 m 1
 350 1000 l 1
 350 850 l 1
 200 850 l 1
 200 1000 l 1
0 800 m 1
 150 800 l 1
 150 650 l 1
 0 650 l 1
 0 800 l 1
400 800 m 1
 550 800 l 1
 550 650 l 1
 400 650 l 1
 400 800 l 1
0 600 m 1
 150 600 l 1
 150 450 l 1
 0 450 l 1
 0 600 l 1
200 600 m 1
 350 600 l 1
 350 450 l 1
 200 450 l 1
 200 600 l 1
400 600 m 1
 550 600 l 1
 550 450 l 1
 400 450 l 1
 400 600 l 1
0 400 m 1
 150 400 l 1
 150 250 l 1
 0 250 l 1
 0 400 l 1
400 400 m 1
 550 400 l 1
 550 250 l 1
 400 250 l 1
 400 400 l 1
0 200 m 1
 150 200 l 1
 150 50 l 1
 0 50 l 1
 0 200 l 1
400 200 m 1
 550 200 l 1
 550 50 l 1
 400 50 l 1
 400 200 l 1
EndSplineSet
EndChar

StartChar: u420000
Encoding: 66 4325376 66
Width: 800
VWidth: 0
Flags: HW
LayerCount: 2
Back
Fore
SplineSet
200 1000 m 1
 350 1000 l 1
 350 850 l 1
 200 850 l 1
 200 1000 l 1
0 800 m 1
 150 800 l 1
 150 650 l 1
 0 650 l 1
 0 800 l 1
400 800 m 1
 550 800 l 1
 550 650 l 1
 400 650 l 1
 400 800 l 1
0 600 m 1
 150 600 l 1
 150 450 l 1
 0 450 l 1
 0 600 l 1
200 600 m 1
 350 600 l 1
 350 450 l 1
 200 450 l 1
 200 600 l 1
0 400 m 1
 150 400 l 1
 150 250 l 1
 0 250 l 1
 0 400 l 1
400 400 m 1
 550 400 l 1
 550 250 l 1
 400 250 l 1
 400 400 l 1
0 200 m 1
 150 200 l 1
 150 50 l 1
 0 50 l 1
 0 200 l 1
200 200 m 1
 350 200 l 1
 350 50 l 1
 200 50 l 1
 200 200 l 1
0 1000 m 1
 150 1000 l 1
 150 850 l 1
 0 850 l 1
 0 1000 l 1
EndSplineSet
EndChar

StartChar: u430000
Encoding: 67 4390912 67
Width: 800
VWidth: 0
Flags: HW
LayerCount: 2
Back
Fore
SplineSet
200 1000 m 1
 350 1000 l 1
 350 850 l 1
 200 850 l 1
 200 1000 l 1
400 1000 m 1
 550 1000 l 1
 550 850 l 1
 400 850 l 1
 400 1000 l 1
0 800 m 1
 150 800 l 1
 150 650 l 1
 0 650 l 1
 0 800 l 1
0 600 m 1
 150 600 l 1
 150 450 l 1
 0 450 l 1
 0 600 l 1
0 400 m 1
 150 400 l 1
 150 250 l 1
 0 250 l 1
 0 400 l 1
200 200 m 1
 350 200 l 1
 350 50 l 1
 200 50 l 1
 200 200 l 1
400 200 m 1
 550 200 l 1
 550 50 l 1
 400 50 l 1
 400 200 l 1
EndSplineSet
EndChar

StartChar: u440000
Encoding: 68 4456448 68
Width: 800
VWidth: 0
Flags: HW
LayerCount: 2
Back
Fore
SplineSet
200 1000 m 1
 350 1000 l 1
 350 850 l 1
 200 850 l 1
 200 1000 l 1
0 800 m 1
 150 800 l 1
 150 650 l 1
 0 650 l 1
 0 800 l 1
400 800 m 1
 550 800 l 1
 550 650 l 1
 400 650 l 1
 400 800 l 1
0 600 m 1
 150 600 l 1
 150 450 l 1
 0 450 l 1
 0 600 l 1
400 600 m 1
 550 600 l 1
 550 450 l 1
 400 450 l 1
 400 600 l 1
0 400 m 1
 150 400 l 1
 150 250 l 1
 0 250 l 1
 0 400 l 1
400 400 m 1
 550 400 l 1
 550 250 l 1
 400 250 l 1
 400 400 l 1
0 200 m 1
 150 200 l 1
 150 50 l 1
 0 50 l 1
 0 200 l 1
200 200 m 1
 350 200 l 1
 350 50 l 1
 200 50 l 1
 200 200 l 1
0 1000 m 1
 150 1000 l 1
 150 850 l 1
 0 850 l 1
 0 1000 l 1
EndSplineSet
EndChar

StartChar: u450000
Encoding: 69 4521984 69
Width: 800
VWidth: 0
Flags: HW
LayerCount: 2
Back
Fore
SplineSet
200 1000 m 1
 350 1000 l 1
 350 850 l 1
 200 850 l 1
 200 1000 l 1
400 1000 m 1
 550 1000 l 1
 550 850 l 1
 400 850 l 1
 400 1000 l 1
0 800 m 1
 150 800 l 1
 150 650 l 1
 0 650 l 1
 0 800 l 1
0 600 m 1
 150 600 l 1
 150 450 l 1
 0 450 l 1
 0 600 l 1
200 600 m 1
 350 600 l 1
 350 450 l 1
 200 450 l 1
 200 600 l 1
0 400 m 1
 150 400 l 1
 150 250 l 1
 0 250 l 1
 0 400 l 1
0 200 m 1
 150 200 l 1
 150 50 l 1
 0 50 l 1
 0 200 l 1
200 200 m 1
 350 200 l 1
 350 50 l 1
 200 50 l 1
 200 200 l 1
400 200 m 1
 550 200 l 1
 550 50 l 1
 400 50 l 1
 400 200 l 1
0 1000 m 1
 150 1000 l 1
 150 850 l 1
 0 850 l 1
 0 1000 l 1
EndSplineSet
EndChar

StartChar: u460000
Encoding: 70 4587520 70
Width: 800
VWidth: 0
Flags: HW
LayerCount: 2
Back
Fore
SplineSet
200 1000 m 1
 350 1000 l 1
 350 850 l 1
 200 850 l 1
 200 1000 l 1
400 1000 m 1
 550 1000 l 1
 550 850 l 1
 400 850 l 1
 400 1000 l 1
0 800 m 1
 150 800 l 1
 150 650 l 1
 0 650 l 1
 0 800 l 1
0 600 m 1
 150 600 l 1
 150 450 l 1
 0 450 l 1
 0 600 l 1
200 600 m 1
 350 600 l 1
 350 450 l 1
 200 450 l 1
 200 600 l 1
0 400 m 1
 150 400 l 1
 150 250 l 1
 0 250 l 1
 0 400 l 1
0 200 m 1
 150 200 l 1
 150 50 l 1
 0 50 l 1
 0 200 l 1
0 1000 m 1
 150 1000 l 1
 150 850 l 1
 0 850 l 1
 0 1000 l 1
EndSplineSet
EndChar

StartChar: u470000
Encoding: 71 4653056 71
Width: 800
VWidth: 0
Flags: HW
LayerCount: 2
Back
Fore
SplineSet
200 1000 m 1
 350 1000 l 1
 350 850 l 1
 200 850 l 1
 200 1000 l 1
400 1000 m 1
 550 1000 l 1
 550 850 l 1
 400 850 l 1
 400 1000 l 1
0 800 m 1
 150 800 l 1
 150 650 l 1
 0 650 l 1
 0 800 l 1
0 600 m 1
 150 600 l 1
 150 450 l 1
 0 450 l 1
 0 600 l 1
400 600 m 1
 550 600 l 1
 550 450 l 1
 400 450 l 1
 400 600 l 1
0 400 m 1
 150 400 l 1
 150 250 l 1
 0 250 l 1
 0 400 l 1
400 400 m 1
 550 400 l 1
 550 250 l 1
 400 250 l 1
 400 400 l 1
0 200 m 1
 150 200 l 1
 150 50 l 1
 0 50 l 1
 0 200 l 1
200 200 m 1
 350 200 l 1
 350 50 l 1
 200 50 l 1
 200 200 l 1
400 200 m 1
 550 200 l 1
 550 50 l 1
 400 50 l 1
 400 200 l 1
EndSplineSet
EndChar

StartChar: u480000
Encoding: 72 4718592 72
Width: 800
VWidth: 0
Flags: HW
LayerCount: 2
Back
Fore
SplineSet
400 1000 m 1
 550 1000 l 1
 550 850 l 1
 400 850 l 1
 400 1000 l 1
0 800 m 1
 150 800 l 1
 150 650 l 1
 0 650 l 1
 0 800 l 1
400 800 m 1
 550 800 l 1
 550 650 l 1
 400 650 l 1
 400 800 l 1
0 600 m 1
 150 600 l 1
 150 450 l 1
 0 450 l 1
 0 600 l 1
200 600 m 1
 350 600 l 1
 350 450 l 1
 200 450 l 1
 200 600 l 1
400 600 m 1
 550 600 l 1
 550 450 l 1
 400 450 l 1
 400 600 l 1
0 400 m 1
 150 400 l 1
 150 250 l 1
 0 250 l 1
 0 400 l 1
400 400 m 1
 550 400 l 1
 550 250 l 1
 400 250 l 1
 400 400 l 1
0 200 m 1
 150 200 l 1
 150 50 l 1
 0 50 l 1
 0 200 l 1
400 200 m 1
 550 200 l 1
 550 50 l 1
 400 50 l 1
 400 200 l 1
0 1000 m 1
 150 1000 l 1
 150 850 l 1
 0 850 l 1
 0 1000 l 1
EndSplineSet
EndChar

StartChar: u490000
Encoding: 73 4784128 73
Width: 400
VWidth: 0
Flags: HW
LayerCount: 2
Back
Fore
SplineSet
0 200 m 1
 150 200 l 1
 150 50 l 1
 0 50 l 1
 0 200 l 1
0 200 m 1
0 400 m 1
 150 400 l 1
 150 250 l 1
 0 250 l 1
 0 400 l 1
0 400 m 1
0 600 m 1
 150 600 l 1
 150 450 l 1
 0 450 l 1
 0 600 l 1
0 600 m 1
0 800 m 1
 150 800 l 1
 150 650 l 1
 0 650 l 1
 0 800 l 1
0 800 m 1
0 1000 m 1
 150 1000 l 1
 150 850 l 1
 0 850 l 1
 0 1000 l 1
EndSplineSet
EndChar

StartChar: u4A0000
Encoding: 74 4849664 74
Width: 800
VWidth: 0
Flags: HW
LayerCount: 2
Back
Fore
SplineSet
400 1000 m 1
 550 1000 l 1
 550 850 l 1
 400 850 l 1
 400 1000 l 1
400 800 m 1
 550 800 l 1
 550 650 l 1
 400 650 l 1
 400 800 l 1
400 600 m 1
 550 600 l 1
 550 450 l 1
 400 450 l 1
 400 600 l 1
0 400 m 1
 150 400 l 1
 150 250 l 1
 0 250 l 1
 0 400 l 1
400 400 m 1
 550 400 l 1
 550 250 l 1
 400 250 l 1
 400 400 l 1
0 200 m 1
 150 200 l 1
 150 50 l 1
 0 50 l 1
 0 200 l 1
200 200 m 1
 350 200 l 1
 350 50 l 1
 200 50 l 1
 200 200 l 1
400 200 m 1
 550 200 l 1
 550 50 l 1
 400 50 l 1
 400 200 l 1
EndSplineSet
EndChar

StartChar: u4B0000
Encoding: 75 4915200 75
Width: 1000
VWidth: 0
Flags: HW
LayerCount: 2
Back
Fore
SplineSet
600 1000 m 1
 750 1000 l 1
 750 850 l 1
 600 850 l 1
 600 1000 l 1
0 800 m 1
 150 800 l 1
 150 650 l 1
 0 650 l 1
 0 800 l 1
400 800 m 1
 550 800 l 1
 550 650 l 1
 400 650 l 1
 400 800 l 1
0 600 m 1
 150 600 l 1
 150 450 l 1
 0 450 l 1
 0 600 l 1
200 600 m 1
 350 600 l 1
 350 450 l 1
 200 450 l 1
 200 600 l 1
0 400 m 1
 150 400 l 1
 150 250 l 1
 0 250 l 1
 0 400 l 1
400 400 m 1
 550 400 l 1
 550 250 l 1
 400 250 l 1
 400 400 l 1
0 200 m 1
 150 200 l 1
 150 50 l 1
 0 50 l 1
 0 200 l 1
600 200 m 1
 750 200 l 1
 750 50 l 1
 600 50 l 1
 600 200 l 1
0 1000 m 1
 150 1000 l 1
 150 850 l 1
 0 850 l 1
 0 1000 l 1
EndSplineSet
EndChar

StartChar: u4C0000
Encoding: 76 4980736 76
Width: 800
VWidth: 0
Flags: HW
LayerCount: 2
Back
Fore
SplineSet
0 800 m 1
 150 800 l 1
 150 650 l 1
 0 650 l 1
 0 800 l 1
0 600 m 1
 150 600 l 1
 150 450 l 1
 0 450 l 1
 0 600 l 1
0 400 m 1
 150 400 l 1
 150 250 l 1
 0 250 l 1
 0 400 l 1
0 200 m 1
 150 200 l 1
 150 50 l 1
 0 50 l 1
 0 200 l 1
200 200 m 1
 350 200 l 1
 350 50 l 1
 200 50 l 1
 200 200 l 1
400 200 m 1
 550 200 l 1
 550 50 l 1
 400 50 l 1
 400 200 l 1
0 1000 m 1
 150 1000 l 1
 150 850 l 1
 0 850 l 1
 0 1000 l 1
EndSplineSet
EndChar

StartChar: u4D0000
Encoding: 77 5046272 77
Width: 1200
VWidth: 0
Flags: HW
LayerCount: 2
Back
Fore
SplineSet
800 1000 m 1
 950 1000 l 1
 950 850 l 1
 800 850 l 1
 800 1000 l 1
0 800 m 1
 150 800 l 1
 150 650 l 1
 0 650 l 1
 0 800 l 1
200 800 m 1
 350 800 l 1
 350 650 l 1
 200 650 l 1
 200 800 l 1
600 800 m 1
 750 800 l 1
 750 650 l 1
 600 650 l 1
 600 800 l 1
800 800 m 1
 950 800 l 1
 950 650 l 1
 800 650 l 1
 800 800 l 1
0 600 m 1
 150 600 l 1
 150 450 l 1
 0 450 l 1
 0 600 l 1
400 600 m 1
 550 600 l 1
 550 450 l 1
 400 450 l 1
 400 600 l 1
800 600 m 1
 950 600 l 1
 950 450 l 1
 800 450 l 1
 800 600 l 1
0 400 m 1
 150 400 l 1
 150 250 l 1
 0 250 l 1
 0 400 l 1
800 400 m 1
 950 400 l 1
 950 250 l 1
 800 250 l 1
 800 400 l 1
0 200 m 1
 150 200 l 1
 150 50 l 1
 0 50 l 1
 0 200 l 1
800 200 m 1
 950 200 l 1
 950 50 l 1
 800 50 l 1
 800 200 l 1
0 1000 m 1
 150 1000 l 1
 150 850 l 1
 0 850 l 1
 0 1000 l 1
EndSplineSet
EndChar

StartChar: u4E0000
Encoding: 78 5111808 78
Width: 1000
VWidth: 0
Flags: HW
LayerCount: 2
Back
Fore
SplineSet
600 1000 m 1
 750 1000 l 1
 750 850 l 1
 600 850 l 1
 600 1000 l 1
0 800 m 1
 150 800 l 1
 150 650 l 1
 0 650 l 1
 0 800 l 1
200 800 m 1
 350 800 l 1
 350 650 l 1
 200 650 l 1
 200 800 l 1
600 800 m 1
 750 800 l 1
 750 650 l 1
 600 650 l 1
 600 800 l 1
0 600 m 1
 150 600 l 1
 150 450 l 1
 0 450 l 1
 0 600 l 1
400 600 m 1
 550 600 l 1
 550 450 l 1
 400 450 l 1
 400 600 l 1
600 600 m 1
 750 600 l 1
 750 450 l 1
 600 450 l 1
 600 600 l 1
0 400 m 1
 150 400 l 1
 150 250 l 1
 0 250 l 1
 0 400 l 1
600 400 m 1
 750 400 l 1
 750 250 l 1
 600 250 l 1
 600 400 l 1
0 200 m 1
 150 200 l 1
 150 50 l 1
 0 50 l 1
 0 200 l 1
600 200 m 1
 750 200 l 1
 750 50 l 1
 600 50 l 1
 600 200 l 1
0 1000 m 1
 150 1000 l 1
 150 850 l 1
 0 850 l 1
 0 1000 l 1
EndSplineSet
EndChar

StartChar: u4F0000
Encoding: 79 5177344 79
Width: 800
VWidth: 0
Flags: HW
LayerCount: 2
Back
Fore
SplineSet
200 1000 m 1
 350 1000 l 1
 350 850 l 1
 200 850 l 1
 200 1000 l 1
400 1000 m 1
 550 1000 l 1
 550 850 l 1
 400 850 l 1
 400 1000 l 1
0 800 m 1
 150 800 l 1
 150 650 l 1
 0 650 l 1
 0 800 l 1
400 800 m 1
 550 800 l 1
 550 650 l 1
 400 650 l 1
 400 800 l 1
0 600 m 1
 150 600 l 1
 150 450 l 1
 0 450 l 1
 0 600 l 1
400 600 m 1
 550 600 l 1
 550 450 l 1
 400 450 l 1
 400 600 l 1
0 400 m 1
 150 400 l 1
 150 250 l 1
 0 250 l 1
 0 400 l 1
400 400 m 1
 550 400 l 1
 550 250 l 1
 400 250 l 1
 400 400 l 1
0 200 m 1
 150 200 l 1
 150 50 l 1
 0 50 l 1
 0 200 l 1
200 200 m 1
 350 200 l 1
 350 50 l 1
 200 50 l 1
 200 200 l 1
400 200 m 1
 550 200 l 1
 550 50 l 1
 400 50 l 1
 400 200 l 1
0 1000 m 1
 150 1000 l 1
 150 850 l 1
 0 850 l 1
 0 1000 l 1
EndSplineSet
EndChar

StartChar: u500000
Encoding: 80 5242880 80
Width: 800
VWidth: 0
Flags: HW
LayerCount: 2
Back
Fore
SplineSet
200 1000 m 1
 350 1000 l 1
 350 850 l 1
 200 850 l 1
 200 1000 l 1
400 1000 m 1
 550 1000 l 1
 550 850 l 1
 400 850 l 1
 400 1000 l 1
0 800 m 1
 150 800 l 1
 150 650 l 1
 0 650 l 1
 0 800 l 1
400 800 m 1
 550 800 l 1
 550 650 l 1
 400 650 l 1
 400 800 l 1
0 600 m 1
 150 600 l 1
 150 450 l 1
 0 450 l 1
 0 600 l 1
200 600 m 1
 350 600 l 1
 350 450 l 1
 200 450 l 1
 200 600 l 1
400 600 m 1
 550 600 l 1
 550 450 l 1
 400 450 l 1
 400 600 l 1
0 400 m 1
 150 400 l 1
 150 250 l 1
 0 250 l 1
 0 400 l 1
0 200 m 1
 150 200 l 1
 150 50 l 1
 0 50 l 1
 0 200 l 1
0 1000 m 1
 150 1000 l 1
 150 850 l 1
 0 850 l 1
 0 1000 l 1
EndSplineSet
EndChar

StartChar: u510000
Encoding: 81 5308416 81
Width: 1000
VWidth: 0
Flags: HW
LayerCount: 2
Back
Fore
SplineSet
200 1000 m 1
 350 1000 l 1
 350 850 l 1
 200 850 l 1
 200 1000 l 1
400 1000 m 1
 550 1000 l 1
 550 850 l 1
 400 850 l 1
 400 1000 l 1
0 800 m 1
 150 800 l 1
 150 650 l 1
 0 650 l 1
 0 800 l 1
600 800 m 1
 750 800 l 1
 750 650 l 1
 600 650 l 1
 600 800 l 1
0 600 m 1
 150 600 l 1
 150 450 l 1
 0 450 l 1
 0 600 l 1
600 600 m 1
 750 600 l 1
 750 450 l 1
 600 450 l 1
 600 600 l 1
0 400 m 1
 150 400 l 1
 150 250 l 1
 0 250 l 1
 0 400 l 1
400 400 m 1
 550 400 l 1
 550 250 l 1
 400 250 l 1
 400 400 l 1
200 200 m 1
 350 200 l 1
 350 50 l 1
 200 50 l 1
 200 200 l 1
600 200 m 1
 750 200 l 1
 750 50 l 1
 600 50 l 1
 600 200 l 1
EndSplineSet
EndChar

StartChar: u520000
Encoding: 82 5373952 82
Width: 800
VWidth: 0
Flags: HW
LayerCount: 2
Back
Fore
SplineSet
200 1000 m 1
 350 1000 l 1
 350 850 l 1
 200 850 l 1
 200 1000 l 1
0 800 m 1
 150 800 l 1
 150 650 l 1
 0 650 l 1
 0 800 l 1
400 800 m 1
 550 800 l 1
 550 650 l 1
 400 650 l 1
 400 800 l 1
0 600 m 1
 150 600 l 1
 150 450 l 1
 0 450 l 1
 0 600 l 1
200 600 m 1
 350 600 l 1
 350 450 l 1
 200 450 l 1
 200 600 l 1
0 400 m 1
 150 400 l 1
 150 250 l 1
 0 250 l 1
 0 400 l 1
400 400 m 1
 550 400 l 1
 550 250 l 1
 400 250 l 1
 400 400 l 1
0 200 m 1
 150 200 l 1
 150 50 l 1
 0 50 l 1
 0 200 l 1
400 200 m 1
 550 200 l 1
 550 50 l 1
 400 50 l 1
 400 200 l 1
0 1000 m 1
 150 1000 l 1
 150 850 l 1
 0 850 l 1
 0 1000 l 1
EndSplineSet
EndChar

StartChar: u530000
Encoding: 83 5439488 83
Width: 800
VWidth: 0
Flags: HW
LayerCount: 2
Back
Fore
SplineSet
200 1000 m 1
 350 1000 l 1
 350 850 l 1
 200 850 l 1
 200 1000 l 1
400 1000 m 1
 550 1000 l 1
 550 850 l 1
 400 850 l 1
 400 1000 l 1
0 800 m 1
 150 800 l 1
 150 650 l 1
 0 650 l 1
 0 800 l 1
200 600 m 1
 350 600 l 1
 350 450 l 1
 200 450 l 1
 200 600 l 1
400 400 m 1
 550 400 l 1
 550 250 l 1
 400 250 l 1
 400 400 l 1
0 200 m 1
 150 200 l 1
 150 50 l 1
 0 50 l 1
 0 200 l 1
200 200 m 1
 350 200 l 1
 350 50 l 1
 200 50 l 1
 200 200 l 1
EndSplineSet
EndChar

StartChar: u540000
Encoding: 84 5505024 84
Width: 800
VWidth: 0
Flags: HW
LayerCount: 2
Back
Fore
SplineSet
200 1000 m 1
 350 1000 l 1
 350 850 l 1
 200 850 l 1
 200 1000 l 1
400 1000 m 1
 550 1000 l 1
 550 850 l 1
 400 850 l 1
 400 1000 l 1
200 800 m 1
 350 800 l 1
 350 650 l 1
 200 650 l 1
 200 800 l 1
200 600 m 1
 350 600 l 1
 350 450 l 1
 200 450 l 1
 200 600 l 1
200 400 m 1
 350 400 l 1
 350 250 l 1
 200 250 l 1
 200 400 l 1
200 200 m 1
 350 200 l 1
 350 50 l 1
 200 50 l 1
 200 200 l 1
0 1000 m 1
 150 1000 l 1
 150 850 l 1
 0 850 l 1
 0 1000 l 1
EndSplineSet
EndChar

StartChar: u550000
Encoding: 85 5570560 85
Width: 800
VWidth: 0
Flags: HW
LayerCount: 2
Back
Fore
SplineSet
400 1000 m 1
 550 1000 l 1
 550 850 l 1
 400 850 l 1
 400 1000 l 1
0 800 m 1
 150 800 l 1
 150 650 l 1
 0 650 l 1
 0 800 l 1
400 800 m 1
 550 800 l 1
 550 650 l 1
 400 650 l 1
 400 800 l 1
0 600 m 1
 150 600 l 1
 150 450 l 1
 0 450 l 1
 0 600 l 1
400 600 m 1
 550 600 l 1
 550 450 l 1
 400 450 l 1
 400 600 l 1
0 400 m 1
 150 400 l 1
 150 250 l 1
 0 250 l 1
 0 400 l 1
400 400 m 1
 550 400 l 1
 550 250 l 1
 400 250 l 1
 400 400 l 1
0 200 m 1
 150 200 l 1
 150 50 l 1
 0 50 l 1
 0 200 l 1
200 200 m 1
 350 200 l 1
 350 50 l 1
 200 50 l 1
 200 200 l 1
400 200 m 1
 550 200 l 1
 550 50 l 1
 400 50 l 1
 400 200 l 1
0 1000 m 1
 150 1000 l 1
 150 850 l 1
 0 850 l 1
 0 1000 l 1
EndSplineSet
EndChar

StartChar: u560000
Encoding: 86 5636096 86
Width: 800
VWidth: 0
Flags: HW
LayerCount: 2
Back
Fore
SplineSet
400 1000 m 1
 550 1000 l 1
 550 850 l 1
 400 850 l 1
 400 1000 l 1
0 800 m 1
 150 800 l 1
 150 650 l 1
 0 650 l 1
 0 800 l 1
400 800 m 1
 550 800 l 1
 550 650 l 1
 400 650 l 1
 400 800 l 1
0 600 m 1
 150 600 l 1
 150 450 l 1
 0 450 l 1
 0 600 l 1
400 600 m 1
 550 600 l 1
 550 450 l 1
 400 450 l 1
 400 600 l 1
200 400 m 1
 350 400 l 1
 350 250 l 1
 200 250 l 1
 200 400 l 1
200 200 m 1
 350 200 l 1
 350 50 l 1
 200 50 l 1
 200 200 l 1
0 1000 m 1
 150 1000 l 1
 150 850 l 1
 0 850 l 1
 0 1000 l 1
EndSplineSet
EndChar

StartChar: u570000
Encoding: 87 5701632 87
Width: 1200
VWidth: 0
Flags: HW
LayerCount: 2
Back
Fore
SplineSet
800 1000 m 1
 950 1000 l 1
 950 850 l 1
 800 850 l 1
 800 1000 l 1
0 800 m 1
 150 800 l 1
 150 650 l 1
 0 650 l 1
 0 800 l 1
800 800 m 1
 950 800 l 1
 950 650 l 1
 800 650 l 1
 800 800 l 1
0 600 m 1
 150 600 l 1
 150 450 l 1
 0 450 l 1
 0 600 l 1
400 600 m 1
 550 600 l 1
 550 450 l 1
 400 450 l 1
 400 600 l 1
800 600 m 1
 950 600 l 1
 950 450 l 1
 800 450 l 1
 800 600 l 1
0 400 m 1
 150 400 l 1
 150 250 l 1
 0 250 l 1
 0 400 l 1
200 400 m 1
 350 400 l 1
 350 250 l 1
 200 250 l 1
 200 400 l 1
600 400 m 1
 750 400 l 1
 750 250 l 1
 600 250 l 1
 600 400 l 1
800 400 m 1
 950 400 l 1
 950 250 l 1
 800 250 l 1
 800 400 l 1
0 200 m 1
 150 200 l 1
 150 50 l 1
 0 50 l 1
 0 200 l 1
800 200 m 1
 950 200 l 1
 950 50 l 1
 800 50 l 1
 800 200 l 1
0 1000 m 1
 150 1000 l 1
 150 850 l 1
 0 850 l 1
 0 1000 l 1
EndSplineSet
EndChar

StartChar: u580000
Encoding: 88 5767168 88
Width: 800
VWidth: 0
Flags: HW
LayerCount: 2
Back
Fore
SplineSet
400 1000 m 1
 550 1000 l 1
 550 850 l 1
 400 850 l 1
 400 1000 l 1
0 800 m 1
 150 800 l 1
 150 650 l 1
 0 650 l 1
 0 800 l 1
400 800 m 1
 550 800 l 1
 550 650 l 1
 400 650 l 1
 400 800 l 1
200 600 m 1
 350 600 l 1
 350 450 l 1
 200 450 l 1
 200 600 l 1
0 400 m 1
 150 400 l 1
 150 250 l 1
 0 250 l 1
 0 400 l 1
400 400 m 1
 550 400 l 1
 550 250 l 1
 400 250 l 1
 400 400 l 1
0 200 m 1
 150 200 l 1
 150 50 l 1
 0 50 l 1
 0 200 l 1
400 200 m 1
 550 200 l 1
 550 50 l 1
 400 50 l 1
 400 200 l 1
0 1000 m 1
 150 1000 l 1
 150 850 l 1
 0 850 l 1
 0 1000 l 1
EndSplineSet
EndChar

StartChar: u590000
Encoding: 89 5832704 89
Width: 800
VWidth: 0
Flags: HW
LayerCount: 2
Back
Fore
SplineSet
400 1000 m 1
 550 1000 l 1
 550 850 l 1
 400 850 l 1
 400 1000 l 1
0 800 m 1
 150 800 l 1
 150 650 l 1
 0 650 l 1
 0 800 l 1
400 800 m 1
 550 800 l 1
 550 650 l 1
 400 650 l 1
 400 800 l 1
200 600 m 1
 350 600 l 1
 350 450 l 1
 200 450 l 1
 200 600 l 1
200 400 m 1
 350 400 l 1
 350 250 l 1
 200 250 l 1
 200 400 l 1
200 200 m 1
 350 200 l 1
 350 50 l 1
 200 50 l 1
 200 200 l 1
0 1000 m 1
 150 1000 l 1
 150 850 l 1
 0 850 l 1
 0 1000 l 1
EndSplineSet
EndChar

StartChar: u5A0000
Encoding: 90 5898240 90
Width: 800
VWidth: 0
Flags: HW
LayerCount: 2
Back
Fore
SplineSet
200 1000 m 1
 350 1000 l 1
 350 850 l 1
 200 850 l 1
 200 1000 l 1
400 1000 m 1
 550 1000 l 1
 550 850 l 1
 400 850 l 1
 400 1000 l 1
400 800 m 1
 550 800 l 1
 550 650 l 1
 400 650 l 1
 400 800 l 1
200 600 m 1
 350 600 l 1
 350 450 l 1
 200 450 l 1
 200 600 l 1
0 400 m 1
 150 400 l 1
 150 250 l 1
 0 250 l 1
 0 400 l 1
0 200 m 1
 150 200 l 1
 150 50 l 1
 0 50 l 1
 0 200 l 1
200 200 m 1
 350 200 l 1
 350 50 l 1
 200 50 l 1
 200 200 l 1
400 200 m 1
 550 200 l 1
 550 50 l 1
 400 50 l 1
 400 200 l 1
0 1000 m 1
 150 1000 l 1
 150 850 l 1
 0 850 l 1
 0 1000 l 1
EndSplineSet
EndChar

StartChar: u5B0000
Encoding: 91 5963776 91
Width: 600
VWidth: 0
Flags: HW
LayerCount: 2
Back
Fore
SplineSet
200 1000 m 1
 350 1000 l 1
 350 850 l 1
 200 850 l 1
 200 1000 l 1
0 800 m 1
 150 800 l 1
 150 650 l 1
 0 650 l 1
 0 800 l 1
0 600 m 1
 150 600 l 1
 150 450 l 1
 0 450 l 1
 0 600 l 1
0 400 m 1
 150 400 l 1
 150 250 l 1
 0 250 l 1
 0 400 l 1
0 200 m 1
 150 200 l 1
 150 50 l 1
 0 50 l 1
 0 200 l 1
200 200 m 1
 350 200 l 1
 350 50 l 1
 200 50 l 1
 200 200 l 1
0 1000 m 1
 150 1000 l 1
 150 850 l 1
 0 850 l 1
 0 1000 l 1
EndSplineSet
EndChar

StartChar: u5C0000
Encoding: 92 6029312 92
Width: 800
VWidth: 0
Flags: HW
LayerCount: 2
Back
Fore
SplineSet
0 800 m 1
 150 800 l 1
 150 650 l 1
 0 650 l 1
 0 800 l 1
200 600 m 1
 350 600 l 1
 350 450 l 1
 200 450 l 1
 200 600 l 1
200 400 m 1
 350 400 l 1
 350 250 l 1
 200 250 l 1
 200 400 l 1
400 200 m 1
 550 200 l 1
 550 50 l 1
 400 50 l 1
 400 200 l 1
400 0 m 1
 550 0 l 1
 550 -150 l 1
 400 -150 l 1
 400 0 l 1
0 1000 m 1
 150 1000 l 1
 150 850 l 1
 0 850 l 1
 0 1000 l 1
EndSplineSet
EndChar

StartChar: u5D0000
Encoding: 93 6094848 93
Width: 600
VWidth: 0
Flags: HW
LayerCount: 2
Back
Fore
SplineSet
200 1000 m 1
 350 1000 l 1
 350 850 l 1
 200 850 l 1
 200 1000 l 1
200 800 m 1
 350 800 l 1
 350 650 l 1
 200 650 l 1
 200 800 l 1
200 600 m 1
 350 600 l 1
 350 450 l 1
 200 450 l 1
 200 600 l 1
200 400 m 1
 350 400 l 1
 350 250 l 1
 200 250 l 1
 200 400 l 1
0 200 m 1
 150 200 l 1
 150 50 l 1
 0 50 l 1
 0 200 l 1
200 200 m 1
 350 200 l 1
 350 50 l 1
 200 50 l 1
 200 200 l 1
0 1000 m 1
 150 1000 l 1
 150 850 l 1
 0 850 l 1
 0 1000 l 1
EndSplineSet
EndChar

StartChar: u5E0000
Encoding: 94 6160384 94
Width: 800
VWidth: 0
Flags: HW
LayerCount: 2
Back
Fore
SplineSet
200 1000 m 1
 350 1000 l 1
 350 850 l 1
 200 850 l 1
 200 1000 l 1
0 800 m 1
 150 800 l 1
 150 650 l 1
 0 650 l 1
 0 800 l 1
400 800 m 1
 550 800 l 1
 550 650 l 1
 400 650 l 1
 400 800 l 1
EndSplineSet
EndChar

StartChar: u5F0000
Encoding: 95 6225920 95
Width: 800
VWidth: 0
Flags: HW
LayerCount: 2
Back
Fore
SplineSet
400 0 m 1
 550 0 l 1
 550 -150 l 1
 400 -150 l 1
 400 0 l 1
200 0 m 1
 350 0 l 1
 350 -150 l 1
 200 -150 l 1
 200 0 l 1
0 0 m 1
 150 0 l 1
 150 -150 l 1
 0 -150 l 1
 0 0 l 1
EndSplineSet
EndChar

StartChar: u600000
Encoding: 96 6291456 96
Width: 800
VWidth: 0
Flags: HW
LayerCount: 2
Back
Fore
SplineSet
200 600 m 1
 350 600 l 1
 350 450 l 1
 200 450 l 1
 200 600 l 1
400 600 m 1
 550 600 l 1
 550 450 l 1
 400 450 l 1
 400 600 l 1
400 400 m 1
 550 400 l 1
 550 250 l 1
 400 250 l 1
 400 400 l 1
0 600 m 1
 150 600 l 1
 150 450 l 1
 0 450 l 1
 0 600 l 1
EndSplineSet
EndChar

StartChar: u610000
Encoding: 97 6356992 97
Width: 800
VWidth: 0
Flags: HW
LayerCount: 2
Back
Fore
SplineSet
200 800 m 1
 350 800 l 1
 350 650 l 1
 200 650 l 1
 200 800 l 1
400 800 m 1
 550 800 l 1
 550 650 l 1
 400 650 l 1
 400 800 l 1
0 600 m 1
 150 600 l 1
 150 450 l 1
 0 450 l 1
 0 600 l 1
400 600 m 1
 550 600 l 1
 550 450 l 1
 400 450 l 1
 400 600 l 1
0 400 m 1
 150 400 l 1
 150 250 l 1
 0 250 l 1
 0 400 l 1
400 400 m 1
 550 400 l 1
 550 250 l 1
 400 250 l 1
 400 400 l 1
200 200 m 1
 350 200 l 1
 350 50 l 1
 200 50 l 1
 200 200 l 1
400 200 m 1
 550 200 l 1
 550 50 l 1
 400 50 l 1
 400 200 l 1
EndSplineSet
EndChar

StartChar: u620000
Encoding: 98 6422528 98
Width: 800
VWidth: 0
Flags: HW
LayerCount: 2
Back
Fore
SplineSet
0 800 m 1
 150 800 l 1
 150 650 l 1
 0 650 l 1
 0 800 l 1
200 800 m 1
 350 800 l 1
 350 650 l 1
 200 650 l 1
 200 800 l 1
0 600 m 1
 150 600 l 1
 150 450 l 1
 0 450 l 1
 0 600 l 1
400 600 m 1
 550 600 l 1
 550 450 l 1
 400 450 l 1
 400 600 l 1
0 400 m 1
 150 400 l 1
 150 250 l 1
 0 250 l 1
 0 400 l 1
400 400 m 1
 550 400 l 1
 550 250 l 1
 400 250 l 1
 400 400 l 1
0 200 m 1
 150 200 l 1
 150 50 l 1
 0 50 l 1
 0 200 l 1
200 200 m 1
 350 200 l 1
 350 50 l 1
 200 50 l 1
 200 200 l 1
0 1000 m 1
 150 1000 l 1
 150 850 l 1
 0 850 l 1
 0 1000 l 1
EndSplineSet
EndChar

StartChar: u630000
Encoding: 99 6488064 99
Width: 800
VWidth: 0
Flags: HW
LayerCount: 2
Back
Fore
SplineSet
200 800 m 1
 350 800 l 1
 350 650 l 1
 200 650 l 1
 200 800 l 1
400 800 m 1
 550 800 l 1
 550 650 l 1
 400 650 l 1
 400 800 l 1
0 600 m 1
 150 600 l 1
 150 450 l 1
 0 450 l 1
 0 600 l 1
0 400 m 1
 150 400 l 1
 150 250 l 1
 0 250 l 1
 0 400 l 1
200 200 m 1
 350 200 l 1
 350 50 l 1
 200 50 l 1
 200 200 l 1
400 200 m 1
 550 200 l 1
 550 50 l 1
 400 50 l 1
 400 200 l 1
EndSplineSet
EndChar

StartChar: u640000
Encoding: 100 6553600 100
Width: 800
VWidth: 0
Flags: HW
LayerCount: 2
Back
Fore
SplineSet
400 1000 m 1
 550 1000 l 1
 550 850 l 1
 400 850 l 1
 400 1000 l 1
200 800 m 1
 350 800 l 1
 350 650 l 1
 200 650 l 1
 200 800 l 1
400 800 m 1
 550 800 l 1
 550 650 l 1
 400 650 l 1
 400 800 l 1
0 600 m 1
 150 600 l 1
 150 450 l 1
 0 450 l 1
 0 600 l 1
400 600 m 1
 550 600 l 1
 550 450 l 1
 400 450 l 1
 400 600 l 1
0 400 m 1
 150 400 l 1
 150 250 l 1
 0 250 l 1
 0 400 l 1
400 400 m 1
 550 400 l 1
 550 250 l 1
 400 250 l 1
 400 400 l 1
200 200 m 1
 350 200 l 1
 350 50 l 1
 200 50 l 1
 200 200 l 1
400 200 m 1
 550 200 l 1
 550 50 l 1
 400 50 l 1
 400 200 l 1
EndSplineSet
EndChar

StartChar: u650000
Encoding: 101 6619136 101
Width: 800
VWidth: 0
Flags: HW
LayerCount: 2
Back
Fore
SplineSet
200 800 m 1
 350 800 l 1
 350 650 l 1
 200 650 l 1
 200 800 l 1
400 800 m 1
 550 800 l 1
 550 650 l 1
 400 650 l 1
 400 800 l 1
0 600 m 1
 150 600 l 1
 150 450 l 1
 0 450 l 1
 0 600 l 1
400 600 m 1
 550 600 l 1
 550 450 l 1
 400 450 l 1
 400 600 l 1
0 400 m 1
 150 400 l 1
 150 250 l 1
 0 250 l 1
 0 400 l 1
200 400 m 1
 350 400 l 1
 350 250 l 1
 200 250 l 1
 200 400 l 1
200 200 m 1
 350 200 l 1
 350 50 l 1
 200 50 l 1
 200 200 l 1
400 200 m 1
 550 200 l 1
 550 50 l 1
 400 50 l 1
 400 200 l 1
EndSplineSet
EndChar

StartChar: u660000
Encoding: 102 6684672 102
Width: 800
VWidth: 0
Flags: HW
LayerCount: 2
Back
Fore
SplineSet
200 1000 m 1
 350 1000 l 1
 350 850 l 1
 200 850 l 1
 200 1000 l 1
400 1000 m 1
 550 1000 l 1
 550 850 l 1
 400 850 l 1
 400 1000 l 1
200 800 m 1
 350 800 l 1
 350 650 l 1
 200 650 l 1
 200 800 l 1
0 600 m 1
 150 600 l 1
 150 450 l 1
 0 450 l 1
 0 600 l 1
200 600 m 1
 350 600 l 1
 350 450 l 1
 200 450 l 1
 200 600 l 1
400 600 m 1
 550 600 l 1
 550 450 l 1
 400 450 l 1
 400 600 l 1
200 400 m 1
 350 400 l 1
 350 250 l 1
 200 250 l 1
 200 400 l 1
200 200 m 1
 350 200 l 1
 350 50 l 1
 200 50 l 1
 200 200 l 1
EndSplineSet
EndChar

StartChar: u670000
Encoding: 103 6750208 103
Width: 800
VWidth: 0
Flags: HW
LayerCount: 2
Back
Fore
SplineSet
200 800 m 1
 350 800 l 1
 350 650 l 1
 200 650 l 1
 200 800 l 1
400 800 m 1
 550 800 l 1
 550 650 l 1
 400 650 l 1
 400 800 l 1
0 600 m 1
 150 600 l 1
 150 450 l 1
 0 450 l 1
 0 600 l 1
400 600 m 1
 550 600 l 1
 550 450 l 1
 400 450 l 1
 400 600 l 1
0 400 m 1
 150 400 l 1
 150 250 l 1
 0 250 l 1
 0 400 l 1
200 400 m 1
 350 400 l 1
 350 250 l 1
 200 250 l 1
 200 400 l 1
400 400 m 1
 550 400 l 1
 550 250 l 1
 400 250 l 1
 400 400 l 1
400 200 m 1
 550 200 l 1
 550 50 l 1
 400 50 l 1
 400 200 l 1
0 0 m 1
 150 0 l 1
 150 -150 l 1
 0 -150 l 1
 0 0 l 1
200 0 m 1
 350 0 l 1
 350 -150 l 1
 200 -150 l 1
 200 0 l 1
EndSplineSet
EndChar

StartChar: u680000
Encoding: 104 6815744 104
Width: 800
VWidth: 0
Flags: HW
LayerCount: 2
Back
Fore
SplineSet
0 800 m 1
 150 800 l 1
 150 650 l 1
 0 650 l 1
 0 800 l 1
200 800 m 1
 350 800 l 1
 350 650 l 1
 200 650 l 1
 200 800 l 1
0 600 m 1
 150 600 l 1
 150 450 l 1
 0 450 l 1
 0 600 l 1
400 600 m 1
 550 600 l 1
 550 450 l 1
 400 450 l 1
 400 600 l 1
0 400 m 1
 150 400 l 1
 150 250 l 1
 0 250 l 1
 0 400 l 1
400 400 m 1
 550 400 l 1
 550 250 l 1
 400 250 l 1
 400 400 l 1
0 200 m 1
 150 200 l 1
 150 50 l 1
 0 50 l 1
 0 200 l 1
400 200 m 1
 550 200 l 1
 550 50 l 1
 400 50 l 1
 400 200 l 1
0 1000 m 1
 150 1000 l 1
 150 850 l 1
 0 850 l 1
 0 1000 l 1
EndSplineSet
EndChar

StartChar: u690000
Encoding: 105 6881280 105
Width: 600
VWidth: 0
Flags: HW
LayerCount: 2
Back
Fore
SplineSet
0 600 m 1
 150 600 l 1
 150 450 l 1
 0 450 l 1
 0 600 l 1
0 400 m 1
 150 400 l 1
 150 250 l 1
 0 250 l 1
 0 400 l 1
0 200 m 1
 150 200 l 1
 150 50 l 1
 0 50 l 1
 0 200 l 1
200 200 m 1
 350 200 l 1
 350 50 l 1
 200 50 l 1
 200 200 l 1
0 1000 m 1
 150 1000 l 1
 150 850 l 1
 0 850 l 1
 0 1000 l 1
EndSplineSet
EndChar

StartChar: u6A0000
Encoding: 106 6946816 106
Width: 600
VWidth: 0
Flags: HW
LayerCount: 2
Back
Fore
SplineSet
200 1000 m 1
 350 1000 l 1
 350 850 l 1
 200 850 l 1
 200 1000 l 1
200 600 m 1
 350 600 l 1
 350 450 l 1
 200 450 l 1
 200 600 l 1
200 400 m 1
 350 400 l 1
 350 250 l 1
 200 250 l 1
 200 400 l 1
200 200 m 1
 350 200 l 1
 350 50 l 1
 200 50 l 1
 200 200 l 1
0 0 m 1
 150 0 l 1
 150 -150 l 1
 0 -150 l 1
 0 0 l 1
200 0 m 1
 350 0 l 1
 350 -150 l 1
 200 -150 l 1
 200 0 l 1
EndSplineSet
EndChar

StartChar: u6B0000
Encoding: 107 7012352 107
Width: 800
VWidth: 0
Flags: HW
LayerCount: 2
Back
Fore
SplineSet
0 800 m 1
 150 800 l 1
 150 650 l 1
 0 650 l 1
 0 800 l 1
400 800 m 1
 550 800 l 1
 550 650 l 1
 400 650 l 1
 400 800 l 1
0 600 m 1
 150 600 l 1
 150 450 l 1
 0 450 l 1
 0 600 l 1
200 600 m 1
 350 600 l 1
 350 450 l 1
 200 450 l 1
 200 600 l 1
0 400 m 1
 150 400 l 1
 150 250 l 1
 0 250 l 1
 0 400 l 1
400 400 m 1
 550 400 l 1
 550 250 l 1
 400 250 l 1
 400 400 l 1
0 200 m 1
 150 200 l 1
 150 50 l 1
 0 50 l 1
 0 200 l 1
400 200 m 1
 550 200 l 1
 550 50 l 1
 400 50 l 1
 400 200 l 1
0 1000 m 1
 150 1000 l 1
 150 850 l 1
 0 850 l 1
 0 1000 l 1
EndSplineSet
EndChar

StartChar: u6C0000
Encoding: 108 7077888 108
Width: 600
VWidth: 0
Flags: HW
LayerCount: 2
Back
Fore
SplineSet
0 800 m 1
 150 800 l 1
 150 650 l 1
 0 650 l 1
 0 800 l 1
0 600 m 1
 150 600 l 1
 150 450 l 1
 0 450 l 1
 0 600 l 1
0 400 m 1
 150 400 l 1
 150 250 l 1
 0 250 l 1
 0 400 l 1
0 200 m 1
 150 200 l 1
 150 50 l 1
 0 50 l 1
 0 200 l 1
200 200 m 1
 350 200 l 1
 350 50 l 1
 200 50 l 1
 200 200 l 1
0 1000 m 1
 150 1000 l 1
 150 850 l 1
 0 850 l 1
 0 1000 l 1
EndSplineSet
EndChar

StartChar: u6D0000
Encoding: 109 7143424 109
Width: 1200
VWidth: 0
Flags: HW
LayerCount: 2
Back
Fore
SplineSet
200 800 m 1
 350 800 l 1
 350 650 l 1
 200 650 l 1
 200 800 l 1
400 800 m 1
 550 800 l 1
 550 650 l 1
 400 650 l 1
 400 800 l 1
600 800 m 1
 750 800 l 1
 750 650 l 1
 600 650 l 1
 600 800 l 1
0 600 m 1
 150 600 l 1
 150 450 l 1
 0 450 l 1
 0 600 l 1
400 600 m 1
 550 600 l 1
 550 450 l 1
 400 450 l 1
 400 600 l 1
800 600 m 1
 950 600 l 1
 950 450 l 1
 800 450 l 1
 800 600 l 1
0 400 m 1
 150 400 l 1
 150 250 l 1
 0 250 l 1
 0 400 l 1
400 400 m 1
 550 400 l 1
 550 250 l 1
 400 250 l 1
 400 400 l 1
800 400 m 1
 950 400 l 1
 950 250 l 1
 800 250 l 1
 800 400 l 1
0 200 m 1
 150 200 l 1
 150 50 l 1
 0 50 l 1
 0 200 l 1
400 200 m 1
 550 200 l 1
 550 50 l 1
 400 50 l 1
 400 200 l 1
800 200 m 1
 950 200 l 1
 950 50 l 1
 800 50 l 1
 800 200 l 1
0 800 m 1
 150 800 l 1
 150 650 l 1
 0 650 l 1
 0 800 l 1
EndSplineSet
EndChar

StartChar: u6E0000
Encoding: 110 7208960 110
Width: 800
VWidth: 0
Flags: HW
LayerCount: 2
Back
Fore
SplineSet
200 800 m 1
 350 800 l 1
 350 650 l 1
 200 650 l 1
 200 800 l 1
0 600 m 1
 150 600 l 1
 150 450 l 1
 0 450 l 1
 0 600 l 1
400 600 m 1
 550 600 l 1
 550 450 l 1
 400 450 l 1
 400 600 l 1
0 400 m 1
 150 400 l 1
 150 250 l 1
 0 250 l 1
 0 400 l 1
400 400 m 1
 550 400 l 1
 550 250 l 1
 400 250 l 1
 400 400 l 1
0 200 m 1
 150 200 l 1
 150 50 l 1
 0 50 l 1
 0 200 l 1
400 200 m 1
 550 200 l 1
 550 50 l 1
 400 50 l 1
 400 200 l 1
0 800 m 1
 150 800 l 1
 150 650 l 1
 0 650 l 1
 0 800 l 1
EndSplineSet
EndChar

StartChar: u6F0000
Encoding: 111 7274496 111
Width: 800
VWidth: 0
Flags: HW
LayerCount: 2
Back
Fore
SplineSet
200 800 m 1
 350 800 l 1
 350 650 l 1
 200 650 l 1
 200 800 l 1
0 600 m 1
 150 600 l 1
 150 450 l 1
 0 450 l 1
 0 600 l 1
400 600 m 1
 550 600 l 1
 550 450 l 1
 400 450 l 1
 400 600 l 1
0 400 m 1
 150 400 l 1
 150 250 l 1
 0 250 l 1
 0 400 l 1
400 400 m 1
 550 400 l 1
 550 250 l 1
 400 250 l 1
 400 400 l 1
200 200 m 1
 350 200 l 1
 350 50 l 1
 200 50 l 1
 200 200 l 1
400 200 m 1
 550 200 l 1
 550 50 l 1
 400 50 l 1
 400 200 l 1
0 800 m 1
 150 800 l 1
 150 650 l 1
 0 650 l 1
 0 800 l 1
EndSplineSet
EndChar

StartChar: u700000
Encoding: 112 7340032 112
Width: 800
VWidth: 0
Flags: HW
LayerCount: 2
Back
Fore
SplineSet
200 800 m 1
 350 800 l 1
 350 650 l 1
 200 650 l 1
 200 800 l 1
0 600 m 1
 150 600 l 1
 150 450 l 1
 0 450 l 1
 0 600 l 1
400 600 m 1
 550 600 l 1
 550 450 l 1
 400 450 l 1
 400 600 l 1
0 400 m 1
 150 400 l 1
 150 250 l 1
 0 250 l 1
 0 400 l 1
400 400 m 1
 550 400 l 1
 550 250 l 1
 400 250 l 1
 400 400 l 1
0 200 m 1
 150 200 l 1
 150 50 l 1
 0 50 l 1
 0 200 l 1
200 200 m 1
 350 200 l 1
 350 50 l 1
 200 50 l 1
 200 200 l 1
0 0 m 1
 150 0 l 1
 150 -150 l 1
 0 -150 l 1
 0 0 l 1
0 800 m 1
 150 800 l 1
 150 650 l 1
 0 650 l 1
 0 800 l 1
EndSplineSet
EndChar

StartChar: u710000
Encoding: 113 7405568 113
Width: 800
VWidth: 0
Flags: HW
LayerCount: 2
Back
Fore
SplineSet
200 800 m 1
 350 800 l 1
 350 650 l 1
 200 650 l 1
 200 800 l 1
400 800 m 1
 550 800 l 1
 550 650 l 1
 400 650 l 1
 400 800 l 1
0 600 m 1
 150 600 l 1
 150 450 l 1
 0 450 l 1
 0 600 l 1
400 600 m 1
 550 600 l 1
 550 450 l 1
 400 450 l 1
 400 600 l 1
0 400 m 1
 150 400 l 1
 150 250 l 1
 0 250 l 1
 0 400 l 1
400 400 m 1
 550 400 l 1
 550 250 l 1
 400 250 l 1
 400 400 l 1
200 200 m 1
 350 200 l 1
 350 50 l 1
 200 50 l 1
 200 200 l 1
400 200 m 1
 550 200 l 1
 550 50 l 1
 400 50 l 1
 400 200 l 1
400 0 m 1
 550 0 l 1
 550 -150 l 1
 400 -150 l 1
 400 0 l 1
EndSplineSet
EndChar

StartChar: u720000
Encoding: 114 7471104 114
Width: 800
VWidth: 0
Flags: HW
LayerCount: 2
Back
Fore
SplineSet
200 800 m 1
 350 800 l 1
 350 650 l 1
 200 650 l 1
 200 800 l 1
400 800 m 1
 550 800 l 1
 550 650 l 1
 400 650 l 1
 400 800 l 1
0 600 m 1
 150 600 l 1
 150 450 l 1
 0 450 l 1
 0 600 l 1
0 400 m 1
 150 400 l 1
 150 250 l 1
 0 250 l 1
 0 400 l 1
0 200 m 1
 150 200 l 1
 150 50 l 1
 0 50 l 1
 0 200 l 1
EndSplineSet
EndChar

StartChar: u730000
Encoding: 115 7536640 115
Width: 800
VWidth: 0
Flags: HW
LayerCount: 2
Back
Fore
SplineSet
200 800 m 1
 350 800 l 1
 350 650 l 1
 200 650 l 1
 200 800 l 1
400 800 m 1
 550 800 l 1
 550 650 l 1
 400 650 l 1
 400 800 l 1
0 600 m 1
 150 600 l 1
 150 450 l 1
 0 450 l 1
 0 600 l 1
400 400 m 1
 550 400 l 1
 550 250 l 1
 400 250 l 1
 400 400 l 1
0 200 m 1
 150 200 l 1
 150 50 l 1
 0 50 l 1
 0 200 l 1
200 200 m 1
 350 200 l 1
 350 50 l 1
 200 50 l 1
 200 200 l 1
400 200 m 1
 550 200 l 1
 550 50 l 1
 400 50 l 1
 400 200 l 1
0 800 m 1
 150 800 l 1
 150 650 l 1
 0 650 l 1
 0 800 l 1
EndSplineSet
EndChar

StartChar: u740000
Encoding: 116 7602176 116
Width: 800
VWidth: 0
Flags: HW
LayerCount: 2
Back
Fore
SplineSet
200 1000 m 1
 350 1000 l 1
 350 850 l 1
 200 850 l 1
 200 1000 l 1
0 800 m 1
 150 800 l 1
 150 650 l 1
 0 650 l 1
 0 800 l 1
200 800 m 1
 350 800 l 1
 350 650 l 1
 200 650 l 1
 200 800 l 1
400 800 m 1
 550 800 l 1
 550 650 l 1
 400 650 l 1
 400 800 l 1
200 600 m 1
 350 600 l 1
 350 450 l 1
 200 450 l 1
 200 600 l 1
200 400 m 1
 350 400 l 1
 350 250 l 1
 200 250 l 1
 200 400 l 1
200 200 m 1
 350 200 l 1
 350 50 l 1
 200 50 l 1
 200 200 l 1
400 200 m 1
 550 200 l 1
 550 50 l 1
 400 50 l 1
 400 200 l 1
EndSplineSet
EndChar

StartChar: u750000
Encoding: 117 7667712 117
Width: 800
VWidth: 0
Flags: HW
LayerCount: 2
Back
Fore
SplineSet
400 800 m 1
 550 800 l 1
 550 650 l 1
 400 650 l 1
 400 800 l 1
0 600 m 1
 150 600 l 1
 150 450 l 1
 0 450 l 1
 0 600 l 1
400 600 m 1
 550 600 l 1
 550 450 l 1
 400 450 l 1
 400 600 l 1
0 400 m 1
 150 400 l 1
 150 250 l 1
 0 250 l 1
 0 400 l 1
400 400 m 1
 550 400 l 1
 550 250 l 1
 400 250 l 1
 400 400 l 1
200 200 m 1
 350 200 l 1
 350 50 l 1
 200 50 l 1
 200 200 l 1
400 200 m 1
 550 200 l 1
 550 50 l 1
 400 50 l 1
 400 200 l 1
0 800 m 1
 150 800 l 1
 150 650 l 1
 0 650 l 1
 0 800 l 1
EndSplineSet
EndChar

StartChar: u760000
Encoding: 118 7733248 118
Width: 800
VWidth: 0
Flags: HW
LayerCount: 2
Back
Fore
SplineSet
400 800 m 1
 550 800 l 1
 550 650 l 1
 400 650 l 1
 400 800 l 1
0 600 m 1
 150 600 l 1
 150 450 l 1
 0 450 l 1
 0 600 l 1
400 600 m 1
 550 600 l 1
 550 450 l 1
 400 450 l 1
 400 600 l 1
0 400 m 1
 150 400 l 1
 150 250 l 1
 0 250 l 1
 0 400 l 1
200 400 m 1
 350 400 l 1
 350 250 l 1
 200 250 l 1
 200 400 l 1
400 400 m 1
 550 400 l 1
 550 250 l 1
 400 250 l 1
 400 400 l 1
200 200 m 1
 350 200 l 1
 350 50 l 1
 200 50 l 1
 200 200 l 1
0 800 m 1
 150 800 l 1
 150 650 l 1
 0 650 l 1
 0 800 l 1
EndSplineSet
EndChar

StartChar: u770000
Encoding: 119 7798784 119
Width: 1200
VWidth: 0
Flags: HW
LayerCount: 2
Back
Fore
SplineSet
800 800 m 1
 950 800 l 1
 950 650 l 1
 800 650 l 1
 800 800 l 1
0 600 m 1
 150 600 l 1
 150 450 l 1
 0 450 l 1
 0 600 l 1
400 600 m 1
 550 600 l 1
 550 450 l 1
 400 450 l 1
 400 600 l 1
800 600 m 1
 950 600 l 1
 950 450 l 1
 800 450 l 1
 800 600 l 1
0 400 m 1
 150 400 l 1
 150 250 l 1
 0 250 l 1
 0 400 l 1
400 400 m 1
 550 400 l 1
 550 250 l 1
 400 250 l 1
 400 400 l 1
800 400 m 1
 950 400 l 1
 950 250 l 1
 800 250 l 1
 800 400 l 1
200 200 m 1
 350 200 l 1
 350 50 l 1
 200 50 l 1
 200 200 l 1
600 200 m 1
 750 200 l 1
 750 50 l 1
 600 50 l 1
 600 200 l 1
0 800 m 1
 150 800 l 1
 150 650 l 1
 0 650 l 1
 0 800 l 1
EndSplineSet
EndChar

StartChar: u780000
Encoding: 120 7864320 120
Width: 800
VWidth: 0
Flags: HW
LayerCount: 2
Back
Fore
SplineSet
400 800 m 1
 550 800 l 1
 550 650 l 1
 400 650 l 1
 400 800 l 1
200 600 m 1
 350 600 l 1
 350 450 l 1
 200 450 l 1
 200 600 l 1
200 400 m 1
 350 400 l 1
 350 250 l 1
 200 250 l 1
 200 400 l 1
0 200 m 1
 150 200 l 1
 150 50 l 1
 0 50 l 1
 0 200 l 1
400 200 m 1
 550 200 l 1
 550 50 l 1
 400 50 l 1
 400 200 l 1
0 800 m 1
 150 800 l 1
 150 650 l 1
 0 650 l 1
 0 800 l 1
EndSplineSet
EndChar

StartChar: u790000
Encoding: 121 7929856 121
Width: 800
VWidth: 0
Flags: HW
LayerCount: 2
Back
Fore
SplineSet
400 800 m 1
 550 800 l 1
 550 650 l 1
 400 650 l 1
 400 800 l 1
0 600 m 1
 150 600 l 1
 150 450 l 1
 0 450 l 1
 0 600 l 1
400 600 m 1
 550 600 l 1
 550 450 l 1
 400 450 l 1
 400 600 l 1
200 400 m 1
 350 400 l 1
 350 250 l 1
 200 250 l 1
 200 400 l 1
400 400 m 1
 550 400 l 1
 550 250 l 1
 400 250 l 1
 400 400 l 1
400 200 m 1
 550 200 l 1
 550 50 l 1
 400 50 l 1
 400 200 l 1
0 0 m 1
 150 0 l 1
 150 -150 l 1
 0 -150 l 1
 0 0 l 1
200 0 m 1
 350 0 l 1
 350 -150 l 1
 200 -150 l 1
 200 0 l 1
0 800 m 1
 150 800 l 1
 150 650 l 1
 0 650 l 1
 0 800 l 1
EndSplineSet
EndChar

StartChar: u7A0000
Encoding: 122 7995392 122
Width: 800
VWidth: 0
Flags: HW
LayerCount: 2
Back
Fore
SplineSet
200 800 m 1
 350 800 l 1
 350 650 l 1
 200 650 l 1
 200 800 l 1
400 800 m 1
 550 800 l 1
 550 650 l 1
 400 650 l 1
 400 800 l 1
400 600 m 1
 550 600 l 1
 550 450 l 1
 400 450 l 1
 400 600 l 1
0 400 m 1
 150 400 l 1
 150 250 l 1
 0 250 l 1
 0 400 l 1
0 200 m 1
 150 200 l 1
 150 50 l 1
 0 50 l 1
 0 200 l 1
200 200 m 1
 350 200 l 1
 350 50 l 1
 200 50 l 1
 200 200 l 1
400 200 m 1
 550 200 l 1
 550 50 l 1
 400 50 l 1
 400 200 l 1
0 800 m 1
 150 800 l 1
 150 650 l 1
 0 650 l 1
 0 800 l 1
EndSplineSet
EndChar

StartChar: u7B0000
Encoding: 123 8060928 123
Width: 800
VWidth: 0
Flags: HW
LayerCount: 2
Back
Fore
SplineSet
200 1000 m 1
 350 1000 l 1
 350 850 l 1
 200 850 l 1
 200 1000 l 1
400 1000 m 1
 550 1000 l 1
 550 850 l 1
 400 850 l 1
 400 1000 l 1
200 800 m 1
 350 800 l 1
 350 650 l 1
 200 650 l 1
 200 800 l 1
0 600 m 1
 150 600 l 1
 150 450 l 1
 0 450 l 1
 0 600 l 1
200 600 m 1
 350 600 l 1
 350 450 l 1
 200 450 l 1
 200 600 l 1
200 400 m 1
 350 400 l 1
 350 250 l 1
 200 250 l 1
 200 400 l 1
200 200 m 1
 350 200 l 1
 350 50 l 1
 200 50 l 1
 200 200 l 1
400 200 m 1
 550 200 l 1
 550 50 l 1
 400 50 l 1
 400 200 l 1
EndSplineSet
EndChar

StartChar: u7C0000
Encoding: 124 8126464 124
Width: 400
VWidth: 0
Flags: HW
LayerCount: 2
Back
Fore
SplineSet
0 0 m 1
 150 0 l 1
 150 -150 l 1
 0 -150 l 1
 0 0 l 1
0 0 m 1
0 200 m 1
 150 200 l 1
 150 50 l 1
 0 50 l 1
 0 200 l 1
0 200 m 1
0 400 m 1
 150 400 l 1
 150 250 l 1
 0 250 l 1
 0 400 l 1
0 400 m 1
0 600 m 1
 150 600 l 1
 150 450 l 1
 0 450 l 1
 0 600 l 1
0 600 m 1
0 800 m 1
 150 800 l 1
 150 650 l 1
 0 650 l 1
 0 800 l 1
0 800 m 1
0 1000 m 1
 150 1000 l 1
 150 850 l 1
 0 850 l 1
 0 1000 l 1
EndSplineSet
EndChar

StartChar: u7D0000
Encoding: 125 8192000 125
Width: 800
VWidth: 0
Flags: HW
LayerCount: 2
Back
Fore
SplineSet
200 1000 m 1
 350 1000 l 1
 350 850 l 1
 200 850 l 1
 200 1000 l 1
200 800 m 1
 350 800 l 1
 350 650 l 1
 200 650 l 1
 200 800 l 1
200 600 m 1
 350 600 l 1
 350 450 l 1
 200 450 l 1
 200 600 l 1
400 600 m 1
 550 600 l 1
 550 450 l 1
 400 450 l 1
 400 600 l 1
200 400 m 1
 350 400 l 1
 350 250 l 1
 200 250 l 1
 200 400 l 1
0 200 m 1
 150 200 l 1
 150 50 l 1
 0 50 l 1
 0 200 l 1
200 200 m 1
 350 200 l 1
 350 50 l 1
 200 50 l 1
 200 200 l 1
0 1000 m 1
 150 1000 l 1
 150 850 l 1
 0 850 l 1
 0 1000 l 1
EndSplineSet
EndChar

StartChar: u7E0000
Encoding: 126 8257536 126
Width: 1000
VWidth: 0
Flags: HW
LayerCount: 2
Back
Fore
SplineSet
200 800 m 1
 350 800 l 1
 350 650 l 1
 200 650 l 1
 200 800 l 1
600 800 m 1
 750 800 l 1
 750 650 l 1
 600 650 l 1
 600 800 l 1
0 600 m 1
 150 600 l 1
 150 450 l 1
 0 450 l 1
 0 600 l 1
400 600 m 1
 550 600 l 1
 550 450 l 1
 400 450 l 1
 400 600 l 1
EndSplineSet
EndChar

StartChar: u7F0000
Encoding: 127 8323072 127
Width: 800
VWidth: 0
Flags: HW
LayerCount: 2
Back
Fore
SplineSet
200 1000 m 1
 350 1000 l 1
 350 850 l 1
 200 850 l 1
 200 1000 l 1
0 800 m 1
 150 800 l 1
 150 650 l 1
 0 650 l 1
 0 800 l 1
200 800 m 1
 350 800 l 1
 350 650 l 1
 200 650 l 1
 200 800 l 1
400 800 m 1
 550 800 l 1
 550 650 l 1
 400 650 l 1
 400 800 l 1
0 200 m 1
 150 200 l 1
 150 50 l 1
 0 50 l 1
 0 200 l 1
200 200 m 1
 350 200 l 1
 350 50 l 1
 200 50 l 1
 200 200 l 1
400 200 m 1
 550 200 l 1
 550 50 l 1
 400 50 l 1
 400 200 l 1
200 0 m 1
 350 0 l 1
 350 -150 l 1
 200 -150 l 1
 200 0 l 1
EndSplineSet
EndChar

StartChar: u20AC0000
Encoding: 128 548143104 128
Width: 800
VWidth: 0
Flags: HW
LayerCount: 2
Back
Fore
SplineSet
200 1000 m 1
 350 1000 l 1
 350 850 l 1
 200 850 l 1
 200 1000 l 1
200 800 m 1
 350 800 l 1
 350 650 l 1
 200 650 l 1
 200 800 l 1
400 600 m 1
 550 600 l 1
 550 450 l 1
 400 450 l 1
 400 600 l 1
0 400 m 1
 150 400 l 1
 150 250 l 1
 0 250 l 1
 0 400 l 1
200 400 m 1
 350 400 l 1
 350 250 l 1
 200 250 l 1
 200 400 l 1
400 400 m 1
 550 400 l 1
 550 250 l 1
 400 250 l 1
 400 400 l 1
0 1000 m 1
 150 1000 l 1
 150 850 l 1
 0 850 l 1
 0 1000 l 1
EndSplineSet
EndChar

StartChar: u810000
Encoding: 129 8454144 129
Width: 1200
VWidth: 0
Flags: HW
LayerCount: 2
Back
Fore
SplineSet
400 200 m 1
 550 200 l 1
 550 50 l 1
 400 50 l 1
 400 200 l 1
800 200 m 1
 950 200 l 1
 950 50 l 1
 800 50 l 1
 800 200 l 1
0 0 m 1
 150 0 l 1
 150 -150 l 1
 0 -150 l 1
 0 0 l 1
200 0 m 1
 350 0 l 1
 350 -150 l 1
 200 -150 l 1
 200 0 l 1
400 0 m 1
 550 0 l 1
 550 -150 l 1
 400 -150 l 1
 400 0 l 1
600 0 m 1
 750 0 l 1
 750 -150 l 1
 600 -150 l 1
 600 0 l 1
800 0 m 1
 950 0 l 1
 950 -150 l 1
 800 -150 l 1
 800 0 l 1
0 200 m 1
 150 200 l 1
 150 50 l 1
 0 50 l 1
 0 200 l 1
EndSplineSet
EndChar

StartChar: u201A0000
Encoding: 130 538574848 130
Width: 800
VWidth: 0
Flags: HW
LayerCount: 2
Back
Fore
SplineSet
200 1000 m 1
 350 1000 l 1
 350 850 l 1
 200 850 l 1
 200 1000 l 1
400 1000 m 1
 550 1000 l 1
 550 850 l 1
 400 850 l 1
 400 1000 l 1
0 800 m 1
 150 800 l 1
 150 650 l 1
 0 650 l 1
 0 800 l 1
0 600 m 1
 150 600 l 1
 150 450 l 1
 0 450 l 1
 0 600 l 1
0 400 m 1
 150 400 l 1
 150 250 l 1
 0 250 l 1
 0 400 l 1
0 200 m 1
 150 200 l 1
 150 50 l 1
 0 50 l 1
 0 200 l 1
0 1000 m 1
 150 1000 l 1
 150 850 l 1
 0 850 l 1
 0 1000 l 1
EndSplineSet
EndChar

StartChar: u1920000
Encoding: 131 26345472 131
Width: 1000
VWidth: 0
Flags: HW
LayerCount: 2
Back
Fore
SplineSet
600 1000 m 1
 750 1000 l 1
 750 850 l 1
 600 850 l 1
 600 1000 l 1
400 800 m 1
 550 800 l 1
 550 650 l 1
 400 650 l 1
 400 800 l 1
600 800 m 1
 750 800 l 1
 750 650 l 1
 600 650 l 1
 600 800 l 1
200 600 m 1
 350 600 l 1
 350 450 l 1
 200 450 l 1
 200 600 l 1
600 600 m 1
 750 600 l 1
 750 450 l 1
 600 450 l 1
 600 600 l 1
0 400 m 1
 150 400 l 1
 150 250 l 1
 0 250 l 1
 0 400 l 1
600 400 m 1
 750 400 l 1
 750 250 l 1
 600 250 l 1
 600 400 l 1
0 200 m 1
 150 200 l 1
 150 50 l 1
 0 50 l 1
 0 200 l 1
200 200 m 1
 350 200 l 1
 350 50 l 1
 200 50 l 1
 200 200 l 1
400 200 m 1
 550 200 l 1
 550 50 l 1
 400 50 l 1
 400 200 l 1
600 200 m 1
 750 200 l 1
 750 50 l 1
 600 50 l 1
 600 200 l 1
EndSplineSet
EndChar

StartChar: u201E0000
Encoding: 132 538836992 132
Width: 1000
VWidth: 0
Flags: HW
LayerCount: 2
Back
Fore
SplineSet
200 1000 m 1
 350 1000 l 1
 350 850 l 1
 200 850 l 1
 200 1000 l 1
400 1000 m 1
 550 1000 l 1
 550 850 l 1
 400 850 l 1
 400 1000 l 1
200 800 m 1
 350 800 l 1
 350 650 l 1
 200 650 l 1
 200 800 l 1
600 800 m 1
 750 800 l 1
 750 650 l 1
 600 650 l 1
 600 800 l 1
0 600 m 1
 150 600 l 1
 150 450 l 1
 0 450 l 1
 0 600 l 1
200 600 m 1
 350 600 l 1
 350 450 l 1
 200 450 l 1
 200 600 l 1
600 600 m 1
 750 600 l 1
 750 450 l 1
 600 450 l 1
 600 600 l 1
200 400 m 1
 350 400 l 1
 350 250 l 1
 200 250 l 1
 200 400 l 1
600 400 m 1
 750 400 l 1
 750 250 l 1
 600 250 l 1
 600 400 l 1
200 200 m 1
 350 200 l 1
 350 50 l 1
 200 50 l 1
 200 200 l 1
400 200 m 1
 550 200 l 1
 550 50 l 1
 400 50 l 1
 400 200 l 1
EndSplineSet
EndChar

StartChar: u20260000
Encoding: 133 539361280 133
Width: 1000
VWidth: 0
Flags: HW
LayerCount: 2
Back
Fore
SplineSet
400 1000 m 1
 550 1000 l 1
 550 850 l 1
 400 850 l 1
 400 1000 l 1
200 800 m 1
 350 800 l 1
 350 650 l 1
 200 650 l 1
 200 800 l 1
400 800 m 1
 550 800 l 1
 550 650 l 1
 400 650 l 1
 400 800 l 1
600 800 m 1
 750 800 l 1
 750 650 l 1
 600 650 l 1
 600 800 l 1
0 600 m 1
 150 600 l 1
 150 450 l 1
 0 450 l 1
 0 600 l 1
400 600 m 1
 550 600 l 1
 550 450 l 1
 400 450 l 1
 400 600 l 1
0 400 m 1
 150 400 l 1
 150 250 l 1
 0 250 l 1
 0 400 l 1
400 400 m 1
 550 400 l 1
 550 250 l 1
 400 250 l 1
 400 400 l 1
200 200 m 1
 350 200 l 1
 350 50 l 1
 200 50 l 1
 200 200 l 1
400 200 m 1
 550 200 l 1
 550 50 l 1
 400 50 l 1
 400 200 l 1
EndSplineSet
EndChar

StartChar: u20200000
Encoding: 134 538968064 134
Width: 200
VWidth: 0
Flags: HW
LayerCount: 2
Back
Fore
SplineSet
175 -175 m 1
 200 -200 l 1
 175 -175 l 1
EndSplineSet
EndChar

StartChar: u20210000
Encoding: 135 539033600 135
Width: 1000
VWidth: 0
Flags: HW
LayerCount: 2
Back
Fore
SplineSet
200 1000 m 1
 350 1000 l 1
 350 850 l 1
 200 850 l 1
 200 1000 l 1
400 1000 m 1
 550 1000 l 1
 550 850 l 1
 400 850 l 1
 400 1000 l 1
0 800 m 1
 150 800 l 1
 150 650 l 1
 0 650 l 1
 0 800 l 1
600 800 m 1
 750 800 l 1
 750 650 l 1
 600 650 l 1
 600 800 l 1
0 600 m 1
 150 600 l 1
 150 450 l 1
 0 450 l 1
 0 600 l 1
200 600 m 1
 350 600 l 1
 350 450 l 1
 200 450 l 1
 200 600 l 1
400 600 m 1
 550 600 l 1
 550 450 l 1
 400 450 l 1
 400 600 l 1
600 600 m 1
 750 600 l 1
 750 450 l 1
 600 450 l 1
 600 600 l 1
0 400 m 1
 150 400 l 1
 150 250 l 1
 0 250 l 1
 0 400 l 1
600 400 m 1
 750 400 l 1
 750 250 l 1
 600 250 l 1
 600 400 l 1
200 200 m 1
 350 200 l 1
 350 50 l 1
 200 50 l 1
 200 200 l 1
400 200 m 1
 550 200 l 1
 550 50 l 1
 400 50 l 1
 400 200 l 1
EndSplineSet
EndChar

StartChar: u2C60000
Encoding: 136 46530560 136
Width: 1000
VWidth: 0
Flags: HW
LayerCount: 2
Back
Fore
SplineSet
200 1000 m 1
 350 1000 l 1
 350 850 l 1
 200 850 l 1
 200 1000 l 1
400 1000 m 1
 550 1000 l 1
 550 850 l 1
 400 850 l 1
 400 1000 l 1
600 1000 m 1
 750 1000 l 1
 750 850 l 1
 600 850 l 1
 600 1000 l 1
0 800 m 1
 150 800 l 1
 150 650 l 1
 0 650 l 1
 0 800 l 1
400 800 m 1
 550 800 l 1
 550 650 l 1
 400 650 l 1
 400 800 l 1
0 600 m 1
 150 600 l 1
 150 450 l 1
 0 450 l 1
 0 600 l 1
200 600 m 1
 350 600 l 1
 350 450 l 1
 200 450 l 1
 200 600 l 1
400 600 m 1
 550 600 l 1
 550 450 l 1
 400 450 l 1
 400 600 l 1
600 600 m 1
 750 600 l 1
 750 450 l 1
 600 450 l 1
 600 600 l 1
0 400 m 1
 150 400 l 1
 150 250 l 1
 0 250 l 1
 0 400 l 1
400 400 m 1
 550 400 l 1
 550 250 l 1
 400 250 l 1
 400 400 l 1
0 200 m 1
 150 200 l 1
 150 50 l 1
 0 50 l 1
 0 200 l 1
400 200 m 1
 550 200 l 1
 550 50 l 1
 400 50 l 1
 400 200 l 1
600 200 m 1
 750 200 l 1
 750 50 l 1
 600 50 l 1
 600 200 l 1
EndSplineSet
EndChar

StartChar: u20300000
Encoding: 137 540016640 137
Width: 1200
VWidth: 0
Flags: HW
LayerCount: 2
Back
Fore
SplineSet
200 800 m 1
 350 800 l 1
 350 650 l 1
 200 650 l 1
 200 800 l 1
400 800 m 1
 550 800 l 1
 550 650 l 1
 400 650 l 1
 400 800 l 1
600 800 m 1
 750 800 l 1
 750 650 l 1
 600 650 l 1
 600 800 l 1
800 800 m 1
 950 800 l 1
 950 650 l 1
 800 650 l 1
 800 800 l 1
0 600 m 1
 150 600 l 1
 150 450 l 1
 0 450 l 1
 0 600 l 1
400 600 m 1
 550 600 l 1
 550 450 l 1
 400 450 l 1
 400 600 l 1
800 600 m 1
 950 600 l 1
 950 450 l 1
 800 450 l 1
 800 600 l 1
0 400 m 1
 150 400 l 1
 150 250 l 1
 0 250 l 1
 0 400 l 1
400 400 m 1
 550 400 l 1
 550 250 l 1
 400 250 l 1
 400 400 l 1
600 400 m 1
 750 400 l 1
 750 250 l 1
 600 250 l 1
 600 400 l 1
200 200 m 1
 350 200 l 1
 350 50 l 1
 200 50 l 1
 200 200 l 1
400 200 m 1
 550 200 l 1
 550 50 l 1
 400 50 l 1
 400 200 l 1
600 200 m 1
 750 200 l 1
 750 50 l 1
 600 50 l 1
 600 200 l 1
800 200 m 1
 950 200 l 1
 950 50 l 1
 800 50 l 1
 800 200 l 1
EndSplineSet
EndChar

StartChar: u1600000
Encoding: 138 23068672 138
Width: 800
VWidth: 0
Flags: HW
LayerCount: 2
Back
Fore
SplineSet
200 1000 m 1
 350 1000 l 1
 350 850 l 1
 200 850 l 1
 200 1000 l 1
200 800 m 1
 350 800 l 1
 350 650 l 1
 200 650 l 1
 200 800 l 1
0 600 m 1
 150 600 l 1
 150 450 l 1
 0 450 l 1
 0 600 l 1
400 600 m 1
 550 600 l 1
 550 450 l 1
 400 450 l 1
 400 600 l 1
0 400 m 1
 150 400 l 1
 150 250 l 1
 0 250 l 1
 0 400 l 1
400 400 m 1
 550 400 l 1
 550 250 l 1
 400 250 l 1
 400 400 l 1
0 200 m 1
 150 200 l 1
 150 50 l 1
 0 50 l 1
 0 200 l 1
400 200 m 1
 550 200 l 1
 550 50 l 1
 400 50 l 1
 400 200 l 1
EndSplineSet
EndChar

StartChar: u20390000
Encoding: 139 540606464 139
Width: 200
VWidth: 0
Flags: HW
LayerCount: 2
Back
Fore
SplineSet
175 -175 m 1
 200 -200 l 1
 175 -175 l 1
EndSplineSet
EndChar

StartChar: u1520000
Encoding: 140 22151168 140
Width: 200
VWidth: 0
Flags: HW
LayerCount: 2
Back
Fore
SplineSet
175 -175 m 1
 200 -200 l 1
 175 -175 l 1
EndSplineSet
EndChar

StartChar: u8D0000
Encoding: 141 9240576 141
Width: 1000
VWidth: 0
Flags: HW
LayerCount: 2
Back
Fore
SplineSet
200 1000 m 1
 350 1000 l 1
 350 850 l 1
 200 850 l 1
 200 1000 l 1
400 1000 m 1
 550 1000 l 1
 550 850 l 1
 400 850 l 1
 400 1000 l 1
600 1000 m 1
 750 1000 l 1
 750 850 l 1
 600 850 l 1
 600 1000 l 1
200 600 m 1
 350 600 l 1
 350 450 l 1
 200 450 l 1
 200 600 l 1
400 600 m 1
 550 600 l 1
 550 450 l 1
 400 450 l 1
 400 600 l 1
0 200 m 1
 150 200 l 1
 150 50 l 1
 0 50 l 1
 0 200 l 1
200 200 m 1
 350 200 l 1
 350 50 l 1
 200 50 l 1
 200 200 l 1
400 200 m 1
 550 200 l 1
 550 50 l 1
 400 50 l 1
 400 200 l 1
600 200 m 1
 750 200 l 1
 750 50 l 1
 600 50 l 1
 600 200 l 1
0 1000 m 1
 150 1000 l 1
 150 850 l 1
 0 850 l 1
 0 1000 l 1
EndSplineSet
EndChar

StartChar: u8E0000
Encoding: 142 9306112 142
Width: 1200
VWidth: 0
Flags: HW
LayerCount: 2
Back
Fore
SplineSet
200 800 m 1
 350 800 l 1
 350 650 l 1
 200 650 l 1
 200 800 l 1
400 800 m 1
 550 800 l 1
 550 650 l 1
 400 650 l 1
 400 800 l 1
600 800 m 1
 750 800 l 1
 750 650 l 1
 600 650 l 1
 600 800 l 1
0 600 m 1
 150 600 l 1
 150 450 l 1
 0 450 l 1
 0 600 l 1
800 600 m 1
 950 600 l 1
 950 450 l 1
 800 450 l 1
 800 600 l 1
0 400 m 1
 150 400 l 1
 150 250 l 1
 0 250 l 1
 0 400 l 1
400 400 m 1
 550 400 l 1
 550 250 l 1
 400 250 l 1
 400 400 l 1
800 400 m 1
 950 400 l 1
 950 250 l 1
 800 250 l 1
 800 400 l 1
0 200 m 1
 150 200 l 1
 150 50 l 1
 0 50 l 1
 0 200 l 1
800 200 m 1
 950 200 l 1
 950 50 l 1
 800 50 l 1
 800 200 l 1
200 0 m 1
 350 0 l 1
 350 -150 l 1
 200 -150 l 1
 200 0 l 1
400 0 m 1
 550 0 l 1
 550 -150 l 1
 400 -150 l 1
 400 0 l 1
600 0 m 1
 750 0 l 1
 750 -150 l 1
 600 -150 l 1
 600 0 l 1
EndSplineSet
EndChar

StartChar: u8F0000
Encoding: 143 9371648 143
Width: 800
VWidth: 0
Flags: HW
LayerCount: 2
Back
Fore
SplineSet
200 1000 m 1
 350 1000 l 1
 350 850 l 1
 200 850 l 1
 200 1000 l 1
400 1000 m 1
 550 1000 l 1
 550 850 l 1
 400 850 l 1
 400 1000 l 1
0 800 m 1
 150 800 l 1
 150 650 l 1
 0 650 l 1
 0 800 l 1
400 800 m 1
 550 800 l 1
 550 650 l 1
 400 650 l 1
 400 800 l 1
0 600 m 1
 150 600 l 1
 150 450 l 1
 0 450 l 1
 0 600 l 1
400 600 m 1
 550 600 l 1
 550 450 l 1
 400 450 l 1
 400 600 l 1
0 400 m 1
 150 400 l 1
 150 250 l 1
 0 250 l 1
 0 400 l 1
400 400 m 1
 550 400 l 1
 550 250 l 1
 400 250 l 1
 400 400 l 1
0 200 m 1
 150 200 l 1
 150 50 l 1
 0 50 l 1
 0 200 l 1
400 200 m 1
 550 200 l 1
 550 50 l 1
 400 50 l 1
 400 200 l 1
0 1000 m 1
 150 1000 l 1
 150 850 l 1
 0 850 l 1
 0 1000 l 1
EndSplineSet
EndChar

StartChar: u900000
Encoding: 144 9437184 144
Width: 200
VWidth: 0
Flags: HW
LayerCount: 2
Back
Fore
SplineSet
175 -175 m 1
 200 -200 l 1
 175 -175 l 1
EndSplineSet
EndChar

StartChar: u20180000
Encoding: 145 538443776 145
Width: 1000
VWidth: 0
Flags: HW
LayerCount: 2
Back
Fore
SplineSet
200 1000 m 1
 350 1000 l 1
 350 850 l 1
 200 850 l 1
 200 1000 l 1
400 1000 m 1
 550 1000 l 1
 550 850 l 1
 400 850 l 1
 400 1000 l 1
600 1000 m 1
 750 1000 l 1
 750 850 l 1
 600 850 l 1
 600 1000 l 1
200 800 m 1
 350 800 l 1
 350 650 l 1
 200 650 l 1
 200 800 l 1
400 600 m 1
 550 600 l 1
 550 450 l 1
 400 450 l 1
 400 600 l 1
200 400 m 1
 350 400 l 1
 350 250 l 1
 200 250 l 1
 200 400 l 1
0 200 m 1
 150 200 l 1
 150 50 l 1
 0 50 l 1
 0 200 l 1
200 200 m 1
 350 200 l 1
 350 50 l 1
 200 50 l 1
 200 200 l 1
400 200 m 1
 550 200 l 1
 550 50 l 1
 400 50 l 1
 400 200 l 1
600 200 m 1
 750 200 l 1
 750 50 l 1
 600 50 l 1
 600 200 l 1
0 1000 m 1
 150 1000 l 1
 150 850 l 1
 0 850 l 1
 0 1000 l 1
EndSplineSet
EndChar

StartChar: u20190000
Encoding: 146 538509312 146
Width: 200
VWidth: 0
Flags: HW
LayerCount: 2
Back
Fore
SplineSet
175 -175 m 1
 200 -200 l 1
 175 -175 l 1
EndSplineSet
EndChar

StartChar: u201C0000
Encoding: 147 538705920 147
Width: 200
VWidth: 0
Flags: HW
LayerCount: 2
Back
Fore
SplineSet
175 -175 m 1
 200 -200 l 1
 175 -175 l 1
EndSplineSet
EndChar

StartChar: u201D0000
Encoding: 148 538771456 148
Width: 1200
VWidth: 0
Flags: HW
LayerCount: 2
Back
Fore
SplineSet
400 1000 m 1
 550 1000 l 1
 550 850 l 1
 400 850 l 1
 400 1000 l 1
0 800 m 1
 150 800 l 1
 150 650 l 1
 0 650 l 1
 0 800 l 1
200 800 m 1
 350 800 l 1
 350 650 l 1
 200 650 l 1
 200 800 l 1
400 800 m 1
 550 800 l 1
 550 650 l 1
 400 650 l 1
 400 800 l 1
600 800 m 1
 750 800 l 1
 750 650 l 1
 600 650 l 1
 600 800 l 1
800 800 m 1
 950 800 l 1
 950 650 l 1
 800 650 l 1
 800 800 l 1
0 600 m 1
 150 600 l 1
 150 450 l 1
 0 450 l 1
 0 600 l 1
400 600 m 1
 550 600 l 1
 550 450 l 1
 400 450 l 1
 400 600 l 1
800 600 m 1
 950 600 l 1
 950 450 l 1
 800 450 l 1
 800 600 l 1
0 400 m 1
 150 400 l 1
 150 250 l 1
 0 250 l 1
 0 400 l 1
200 400 m 1
 350 400 l 1
 350 250 l 1
 200 250 l 1
 200 400 l 1
400 400 m 1
 550 400 l 1
 550 250 l 1
 400 250 l 1
 400 400 l 1
600 400 m 1
 750 400 l 1
 750 250 l 1
 600 250 l 1
 600 400 l 1
800 400 m 1
 950 400 l 1
 950 250 l 1
 800 250 l 1
 800 400 l 1
400 200 m 1
 550 200 l 1
 550 50 l 1
 400 50 l 1
 400 200 l 1
EndSplineSet
EndChar

StartChar: u20220000
Encoding: 149 539099136 149
Width: 200
VWidth: 0
Flags: HW
LayerCount: 2
Back
Fore
SplineSet
175 -175 m 1
 200 -200 l 1
 175 -175 l 1
EndSplineSet
EndChar

StartChar: u20130000
Encoding: 150 538116096 150
Width: 1200
VWidth: 0
Flags: HW
LayerCount: 2
Back
Fore
SplineSet
400 1000 m 1
 550 1000 l 1
 550 850 l 1
 400 850 l 1
 400 1000 l 1
800 1000 m 1
 950 1000 l 1
 950 850 l 1
 800 850 l 1
 800 1000 l 1
0 800 m 1
 150 800 l 1
 150 650 l 1
 0 650 l 1
 0 800 l 1
400 800 m 1
 550 800 l 1
 550 650 l 1
 400 650 l 1
 400 800 l 1
800 800 m 1
 950 800 l 1
 950 650 l 1
 800 650 l 1
 800 800 l 1
200 600 m 1
 350 600 l 1
 350 450 l 1
 200 450 l 1
 200 600 l 1
400 600 m 1
 550 600 l 1
 550 450 l 1
 400 450 l 1
 400 600 l 1
600 600 m 1
 750 600 l 1
 750 450 l 1
 600 450 l 1
 600 600 l 1
400 400 m 1
 550 400 l 1
 550 250 l 1
 400 250 l 1
 400 400 l 1
400 200 m 1
 550 200 l 1
 550 50 l 1
 400 50 l 1
 400 200 l 1
0 1000 m 1
 150 1000 l 1
 150 850 l 1
 0 850 l 1
 0 1000 l 1
EndSplineSet
EndChar

StartChar: u20140000
Encoding: 151 538181632 151
Width: 1000
VWidth: 0
Flags: HW
LayerCount: 2
Back
Fore
SplineSet
200 1000 m 1
 350 1000 l 1
 350 850 l 1
 200 850 l 1
 200 1000 l 1
400 1000 m 1
 550 1000 l 1
 550 850 l 1
 400 850 l 1
 400 1000 l 1
0 800 m 1
 150 800 l 1
 150 650 l 1
 0 650 l 1
 0 800 l 1
600 800 m 1
 750 800 l 1
 750 650 l 1
 600 650 l 1
 600 800 l 1
0 600 m 1
 150 600 l 1
 150 450 l 1
 0 450 l 1
 0 600 l 1
600 600 m 1
 750 600 l 1
 750 450 l 1
 600 450 l 1
 600 600 l 1
200 400 m 1
 350 400 l 1
 350 250 l 1
 200 250 l 1
 200 400 l 1
400 400 m 1
 550 400 l 1
 550 250 l 1
 400 250 l 1
 400 400 l 1
0 200 m 1
 150 200 l 1
 150 50 l 1
 0 50 l 1
 0 200 l 1
200 200 m 1
 350 200 l 1
 350 50 l 1
 200 50 l 1
 200 200 l 1
400 200 m 1
 550 200 l 1
 550 50 l 1
 400 50 l 1
 400 200 l 1
600 200 m 1
 750 200 l 1
 750 50 l 1
 600 50 l 1
 600 200 l 1
EndSplineSet
EndChar

StartChar: u2DC0000
Encoding: 152 47972352 152
Width: 800
VWidth: 0
Flags: HW
LayerCount: 2
Back
Fore
SplineSet
200 400 m 1
 350 400 l 1
 350 250 l 1
 200 250 l 1
 200 400 l 1
0 200 m 1
 150 200 l 1
 150 50 l 1
 0 50 l 1
 0 200 l 1
200 200 m 1
 350 200 l 1
 350 50 l 1
 200 50 l 1
 200 200 l 1
400 200 m 1
 550 200 l 1
 550 50 l 1
 400 50 l 1
 400 200 l 1
0 0 m 1
 150 0 l 1
 150 -150 l 1
 0 -150 l 1
 0 0 l 1
200 0 m 1
 350 0 l 1
 350 -150 l 1
 200 -150 l 1
 200 0 l 1
400 0 m 1
 550 0 l 1
 550 -150 l 1
 400 -150 l 1
 400 0 l 1
0 400 m 1
 150 400 l 1
 150 250 l 1
 0 250 l 1
 0 400 l 1
EndSplineSet
EndChar

StartChar: u21220000
Encoding: 153 555876352 153
Width: 800
VWidth: 0
Flags: HW
LayerCount: 2
Back
Fore
SplineSet
400 400 m 1
 550 400 l 1
 550 250 l 1
 400 250 l 1
 400 400 l 1
0 200 m 1
 150 200 l 1
 150 50 l 1
 0 50 l 1
 0 200 l 1
200 200 m 1
 350 200 l 1
 350 50 l 1
 200 50 l 1
 200 200 l 1
400 200 m 1
 550 200 l 1
 550 50 l 1
 400 50 l 1
 400 200 l 1
0 0 m 1
 150 0 l 1
 150 -150 l 1
 0 -150 l 1
 0 0 l 1
0 400 m 1
 150 400 l 1
 150 250 l 1
 0 250 l 1
 0 400 l 1
EndSplineSet
EndChar

StartChar: u1610000
Encoding: 154 23134208 154
Width: 600
VWidth: 0
Flags: HW
LayerCount: 2
Back
Fore
SplineSet
200 1000 m 1
 350 1000 l 1
 350 850 l 1
 200 850 l 1
 200 1000 l 1
200 800 m 1
 350 800 l 1
 350 650 l 1
 200 650 l 1
 200 800 l 1
0 600 m 1
 150 600 l 1
 150 450 l 1
 0 450 l 1
 0 600 l 1
0 400 m 1
 150 400 l 1
 150 250 l 1
 0 250 l 1
 0 400 l 1
200 400 m 1
 350 400 l 1
 350 250 l 1
 200 250 l 1
 200 400 l 1
0 1000 m 1
 150 1000 l 1
 150 850 l 1
 0 850 l 1
 0 1000 l 1
EndSplineSet
EndChar

StartChar: u203A0000
Encoding: 155 540672000 155
Width: 1200
VWidth: 0
Flags: HW
LayerCount: 2
Back
Fore
SplineSet
200 400 m 1
 350 400 l 1
 350 250 l 1
 200 250 l 1
 200 400 l 1
600 400 m 1
 750 400 l 1
 750 250 l 1
 600 250 l 1
 600 400 l 1
0 200 m 1
 150 200 l 1
 150 50 l 1
 0 50 l 1
 0 200 l 1
400 200 m 1
 550 200 l 1
 550 50 l 1
 400 50 l 1
 400 200 l 1
800 200 m 1
 950 200 l 1
 950 50 l 1
 800 50 l 1
 800 200 l 1
200 0 m 1
 350 0 l 1
 350 -150 l 1
 200 -150 l 1
 200 0 l 1
600 0 m 1
 750 0 l 1
 750 -150 l 1
 600 -150 l 1
 600 0 l 1
EndSplineSet
EndChar

StartChar: u1530000
Encoding: 156 22216704 156
Width: 800
VWidth: 0
Flags: HW
LayerCount: 2
Back
Fore
SplineSet
400 1000 m 1
 550 1000 l 1
 550 850 l 1
 400 850 l 1
 400 1000 l 1
200 800 m 1
 350 800 l 1
 350 650 l 1
 200 650 l 1
 200 800 l 1
0 600 m 1
 150 600 l 1
 150 450 l 1
 0 450 l 1
 0 600 l 1
400 600 m 1
 550 600 l 1
 550 450 l 1
 400 450 l 1
 400 600 l 1
0 1000 m 1
 150 1000 l 1
 150 850 l 1
 0 850 l 1
 0 1000 l 1
EndSplineSet
EndChar

StartChar: u9D0000
Encoding: 157 10289152 157
Width: 1000
VWidth: 0
Flags: HW
LayerCount: 2
Back
Fore
SplineSet
600 1000 m 1
 750 1000 l 1
 750 850 l 1
 600 850 l 1
 600 1000 l 1
0 800 m 1
 150 800 l 1
 150 650 l 1
 0 650 l 1
 0 800 l 1
200 800 m 1
 350 800 l 1
 350 650 l 1
 200 650 l 1
 200 800 l 1
600 800 m 1
 750 800 l 1
 750 650 l 1
 600 650 l 1
 600 800 l 1
600 600 m 1
 750 600 l 1
 750 450 l 1
 600 450 l 1
 600 600 l 1
EndSplineSet
EndChar

StartChar: u9E0000
Encoding: 158 10354688 158
Width: 1000
VWidth: 0
Flags: HW
LayerCount: 2
Back
Fore
SplineSet
200 1000 m 1
 350 1000 l 1
 350 850 l 1
 200 850 l 1
 200 1000 l 1
0 800 m 1
 150 800 l 1
 150 650 l 1
 0 650 l 1
 0 800 l 1
200 800 m 1
 350 800 l 1
 350 650 l 1
 200 650 l 1
 200 800 l 1
400 800 m 1
 550 800 l 1
 550 650 l 1
 400 650 l 1
 400 800 l 1
200 600 m 1
 350 600 l 1
 350 450 l 1
 200 450 l 1
 200 600 l 1
200 400 m 1
 350 400 l 1
 350 250 l 1
 200 250 l 1
 200 400 l 1
400 400 m 1
 550 400 l 1
 550 250 l 1
 400 250 l 1
 400 400 l 1
600 400 m 1
 750 400 l 1
 750 250 l 1
 600 250 l 1
 600 400 l 1
200 200 m 1
 350 200 l 1
 350 50 l 1
 200 50 l 1
 200 200 l 1
600 200 m 1
 750 200 l 1
 750 50 l 1
 600 50 l 1
 600 200 l 1
EndSplineSet
EndChar

StartChar: u1780000
Encoding: 159 24641536 159
Width: 1200
VWidth: 0
Flags: HW
LayerCount: 2
Back
Fore
SplineSet
200 800 m 1
 350 800 l 1
 350 650 l 1
 200 650 l 1
 200 800 l 1
600 800 m 1
 750 800 l 1
 750 650 l 1
 600 650 l 1
 600 800 l 1
0 600 m 1
 150 600 l 1
 150 450 l 1
 0 450 l 1
 0 600 l 1
400 600 m 1
 550 600 l 1
 550 450 l 1
 400 450 l 1
 400 600 l 1
800 600 m 1
 950 600 l 1
 950 450 l 1
 800 450 l 1
 800 600 l 1
0 400 m 1
 150 400 l 1
 150 250 l 1
 0 250 l 1
 0 400 l 1
400 400 m 1
 550 400 l 1
 550 250 l 1
 400 250 l 1
 400 400 l 1
800 400 m 1
 950 400 l 1
 950 250 l 1
 800 250 l 1
 800 400 l 1
200 200 m 1
 350 200 l 1
 350 50 l 1
 200 50 l 1
 200 200 l 1
600 200 m 1
 750 200 l 1
 750 50 l 1
 600 50 l 1
 600 200 l 1
EndSplineSet
EndChar

StartChar: uA00000
Encoding: 160 10485760 160
Width: 1000
VWidth: 0
Flags: HW
LayerCount: 2
Back
Fore
SplineSet
200 800 m 1
 350 800 l 1
 350 650 l 1
 200 650 l 1
 200 800 l 1
600 800 m 1
 750 800 l 1
 750 650 l 1
 600 650 l 1
 600 800 l 1
0 600 m 1
 150 600 l 1
 150 450 l 1
 0 450 l 1
 0 600 l 1
400 600 m 1
 550 600 l 1
 550 450 l 1
 400 450 l 1
 400 600 l 1
0 400 m 1
 150 400 l 1
 150 250 l 1
 0 250 l 1
 0 400 l 1
400 400 m 1
 550 400 l 1
 550 250 l 1
 400 250 l 1
 400 400 l 1
200 200 m 1
 350 200 l 1
 350 50 l 1
 200 50 l 1
 200 200 l 1
600 200 m 1
 750 200 l 1
 750 50 l 1
 600 50 l 1
 600 200 l 1
EndSplineSet
EndChar

StartChar: uA10000
Encoding: 161 10551296 161
Width: 800
VWidth: 0
Flags: HW
LayerCount: 2
Back
Fore
SplineSet
200 1000 m 1
 350 1000 l 1
 350 850 l 1
 200 850 l 1
 200 1000 l 1
0 800 m 1
 150 800 l 1
 150 650 l 1
 0 650 l 1
 0 800 l 1
400 800 m 1
 550 800 l 1
 550 650 l 1
 400 650 l 1
 400 800 l 1
0 600 m 1
 150 600 l 1
 150 450 l 1
 0 450 l 1
 0 600 l 1
200 600 m 1
 350 600 l 1
 350 450 l 1
 200 450 l 1
 200 600 l 1
0 400 m 1
 150 400 l 1
 150 250 l 1
 0 250 l 1
 0 400 l 1
400 400 m 1
 550 400 l 1
 550 250 l 1
 400 250 l 1
 400 400 l 1
0 200 m 1
 150 200 l 1
 150 50 l 1
 0 50 l 1
 0 200 l 1
200 200 m 1
 350 200 l 1
 350 50 l 1
 200 50 l 1
 200 200 l 1
0 0 m 1
 150 0 l 1
 150 -150 l 1
 0 -150 l 1
 0 0 l 1
EndSplineSet
EndChar

StartChar: uA20000
Encoding: 162 10616832 162
Width: 800
VWidth: 0
Flags: HW
LayerCount: 2
Back
Fore
SplineSet
400 800 m 1
 550 800 l 1
 550 650 l 1
 400 650 l 1
 400 800 l 1
200 600 m 1
 350 600 l 1
 350 450 l 1
 200 450 l 1
 200 600 l 1
200 400 m 1
 350 400 l 1
 350 250 l 1
 200 250 l 1
 200 400 l 1
200 200 m 1
 350 200 l 1
 350 50 l 1
 200 50 l 1
 200 200 l 1
200 0 m 1
 350 0 l 1
 350 -150 l 1
 200 -150 l 1
 200 0 l 1
0 800 m 1
 150 800 l 1
 150 650 l 1
 0 650 l 1
 0 800 l 1
EndSplineSet
EndChar

StartChar: uA30000
Encoding: 163 10682368 163
Width: 800
VWidth: 0
Flags: HW
LayerCount: 2
Back
Fore
SplineSet
200 1000 m 1
 350 1000 l 1
 350 850 l 1
 200 850 l 1
 200 1000 l 1
0 800 m 1
 150 800 l 1
 150 650 l 1
 0 650 l 1
 0 800 l 1
200 600 m 1
 350 600 l 1
 350 450 l 1
 200 450 l 1
 200 600 l 1
0 400 m 1
 150 400 l 1
 150 250 l 1
 0 250 l 1
 0 400 l 1
400 400 m 1
 550 400 l 1
 550 250 l 1
 400 250 l 1
 400 400 l 1
0 200 m 1
 150 200 l 1
 150 50 l 1
 0 50 l 1
 0 200 l 1
200 200 m 1
 350 200 l 1
 350 50 l 1
 200 50 l 1
 200 200 l 1
400 200 m 1
 550 200 l 1
 550 50 l 1
 400 50 l 1
 400 200 l 1
EndSplineSet
EndChar

StartChar: uA40000
Encoding: 164 10747904 164
Width: 800
VWidth: 0
Flags: HW
LayerCount: 2
Back
Fore
SplineSet
200 1000 m 1
 350 1000 l 1
 350 850 l 1
 200 850 l 1
 200 1000 l 1
400 1000 m 1
 550 1000 l 1
 550 850 l 1
 400 850 l 1
 400 1000 l 1
0 800 m 1
 150 800 l 1
 150 650 l 1
 0 650 l 1
 0 800 l 1
200 600 m 1
 350 600 l 1
 350 450 l 1
 200 450 l 1
 200 600 l 1
400 600 m 1
 550 600 l 1
 550 450 l 1
 400 450 l 1
 400 600 l 1
0 400 m 1
 150 400 l 1
 150 250 l 1
 0 250 l 1
 0 400 l 1
200 200 m 1
 350 200 l 1
 350 50 l 1
 200 50 l 1
 200 200 l 1
400 200 m 1
 550 200 l 1
 550 50 l 1
 400 50 l 1
 400 200 l 1
EndSplineSet
EndChar

StartChar: uA50000
Encoding: 165 10813440 165
Width: 800
VWidth: 0
Flags: HW
LayerCount: 2
Back
Fore
SplineSet
200 1000 m 1
 350 1000 l 1
 350 850 l 1
 200 850 l 1
 200 1000 l 1
400 1000 m 1
 550 1000 l 1
 550 850 l 1
 400 850 l 1
 400 1000 l 1
400 800 m 1
 550 800 l 1
 550 650 l 1
 400 650 l 1
 400 800 l 1
200 600 m 1
 350 600 l 1
 350 450 l 1
 200 450 l 1
 200 600 l 1
0 400 m 1
 150 400 l 1
 150 250 l 1
 0 250 l 1
 0 400 l 1
0 200 m 1
 150 200 l 1
 150 50 l 1
 0 50 l 1
 0 200 l 1
200 200 m 1
 350 200 l 1
 350 50 l 1
 200 50 l 1
 200 200 l 1
400 200 m 1
 550 200 l 1
 550 50 l 1
 400 50 l 1
 400 200 l 1
400 0 m 1
 550 0 l 1
 550 -150 l 1
 400 -150 l 1
 400 0 l 1
0 1000 m 1
 150 1000 l 1
 150 850 l 1
 0 850 l 1
 0 1000 l 1
EndSplineSet
EndChar

StartChar: uA60000
Encoding: 166 10878976 166
Width: 1000
VWidth: 0
Flags: HW
LayerCount: 2
Back
Fore
SplineSet
200 800 m 1
 350 800 l 1
 350 650 l 1
 200 650 l 1
 200 800 l 1
400 800 m 1
 550 800 l 1
 550 650 l 1
 400 650 l 1
 400 800 l 1
200 600 m 1
 350 600 l 1
 350 450 l 1
 200 450 l 1
 200 600 l 1
600 600 m 1
 750 600 l 1
 750 450 l 1
 600 450 l 1
 600 600 l 1
200 400 m 1
 350 400 l 1
 350 250 l 1
 200 250 l 1
 200 400 l 1
600 400 m 1
 750 400 l 1
 750 250 l 1
 600 250 l 1
 600 400 l 1
600 200 m 1
 750 200 l 1
 750 50 l 1
 600 50 l 1
 600 200 l 1
600 0 m 1
 750 0 l 1
 750 -150 l 1
 600 -150 l 1
 600 0 l 1
0 800 m 1
 150 800 l 1
 150 650 l 1
 0 650 l 1
 0 800 l 1
EndSplineSet
EndChar

StartChar: uA70000
Encoding: 167 10944512 167
Width: 1000
VWidth: 0
Flags: HW
LayerCount: 2
Back
Fore
SplineSet
200 1000 m 1
 350 1000 l 1
 350 850 l 1
 200 850 l 1
 200 1000 l 1
400 1000 m 1
 550 1000 l 1
 550 850 l 1
 400 850 l 1
 400 1000 l 1
0 800 m 1
 150 800 l 1
 150 650 l 1
 0 650 l 1
 0 800 l 1
400 800 m 1
 550 800 l 1
 550 650 l 1
 400 650 l 1
 400 800 l 1
200 600 m 1
 350 600 l 1
 350 450 l 1
 200 450 l 1
 200 600 l 1
400 600 m 1
 550 600 l 1
 550 450 l 1
 400 450 l 1
 400 600 l 1
600 600 m 1
 750 600 l 1
 750 450 l 1
 600 450 l 1
 600 600 l 1
0 400 m 1
 150 400 l 1
 150 250 l 1
 0 250 l 1
 0 400 l 1
400 400 m 1
 550 400 l 1
 550 250 l 1
 400 250 l 1
 400 400 l 1
0 200 m 1
 150 200 l 1
 150 50 l 1
 0 50 l 1
 0 200 l 1
200 200 m 1
 350 200 l 1
 350 50 l 1
 200 50 l 1
 200 200 l 1
400 200 m 1
 550 200 l 1
 550 50 l 1
 400 50 l 1
 400 200 l 1
0 1000 m 1
 150 1000 l 1
 150 850 l 1
 0 850 l 1
 0 1000 l 1
EndSplineSet
EndChar

StartChar: uA80000
Encoding: 168 11010048 168
Width: 600
VWidth: 0
Flags: HW
LayerCount: 2
Back
Fore
SplineSet
0 600 m 1
 150 600 l 1
 150 450 l 1
 0 450 l 1
 0 600 l 1
0 400 m 1
 150 400 l 1
 150 250 l 1
 0 250 l 1
 0 400 l 1
0 200 m 1
 150 200 l 1
 150 50 l 1
 0 50 l 1
 0 200 l 1
200 200 m 1
 350 200 l 1
 350 50 l 1
 200 50 l 1
 200 200 l 1
0 800 m 1
 150 800 l 1
 150 650 l 1
 0 650 l 1
 0 800 l 1
EndSplineSet
EndChar

StartChar: uA90000
Encoding: 169 11075584 169
Width: 800
VWidth: 0
Flags: HW
LayerCount: 2
Back
Fore
SplineSet
400 800 m 1
 550 800 l 1
 550 650 l 1
 400 650 l 1
 400 800 l 1
0 600 m 1
 150 600 l 1
 150 450 l 1
 0 450 l 1
 0 600 l 1
200 600 m 1
 350 600 l 1
 350 450 l 1
 200 450 l 1
 200 600 l 1
0 400 m 1
 150 400 l 1
 150 250 l 1
 0 250 l 1
 0 400 l 1
400 400 m 1
 550 400 l 1
 550 250 l 1
 400 250 l 1
 400 400 l 1
0 200 m 1
 150 200 l 1
 150 50 l 1
 0 50 l 1
 0 200 l 1
400 200 m 1
 550 200 l 1
 550 50 l 1
 400 50 l 1
 400 200 l 1
0 800 m 1
 150 800 l 1
 150 650 l 1
 0 650 l 1
 0 800 l 1
EndSplineSet
EndChar

StartChar: uAA0000
Encoding: 170 11141120 170
Width: 800
VWidth: 0
Flags: HW
LayerCount: 2
Back
Fore
SplineSet
200 1000 m 1
 350 1000 l 1
 350 850 l 1
 200 850 l 1
 200 1000 l 1
400 800 m 1
 550 800 l 1
 550 650 l 1
 400 650 l 1
 400 800 l 1
400 600 m 1
 550 600 l 1
 550 450 l 1
 400 450 l 1
 400 600 l 1
200 400 m 1
 350 400 l 1
 350 250 l 1
 200 250 l 1
 200 400 l 1
400 400 m 1
 550 400 l 1
 550 250 l 1
 400 250 l 1
 400 400 l 1
0 200 m 1
 150 200 l 1
 150 50 l 1
 0 50 l 1
 0 200 l 1
400 200 m 1
 550 200 l 1
 550 50 l 1
 400 50 l 1
 400 200 l 1
0 1000 m 1
 150 1000 l 1
 150 850 l 1
 0 850 l 1
 0 1000 l 1
EndSplineSet
EndChar

StartChar: uAB0000
Encoding: 171 11206656 171
Width: 800
VWidth: 0
Flags: HW
LayerCount: 2
Back
Fore
SplineSet
400 800 m 1
 550 800 l 1
 550 650 l 1
 400 650 l 1
 400 800 l 1
0 600 m 1
 150 600 l 1
 150 450 l 1
 0 450 l 1
 0 600 l 1
400 600 m 1
 550 600 l 1
 550 450 l 1
 400 450 l 1
 400 600 l 1
0 400 m 1
 150 400 l 1
 150 250 l 1
 0 250 l 1
 0 400 l 1
400 400 m 1
 550 400 l 1
 550 250 l 1
 400 250 l 1
 400 400 l 1
0 200 m 1
 150 200 l 1
 150 50 l 1
 0 50 l 1
 0 200 l 1
200 200 m 1
 350 200 l 1
 350 50 l 1
 200 50 l 1
 200 200 l 1
400 200 m 1
 550 200 l 1
 550 50 l 1
 400 50 l 1
 400 200 l 1
0 0 m 1
 150 0 l 1
 150 -150 l 1
 0 -150 l 1
 0 0 l 1
0 800 m 1
 150 800 l 1
 150 650 l 1
 0 650 l 1
 0 800 l 1
EndSplineSet
EndChar

StartChar: uAC0000
Encoding: 172 11272192 172
Width: 800
VWidth: 0
Flags: HW
LayerCount: 2
Back
Fore
SplineSet
400 800 m 1
 550 800 l 1
 550 650 l 1
 400 650 l 1
 400 800 l 1
0 600 m 1
 150 600 l 1
 150 450 l 1
 0 450 l 1
 0 600 l 1
400 600 m 1
 550 600 l 1
 550 450 l 1
 400 450 l 1
 400 600 l 1
0 400 m 1
 150 400 l 1
 150 250 l 1
 0 250 l 1
 0 400 l 1
200 400 m 1
 350 400 l 1
 350 250 l 1
 200 250 l 1
 200 400 l 1
0 200 m 1
 150 200 l 1
 150 50 l 1
 0 50 l 1
 0 200 l 1
200 200 m 1
 350 200 l 1
 350 50 l 1
 200 50 l 1
 200 200 l 1
0 800 m 1
 150 800 l 1
 150 650 l 1
 0 650 l 1
 0 800 l 1
EndSplineSet
EndChar

StartChar: uAD0000
Encoding: 173 11337728 173
Width: 800
VWidth: 0
Flags: HW
LayerCount: 2
Back
Fore
SplineSet
200 1000 m 1
 350 1000 l 1
 350 850 l 1
 200 850 l 1
 200 1000 l 1
400 1000 m 1
 550 1000 l 1
 550 850 l 1
 400 850 l 1
 400 1000 l 1
200 800 m 1
 350 800 l 1
 350 650 l 1
 200 650 l 1
 200 800 l 1
0 600 m 1
 150 600 l 1
 150 450 l 1
 0 450 l 1
 0 600 l 1
200 600 m 1
 350 600 l 1
 350 450 l 1
 200 450 l 1
 200 600 l 1
400 600 m 1
 550 600 l 1
 550 450 l 1
 400 450 l 1
 400 600 l 1
200 400 m 1
 350 400 l 1
 350 250 l 1
 200 250 l 1
 200 400 l 1
0 200 m 1
 150 200 l 1
 150 50 l 1
 0 50 l 1
 0 200 l 1
200 200 m 1
 350 200 l 1
 350 50 l 1
 200 50 l 1
 200 200 l 1
400 200 m 1
 550 200 l 1
 550 50 l 1
 400 50 l 1
 400 200 l 1
400 0 m 1
 550 0 l 1
 550 -150 l 1
 400 -150 l 1
 400 0 l 1
0 1000 m 1
 150 1000 l 1
 150 850 l 1
 0 850 l 1
 0 1000 l 1
EndSplineSet
EndChar

StartChar: uAE0000
Encoding: 174 11403264 174
Width: 1200
VWidth: 0
Flags: HW
LayerCount: 2
Back
Fore
SplineSet
200 800 m 1
 350 800 l 1
 350 650 l 1
 200 650 l 1
 200 800 l 1
400 800 m 1
 550 800 l 1
 550 650 l 1
 400 650 l 1
 400 800 l 1
600 800 m 1
 750 800 l 1
 750 650 l 1
 600 650 l 1
 600 800 l 1
0 600 m 1
 150 600 l 1
 150 450 l 1
 0 450 l 1
 0 600 l 1
400 600 m 1
 550 600 l 1
 550 450 l 1
 400 450 l 1
 400 600 l 1
800 600 m 1
 950 600 l 1
 950 450 l 1
 800 450 l 1
 800 600 l 1
0 400 m 1
 150 400 l 1
 150 250 l 1
 0 250 l 1
 0 400 l 1
200 400 m 1
 350 400 l 1
 350 250 l 1
 200 250 l 1
 200 400 l 1
400 400 m 1
 550 400 l 1
 550 250 l 1
 400 250 l 1
 400 400 l 1
600 400 m 1
 750 400 l 1
 750 250 l 1
 600 250 l 1
 600 400 l 1
800 400 m 1
 950 400 l 1
 950 250 l 1
 800 250 l 1
 800 400 l 1
0 200 m 1
 150 200 l 1
 150 50 l 1
 0 50 l 1
 0 200 l 1
400 200 m 1
 550 200 l 1
 550 50 l 1
 400 50 l 1
 400 200 l 1
800 200 m 1
 950 200 l 1
 950 50 l 1
 800 50 l 1
 800 200 l 1
200 0 m 1
 350 0 l 1
 350 -150 l 1
 200 -150 l 1
 200 0 l 1
400 0 m 1
 550 0 l 1
 550 -150 l 1
 400 -150 l 1
 400 0 l 1
600 0 m 1
 750 0 l 1
 750 -150 l 1
 600 -150 l 1
 600 0 l 1
EndSplineSet
EndChar

StartChar: uAF0000
Encoding: 175 11468800 175
Width: 1000
VWidth: 0
Flags: HW
LayerCount: 2
Back
Fore
SplineSet
200 800 m 1
 350 800 l 1
 350 650 l 1
 200 650 l 1
 200 800 l 1
400 800 m 1
 550 800 l 1
 550 650 l 1
 400 650 l 1
 400 800 l 1
600 800 m 1
 750 800 l 1
 750 650 l 1
 600 650 l 1
 600 800 l 1
0 600 m 1
 150 600 l 1
 150 450 l 1
 0 450 l 1
 0 600 l 1
400 600 m 1
 550 600 l 1
 550 450 l 1
 400 450 l 1
 400 600 l 1
0 400 m 1
 150 400 l 1
 150 250 l 1
 0 250 l 1
 0 400 l 1
400 400 m 1
 550 400 l 1
 550 250 l 1
 400 250 l 1
 400 400 l 1
0 200 m 1
 150 200 l 1
 150 50 l 1
 0 50 l 1
 0 200 l 1
400 200 m 1
 550 200 l 1
 550 50 l 1
 400 50 l 1
 400 200 l 1
600 200 m 1
 750 200 l 1
 750 50 l 1
 600 50 l 1
 600 200 l 1
0 800 m 1
 150 800 l 1
 150 650 l 1
 0 650 l 1
 0 800 l 1
EndSplineSet
EndChar

StartChar: uB00000
Encoding: 176 11534336 176
Width: 1000
VWidth: 0
Flags: HW
LayerCount: 2
Back
Fore
SplineSet
400 800 m 1
 550 800 l 1
 550 650 l 1
 400 650 l 1
 400 800 l 1
600 800 m 1
 750 800 l 1
 750 650 l 1
 600 650 l 1
 600 800 l 1
200 600 m 1
 350 600 l 1
 350 450 l 1
 200 450 l 1
 200 600 l 1
600 600 m 1
 750 600 l 1
 750 450 l 1
 600 450 l 1
 600 600 l 1
200 400 m 1
 350 400 l 1
 350 250 l 1
 200 250 l 1
 200 400 l 1
400 400 m 1
 550 400 l 1
 550 250 l 1
 400 250 l 1
 400 400 l 1
600 400 m 1
 750 400 l 1
 750 250 l 1
 600 250 l 1
 600 400 l 1
200 200 m 1
 350 200 l 1
 350 50 l 1
 200 50 l 1
 200 200 l 1
0 0 m 1
 150 0 l 1
 150 -150 l 1
 0 -150 l 1
 0 0 l 1
200 0 m 1
 350 0 l 1
 350 -150 l 1
 200 -150 l 1
 200 0 l 1
EndSplineSet
EndChar

StartChar: uB10000
Encoding: 177 11599872 177
Width: 1000
VWidth: 0
Flags: HW
LayerCount: 2
Back
Fore
SplineSet
200 800 m 1
 350 800 l 1
 350 650 l 1
 200 650 l 1
 200 800 l 1
400 800 m 1
 550 800 l 1
 550 650 l 1
 400 650 l 1
 400 800 l 1
600 800 m 1
 750 800 l 1
 750 650 l 1
 600 650 l 1
 600 800 l 1
0 600 m 1
 150 600 l 1
 150 450 l 1
 0 450 l 1
 0 600 l 1
400 600 m 1
 550 600 l 1
 550 450 l 1
 400 450 l 1
 400 600 l 1
0 400 m 1
 150 400 l 1
 150 250 l 1
 0 250 l 1
 0 400 l 1
400 400 m 1
 550 400 l 1
 550 250 l 1
 400 250 l 1
 400 400 l 1
200 200 m 1
 350 200 l 1
 350 50 l 1
 200 50 l 1
 200 200 l 1
EndSplineSet
EndChar

StartChar: uB20000
Encoding: 178 11665408 178
Width: 800
VWidth: 0
Flags: HW
LayerCount: 2
Back
Fore
SplineSet
200 800 m 1
 350 800 l 1
 350 650 l 1
 200 650 l 1
 200 800 l 1
400 800 m 1
 550 800 l 1
 550 650 l 1
 400 650 l 1
 400 800 l 1
200 600 m 1
 350 600 l 1
 350 450 l 1
 200 450 l 1
 200 600 l 1
200 400 m 1
 350 400 l 1
 350 250 l 1
 200 250 l 1
 200 400 l 1
200 200 m 1
 350 200 l 1
 350 50 l 1
 200 50 l 1
 200 200 l 1
400 200 m 1
 550 200 l 1
 550 50 l 1
 400 50 l 1
 400 200 l 1
0 800 m 1
 150 800 l 1
 150 650 l 1
 0 650 l 1
 0 800 l 1
EndSplineSet
EndChar

StartChar: uB30000
Encoding: 179 11730944 179
Width: 1000
VWidth: 0
Flags: HW
LayerCount: 2
Back
Fore
SplineSet
200 800 m 1
 350 800 l 1
 350 650 l 1
 200 650 l 1
 200 800 l 1
600 800 m 1
 750 800 l 1
 750 650 l 1
 600 650 l 1
 600 800 l 1
200 600 m 1
 350 600 l 1
 350 450 l 1
 200 450 l 1
 200 600 l 1
600 600 m 1
 750 600 l 1
 750 450 l 1
 600 450 l 1
 600 600 l 1
200 400 m 1
 350 400 l 1
 350 250 l 1
 200 250 l 1
 200 400 l 1
600 400 m 1
 750 400 l 1
 750 250 l 1
 600 250 l 1
 600 400 l 1
200 200 m 1
 350 200 l 1
 350 50 l 1
 200 50 l 1
 200 200 l 1
400 200 m 1
 550 200 l 1
 550 50 l 1
 400 50 l 1
 400 200 l 1
0 800 m 1
 150 800 l 1
 150 650 l 1
 0 650 l 1
 0 800 l 1
EndSplineSet
EndChar

StartChar: uB40000
Encoding: 180 11796480 180
Width: 1200
VWidth: 0
Flags: HW
LayerCount: 2
Back
Fore
SplineSet
200 800 m 1
 350 800 l 1
 350 650 l 1
 200 650 l 1
 200 800 l 1
400 800 m 1
 550 800 l 1
 550 650 l 1
 400 650 l 1
 400 800 l 1
600 800 m 1
 750 800 l 1
 750 650 l 1
 600 650 l 1
 600 800 l 1
0 600 m 1
 150 600 l 1
 150 450 l 1
 0 450 l 1
 0 600 l 1
400 600 m 1
 550 600 l 1
 550 450 l 1
 400 450 l 1
 400 600 l 1
800 600 m 1
 950 600 l 1
 950 450 l 1
 800 450 l 1
 800 600 l 1
0 400 m 1
 150 400 l 1
 150 250 l 1
 0 250 l 1
 0 400 l 1
400 400 m 1
 550 400 l 1
 550 250 l 1
 400 250 l 1
 400 400 l 1
800 400 m 1
 950 400 l 1
 950 250 l 1
 800 250 l 1
 800 400 l 1
200 200 m 1
 350 200 l 1
 350 50 l 1
 200 50 l 1
 200 200 l 1
400 200 m 1
 550 200 l 1
 550 50 l 1
 400 50 l 1
 400 200 l 1
600 200 m 1
 750 200 l 1
 750 50 l 1
 600 50 l 1
 600 200 l 1
400 0 m 1
 550 0 l 1
 550 -150 l 1
 400 -150 l 1
 400 0 l 1
EndSplineSet
EndChar

StartChar: uB50000
Encoding: 181 11862016 181
Width: 800
VWidth: 0
Flags: HW
LayerCount: 2
Back
Fore
SplineSet
400 800 m 1
 550 800 l 1
 550 650 l 1
 400 650 l 1
 400 800 l 1
0 600 m 1
 150 600 l 1
 150 450 l 1
 0 450 l 1
 0 600 l 1
400 600 m 1
 550 600 l 1
 550 450 l 1
 400 450 l 1
 400 600 l 1
200 400 m 1
 350 400 l 1
 350 250 l 1
 200 250 l 1
 200 400 l 1
0 200 m 1
 150 200 l 1
 150 50 l 1
 0 50 l 1
 0 200 l 1
400 200 m 1
 550 200 l 1
 550 50 l 1
 400 50 l 1
 400 200 l 1
0 0 m 1
 150 0 l 1
 150 -150 l 1
 0 -150 l 1
 0 0 l 1
400 0 m 1
 550 0 l 1
 550 -150 l 1
 400 -150 l 1
 400 0 l 1
0 800 m 1
 150 800 l 1
 150 650 l 1
 0 650 l 1
 0 800 l 1
EndSplineSet
EndChar

StartChar: uB60000
Encoding: 182 11927552 182
Width: 1200
VWidth: 0
Flags: HW
LayerCount: 2
Back
Fore
SplineSet
400 800 m 1
 550 800 l 1
 550 650 l 1
 400 650 l 1
 400 800 l 1
800 800 m 1
 950 800 l 1
 950 650 l 1
 800 650 l 1
 800 800 l 1
0 600 m 1
 150 600 l 1
 150 450 l 1
 0 450 l 1
 0 600 l 1
400 600 m 1
 550 600 l 1
 550 450 l 1
 400 450 l 1
 400 600 l 1
800 600 m 1
 950 600 l 1
 950 450 l 1
 800 450 l 1
 800 600 l 1
200 400 m 1
 350 400 l 1
 350 250 l 1
 200 250 l 1
 200 400 l 1
400 400 m 1
 550 400 l 1
 550 250 l 1
 400 250 l 1
 400 400 l 1
600 400 m 1
 750 400 l 1
 750 250 l 1
 600 250 l 1
 600 400 l 1
400 200 m 1
 550 200 l 1
 550 50 l 1
 400 50 l 1
 400 200 l 1
400 0 m 1
 550 0 l 1
 550 -150 l 1
 400 -150 l 1
 400 0 l 1
0 800 m 1
 150 800 l 1
 150 650 l 1
 0 650 l 1
 0 800 l 1
EndSplineSet
EndChar

StartChar: uB70000
Encoding: 183 11993088 183
Width: 1200
VWidth: 0
Flags: HW
LayerCount: 2
Back
Fore
SplineSet
200 800 m 1
 350 800 l 1
 350 650 l 1
 200 650 l 1
 200 800 l 1
600 800 m 1
 750 800 l 1
 750 650 l 1
 600 650 l 1
 600 800 l 1
0 600 m 1
 150 600 l 1
 150 450 l 1
 0 450 l 1
 0 600 l 1
800 600 m 1
 950 600 l 1
 950 450 l 1
 800 450 l 1
 800 600 l 1
0 400 m 1
 150 400 l 1
 150 250 l 1
 0 250 l 1
 0 400 l 1
400 400 m 1
 550 400 l 1
 550 250 l 1
 400 250 l 1
 400 400 l 1
800 400 m 1
 950 400 l 1
 950 250 l 1
 800 250 l 1
 800 400 l 1
200 200 m 1
 350 200 l 1
 350 50 l 1
 200 50 l 1
 200 200 l 1
600 200 m 1
 750 200 l 1
 750 50 l 1
 600 50 l 1
 600 200 l 1
EndSplineSet
EndChar

StartChar: uB80000
Encoding: 184 12058624 184
Width: 800
VWidth: 0
Flags: HW
LayerCount: 2
Back
Fore
SplineSet
200 400 m 1
 350 400 l 1
 350 250 l 1
 200 250 l 1
 200 400 l 1
400 400 m 1
 550 400 l 1
 550 250 l 1
 400 250 l 1
 400 400 l 1
0 200 m 1
 150 200 l 1
 150 50 l 1
 0 50 l 1
 0 200 l 1
400 200 m 1
 550 200 l 1
 550 50 l 1
 400 50 l 1
 400 200 l 1
0 0 m 1
 150 0 l 1
 150 -150 l 1
 0 -150 l 1
 0 0 l 1
200 0 m 1
 350 0 l 1
 350 -150 l 1
 200 -150 l 1
 200 0 l 1
400 0 m 1
 550 0 l 1
 550 -150 l 1
 400 -150 l 1
 400 0 l 1
0 400 m 1
 150 400 l 1
 150 250 l 1
 0 250 l 1
 0 400 l 1
EndSplineSet
EndChar

StartChar: uB90000
Encoding: 185 12124160 185
Width: 600
VWidth: 0
Flags: HW
LayerCount: 2
Back
Fore
SplineSet
200 600 m 1
 350 600 l 1
 350 450 l 1
 200 450 l 1
 200 600 l 1
0 400 m 1
 150 400 l 1
 150 250 l 1
 0 250 l 1
 0 400 l 1
200 400 m 1
 350 400 l 1
 350 250 l 1
 200 250 l 1
 200 400 l 1
200 200 m 1
 350 200 l 1
 350 50 l 1
 200 50 l 1
 200 200 l 1
200 0 m 1
 350 0 l 1
 350 -150 l 1
 200 -150 l 1
 200 0 l 1
EndSplineSet
EndChar

StartChar: uBA0000
Encoding: 186 12189696 186
Width: 600
VWidth: 0
Flags: HW
LayerCount: 2
Back
Fore
SplineSet
200 600 m 1
 350 600 l 1
 350 450 l 1
 200 450 l 1
 200 600 l 1
200 400 m 1
 350 400 l 1
 350 250 l 1
 200 250 l 1
 200 400 l 1
0 200 m 1
 150 200 l 1
 150 50 l 1
 0 50 l 1
 0 200 l 1
0 0 m 1
 150 0 l 1
 150 -150 l 1
 0 -150 l 1
 0 0 l 1
200 0 m 1
 350 0 l 1
 350 -150 l 1
 200 -150 l 1
 200 0 l 1
0 600 m 1
 150 600 l 1
 150 450 l 1
 0 450 l 1
 0 600 l 1
EndSplineSet
EndChar

StartChar: uBB0000
Encoding: 187 12255232 187
Width: 600
VWidth: 0
Flags: HW
LayerCount: 2
Back
Fore
SplineSet
200 400 m 1
 350 400 l 1
 350 250 l 1
 200 250 l 1
 200 400 l 1
0 200 m 1
 150 200 l 1
 150 50 l 1
 0 50 l 1
 0 200 l 1
0 0 m 1
 150 0 l 1
 150 -150 l 1
 0 -150 l 1
 0 0 l 1
200 0 m 1
 350 0 l 1
 350 -150 l 1
 200 -150 l 1
 200 0 l 1
0 400 m 1
 150 400 l 1
 150 250 l 1
 0 250 l 1
 0 400 l 1
EndSplineSet
EndChar

StartChar: uBC0000
Encoding: 188 12320768 188
Width: 800
VWidth: 0
Flags: HW
LayerCount: 2
Back
Fore
SplineSet
200 600 m 1
 350 600 l 1
 350 450 l 1
 200 450 l 1
 200 600 l 1
400 600 m 1
 550 600 l 1
 550 450 l 1
 400 450 l 1
 400 600 l 1
0 400 m 1
 150 400 l 1
 150 250 l 1
 0 250 l 1
 0 400 l 1
400 400 m 1
 550 400 l 1
 550 250 l 1
 400 250 l 1
 400 400 l 1
0 200 m 1
 150 200 l 1
 150 50 l 1
 0 50 l 1
 0 200 l 1
200 200 m 1
 350 200 l 1
 350 50 l 1
 200 50 l 1
 200 200 l 1
200 0 m 1
 350 0 l 1
 350 -150 l 1
 200 -150 l 1
 200 0 l 1
400 0 m 1
 550 0 l 1
 550 -150 l 1
 400 -150 l 1
 400 0 l 1
EndSplineSet
EndChar

StartChar: uBD0000
Encoding: 189 12386304 189
Width: 800
VWidth: 0
Flags: HW
LayerCount: 2
Back
Fore
SplineSet
200 200 m 1
 350 200 l 1
 350 50 l 1
 200 50 l 1
 200 200 l 1
400 200 m 1
 550 200 l 1
 550 50 l 1
 400 50 l 1
 400 200 l 1
0 0 m 1
 150 0 l 1
 150 -150 l 1
 0 -150 l 1
 0 0 l 1
400 0 m 1
 550 0 l 1
 550 -150 l 1
 400 -150 l 1
 400 0 l 1
0 200 m 1
 150 200 l 1
 150 50 l 1
 0 50 l 1
 0 200 l 1
EndSplineSet
EndChar

StartChar: uBE0000
Encoding: 190 12451840 190
Width: 800
VWidth: 0
Flags: HW
LayerCount: 2
Back
Fore
SplineSet
200 400 m 1
 350 400 l 1
 350 250 l 1
 200 250 l 1
 200 400 l 1
400 400 m 1
 550 400 l 1
 550 250 l 1
 400 250 l 1
 400 400 l 1
0 200 m 1
 150 200 l 1
 150 50 l 1
 0 50 l 1
 0 200 l 1
200 200 m 1
 350 200 l 1
 350 50 l 1
 200 50 l 1
 200 200 l 1
400 200 m 1
 550 200 l 1
 550 50 l 1
 400 50 l 1
 400 200 l 1
0 0 m 1
 150 0 l 1
 150 -150 l 1
 0 -150 l 1
 0 0 l 1
0 400 m 1
 150 400 l 1
 150 250 l 1
 0 250 l 1
 0 400 l 1
EndSplineSet
EndChar

StartChar: uBF0000
Encoding: 191 12517376 191
Width: 800
VWidth: 0
Flags: HW
LayerCount: 2
Back
Fore
SplineSet
400 200 m 1
 550 200 l 1
 550 50 l 1
 400 50 l 1
 400 200 l 1
0 0 m 1
 150 0 l 1
 150 -150 l 1
 0 -150 l 1
 0 0 l 1
200 0 m 1
 350 0 l 1
 350 -150 l 1
 200 -150 l 1
 200 0 l 1
400 0 m 1
 550 0 l 1
 550 -150 l 1
 400 -150 l 1
 400 0 l 1
0 200 m 1
 150 200 l 1
 150 50 l 1
 0 50 l 1
 0 200 l 1
EndSplineSet
EndChar

StartChar: uC00000
Encoding: 192 12582912 192
Width: 800
VWidth: 0
Flags: HW
LayerCount: 2
Back
Fore
SplineSet
200 1000 m 1
 350 1000 l 1
 350 850 l 1
 200 850 l 1
 200 1000 l 1
0 600 m 1
 150 600 l 1
 150 450 l 1
 0 450 l 1
 0 600 l 1
200 600 m 1
 350 600 l 1
 350 450 l 1
 200 450 l 1
 200 600 l 1
400 600 m 1
 550 600 l 1
 550 450 l 1
 400 450 l 1
 400 600 l 1
0 400 m 1
 150 400 l 1
 150 250 l 1
 0 250 l 1
 0 400 l 1
200 400 m 1
 350 400 l 1
 350 250 l 1
 200 250 l 1
 200 400 l 1
400 400 m 1
 550 400 l 1
 550 250 l 1
 400 250 l 1
 400 400 l 1
0 200 m 1
 150 200 l 1
 150 50 l 1
 0 50 l 1
 0 200 l 1
400 200 m 1
 550 200 l 1
 550 50 l 1
 400 50 l 1
 400 200 l 1
0 1000 m 1
 150 1000 l 1
 150 850 l 1
 0 850 l 1
 0 1000 l 1
EndSplineSet
EndChar

StartChar: uC10000
Encoding: 193 12648448 193
Width: 800
VWidth: 0
Flags: HW
LayerCount: 2
Back
Fore
SplineSet
200 1000 m 1
 350 1000 l 1
 350 850 l 1
 200 850 l 1
 200 1000 l 1
400 1000 m 1
 550 1000 l 1
 550 850 l 1
 400 850 l 1
 400 1000 l 1
0 600 m 1
 150 600 l 1
 150 450 l 1
 0 450 l 1
 0 600 l 1
200 600 m 1
 350 600 l 1
 350 450 l 1
 200 450 l 1
 200 600 l 1
400 600 m 1
 550 600 l 1
 550 450 l 1
 400 450 l 1
 400 600 l 1
0 400 m 1
 150 400 l 1
 150 250 l 1
 0 250 l 1
 0 400 l 1
200 400 m 1
 350 400 l 1
 350 250 l 1
 200 250 l 1
 200 400 l 1
400 400 m 1
 550 400 l 1
 550 250 l 1
 400 250 l 1
 400 400 l 1
0 200 m 1
 150 200 l 1
 150 50 l 1
 0 50 l 1
 0 200 l 1
400 200 m 1
 550 200 l 1
 550 50 l 1
 400 50 l 1
 400 200 l 1
EndSplineSet
EndChar

StartChar: uC20000
Encoding: 194 12713984 194
Width: 800
VWidth: 0
Flags: HW
LayerCount: 2
Back
Fore
SplineSet
200 1000 m 1
 350 1000 l 1
 350 850 l 1
 200 850 l 1
 200 1000 l 1
400 1000 m 1
 550 1000 l 1
 550 850 l 1
 400 850 l 1
 400 1000 l 1
0 600 m 1
 150 600 l 1
 150 450 l 1
 0 450 l 1
 0 600 l 1
200 600 m 1
 350 600 l 1
 350 450 l 1
 200 450 l 1
 200 600 l 1
400 600 m 1
 550 600 l 1
 550 450 l 1
 400 450 l 1
 400 600 l 1
0 400 m 1
 150 400 l 1
 150 250 l 1
 0 250 l 1
 0 400 l 1
200 400 m 1
 350 400 l 1
 350 250 l 1
 200 250 l 1
 200 400 l 1
400 400 m 1
 550 400 l 1
 550 250 l 1
 400 250 l 1
 400 400 l 1
0 200 m 1
 150 200 l 1
 150 50 l 1
 0 50 l 1
 0 200 l 1
400 200 m 1
 550 200 l 1
 550 50 l 1
 400 50 l 1
 400 200 l 1
0 1000 m 1
 150 1000 l 1
 150 850 l 1
 0 850 l 1
 0 1000 l 1
EndSplineSet
EndChar

StartChar: uC30000
Encoding: 195 12779520 195
Width: 800
VWidth: 0
Flags: HW
LayerCount: 2
Back
Fore
SplineSet
400 1000 m 1
 550 1000 l 1
 550 850 l 1
 400 850 l 1
 400 1000 l 1
0 600 m 1
 150 600 l 1
 150 450 l 1
 0 450 l 1
 0 600 l 1
200 600 m 1
 350 600 l 1
 350 450 l 1
 200 450 l 1
 200 600 l 1
400 600 m 1
 550 600 l 1
 550 450 l 1
 400 450 l 1
 400 600 l 1
0 400 m 1
 150 400 l 1
 150 250 l 1
 0 250 l 1
 0 400 l 1
200 400 m 1
 350 400 l 1
 350 250 l 1
 200 250 l 1
 200 400 l 1
400 400 m 1
 550 400 l 1
 550 250 l 1
 400 250 l 1
 400 400 l 1
0 200 m 1
 150 200 l 1
 150 50 l 1
 0 50 l 1
 0 200 l 1
400 200 m 1
 550 200 l 1
 550 50 l 1
 400 50 l 1
 400 200 l 1
0 1000 m 1
 150 1000 l 1
 150 850 l 1
 0 850 l 1
 0 1000 l 1
EndSplineSet
EndChar

StartChar: uC40000
Encoding: 196 12845056 196
Width: 800
VWidth: 0
Flags: HW
LayerCount: 2
Back
Fore
SplineSet
200 1000 m 1
 350 1000 l 1
 350 850 l 1
 200 850 l 1
 200 1000 l 1
0 600 m 1
 150 600 l 1
 150 450 l 1
 0 450 l 1
 0 600 l 1
200 600 m 1
 350 600 l 1
 350 450 l 1
 200 450 l 1
 200 600 l 1
400 600 m 1
 550 600 l 1
 550 450 l 1
 400 450 l 1
 400 600 l 1
0 400 m 1
 150 400 l 1
 150 250 l 1
 0 250 l 1
 0 400 l 1
200 400 m 1
 350 400 l 1
 350 250 l 1
 200 250 l 1
 200 400 l 1
400 400 m 1
 550 400 l 1
 550 250 l 1
 400 250 l 1
 400 400 l 1
0 200 m 1
 150 200 l 1
 150 50 l 1
 0 50 l 1
 0 200 l 1
400 200 m 1
 550 200 l 1
 550 50 l 1
 400 50 l 1
 400 200 l 1
EndSplineSet
EndChar

StartChar: uC50000
Encoding: 197 12910592 197
Width: 800
VWidth: 0
Flags: HW
LayerCount: 2
Back
Fore
SplineSet
200 1000 m 1
 350 1000 l 1
 350 850 l 1
 200 850 l 1
 200 1000 l 1
400 1000 m 1
 550 1000 l 1
 550 850 l 1
 400 850 l 1
 400 1000 l 1
0 600 m 1
 150 600 l 1
 150 450 l 1
 0 450 l 1
 0 600 l 1
200 600 m 1
 350 600 l 1
 350 450 l 1
 200 450 l 1
 200 600 l 1
400 600 m 1
 550 600 l 1
 550 450 l 1
 400 450 l 1
 400 600 l 1
0 400 m 1
 150 400 l 1
 150 250 l 1
 0 250 l 1
 0 400 l 1
0 200 m 1
 150 200 l 1
 150 50 l 1
 0 50 l 1
 0 200 l 1
200 200 m 1
 350 200 l 1
 350 50 l 1
 200 50 l 1
 200 200 l 1
400 200 m 1
 550 200 l 1
 550 50 l 1
 400 50 l 1
 400 200 l 1
EndSplineSet
EndChar

StartChar: uC60000
Encoding: 198 12976128 198
Width: 800
VWidth: 0
Flags: HW
LayerCount: 2
Back
Fore
SplineSet
200 1000 m 1
 350 1000 l 1
 350 850 l 1
 200 850 l 1
 200 1000 l 1
400 1000 m 1
 550 1000 l 1
 550 850 l 1
 400 850 l 1
 400 1000 l 1
0 600 m 1
 150 600 l 1
 150 450 l 1
 0 450 l 1
 0 600 l 1
200 600 m 1
 350 600 l 1
 350 450 l 1
 200 450 l 1
 200 600 l 1
400 600 m 1
 550 600 l 1
 550 450 l 1
 400 450 l 1
 400 600 l 1
0 400 m 1
 150 400 l 1
 150 250 l 1
 0 250 l 1
 0 400 l 1
0 200 m 1
 150 200 l 1
 150 50 l 1
 0 50 l 1
 0 200 l 1
200 200 m 1
 350 200 l 1
 350 50 l 1
 200 50 l 1
 200 200 l 1
400 200 m 1
 550 200 l 1
 550 50 l 1
 400 50 l 1
 400 200 l 1
0 1000 m 1
 150 1000 l 1
 150 850 l 1
 0 850 l 1
 0 1000 l 1
EndSplineSet
EndChar

StartChar: uC70000
Encoding: 199 13041664 199
Width: 800
VWidth: 0
Flags: HW
LayerCount: 2
Back
Fore
SplineSet
200 1000 m 1
 350 1000 l 1
 350 850 l 1
 200 850 l 1
 200 1000 l 1
400 1000 m 1
 550 1000 l 1
 550 850 l 1
 400 850 l 1
 400 1000 l 1
0 800 m 1
 150 800 l 1
 150 650 l 1
 0 650 l 1
 0 800 l 1
0 600 m 1
 150 600 l 1
 150 450 l 1
 0 450 l 1
 0 600 l 1
0 400 m 1
 150 400 l 1
 150 250 l 1
 0 250 l 1
 0 400 l 1
200 200 m 1
 350 200 l 1
 350 50 l 1
 200 50 l 1
 200 200 l 1
400 200 m 1
 550 200 l 1
 550 50 l 1
 400 50 l 1
 400 200 l 1
0 0 m 1
 150 0 l 1
 150 -150 l 1
 0 -150 l 1
 0 0 l 1
200 0 m 1
 350 0 l 1
 350 -150 l 1
 200 -150 l 1
 200 0 l 1
EndSplineSet
EndChar

StartChar: uC80000
Encoding: 200 13107200 200
Width: 800
VWidth: 0
Flags: HW
LayerCount: 2
Back
Fore
SplineSet
200 1000 m 1
 350 1000 l 1
 350 850 l 1
 200 850 l 1
 200 1000 l 1
0 600 m 1
 150 600 l 1
 150 450 l 1
 0 450 l 1
 0 600 l 1
200 600 m 1
 350 600 l 1
 350 450 l 1
 200 450 l 1
 200 600 l 1
400 600 m 1
 550 600 l 1
 550 450 l 1
 400 450 l 1
 400 600 l 1
0 400 m 1
 150 400 l 1
 150 250 l 1
 0 250 l 1
 0 400 l 1
200 400 m 1
 350 400 l 1
 350 250 l 1
 200 250 l 1
 200 400 l 1
0 200 m 1
 150 200 l 1
 150 50 l 1
 0 50 l 1
 0 200 l 1
200 200 m 1
 350 200 l 1
 350 50 l 1
 200 50 l 1
 200 200 l 1
400 200 m 1
 550 200 l 1
 550 50 l 1
 400 50 l 1
 400 200 l 1
0 1000 m 1
 150 1000 l 1
 150 850 l 1
 0 850 l 1
 0 1000 l 1
EndSplineSet
EndChar

StartChar: uC90000
Encoding: 201 13172736 201
Width: 800
VWidth: 0
Flags: HW
LayerCount: 2
Back
Fore
SplineSet
200 1000 m 1
 350 1000 l 1
 350 850 l 1
 200 850 l 1
 200 1000 l 1
400 1000 m 1
 550 1000 l 1
 550 850 l 1
 400 850 l 1
 400 1000 l 1
0 600 m 1
 150 600 l 1
 150 450 l 1
 0 450 l 1
 0 600 l 1
200 600 m 1
 350 600 l 1
 350 450 l 1
 200 450 l 1
 200 600 l 1
400 600 m 1
 550 600 l 1
 550 450 l 1
 400 450 l 1
 400 600 l 1
0 400 m 1
 150 400 l 1
 150 250 l 1
 0 250 l 1
 0 400 l 1
200 400 m 1
 350 400 l 1
 350 250 l 1
 200 250 l 1
 200 400 l 1
0 200 m 1
 150 200 l 1
 150 50 l 1
 0 50 l 1
 0 200 l 1
200 200 m 1
 350 200 l 1
 350 50 l 1
 200 50 l 1
 200 200 l 1
400 200 m 1
 550 200 l 1
 550 50 l 1
 400 50 l 1
 400 200 l 1
EndSplineSet
EndChar

StartChar: uCA0000
Encoding: 202 13238272 202
Width: 800
VWidth: 0
Flags: HW
LayerCount: 2
Back
Fore
SplineSet
200 1000 m 1
 350 1000 l 1
 350 850 l 1
 200 850 l 1
 200 1000 l 1
400 1000 m 1
 550 1000 l 1
 550 850 l 1
 400 850 l 1
 400 1000 l 1
0 600 m 1
 150 600 l 1
 150 450 l 1
 0 450 l 1
 0 600 l 1
200 600 m 1
 350 600 l 1
 350 450 l 1
 200 450 l 1
 200 600 l 1
400 600 m 1
 550 600 l 1
 550 450 l 1
 400 450 l 1
 400 600 l 1
0 400 m 1
 150 400 l 1
 150 250 l 1
 0 250 l 1
 0 400 l 1
200 400 m 1
 350 400 l 1
 350 250 l 1
 200 250 l 1
 200 400 l 1
0 200 m 1
 150 200 l 1
 150 50 l 1
 0 50 l 1
 0 200 l 1
200 200 m 1
 350 200 l 1
 350 50 l 1
 200 50 l 1
 200 200 l 1
400 200 m 1
 550 200 l 1
 550 50 l 1
 400 50 l 1
 400 200 l 1
0 1000 m 1
 150 1000 l 1
 150 850 l 1
 0 850 l 1
 0 1000 l 1
EndSplineSet
EndChar

StartChar: uCB0000
Encoding: 203 13303808 203
Width: 800
VWidth: 0
Flags: HW
LayerCount: 2
Back
Fore
SplineSet
400 1000 m 1
 550 1000 l 1
 550 850 l 1
 400 850 l 1
 400 1000 l 1
0 600 m 1
 150 600 l 1
 150 450 l 1
 0 450 l 1
 0 600 l 1
200 600 m 1
 350 600 l 1
 350 450 l 1
 200 450 l 1
 200 600 l 1
400 600 m 1
 550 600 l 1
 550 450 l 1
 400 450 l 1
 400 600 l 1
0 400 m 1
 150 400 l 1
 150 250 l 1
 0 250 l 1
 0 400 l 1
200 400 m 1
 350 400 l 1
 350 250 l 1
 200 250 l 1
 200 400 l 1
0 200 m 1
 150 200 l 1
 150 50 l 1
 0 50 l 1
 0 200 l 1
200 200 m 1
 350 200 l 1
 350 50 l 1
 200 50 l 1
 200 200 l 1
400 200 m 1
 550 200 l 1
 550 50 l 1
 400 50 l 1
 400 200 l 1
0 1000 m 1
 150 1000 l 1
 150 850 l 1
 0 850 l 1
 0 1000 l 1
EndSplineSet
EndChar

StartChar: uCC0000
Encoding: 204 13369344 204
Width: 600
VWidth: 0
Flags: HW
LayerCount: 2
Back
Fore
SplineSet
200 1000 m 1
 350 1000 l 1
 350 850 l 1
 200 850 l 1
 200 1000 l 1
200 600 m 1
 350 600 l 1
 350 450 l 1
 200 450 l 1
 200 600 l 1
200 400 m 1
 350 400 l 1
 350 250 l 1
 200 250 l 1
 200 400 l 1
200 200 m 1
 350 200 l 1
 350 50 l 1
 200 50 l 1
 200 200 l 1
0 1000 m 1
 150 1000 l 1
 150 850 l 1
 0 850 l 1
 0 1000 l 1
EndSplineSet
EndChar

StartChar: uCD0000
Encoding: 205 13434880 205
Width: 600
VWidth: 0
Flags: HW
LayerCount: 2
Back
Fore
SplineSet
200 1000 m 1
 350 1000 l 1
 350 850 l 1
 200 850 l 1
 200 1000 l 1
0 600 m 1
 150 600 l 1
 150 450 l 1
 0 450 l 1
 0 600 l 1
0 400 m 1
 150 400 l 1
 150 250 l 1
 0 250 l 1
 0 400 l 1
0 200 m 1
 150 200 l 1
 150 50 l 1
 0 50 l 1
 0 200 l 1
0 1000 m 1
 150 1000 l 1
 150 850 l 1
 0 850 l 1
 0 1000 l 1
EndSplineSet
EndChar

StartChar: uCE0000
Encoding: 206 13500416 206
Width: 800
VWidth: 0
Flags: HW
LayerCount: 2
Back
Fore
SplineSet
200 1000 m 1
 350 1000 l 1
 350 850 l 1
 200 850 l 1
 200 1000 l 1
400 1000 m 1
 550 1000 l 1
 550 850 l 1
 400 850 l 1
 400 1000 l 1
200 600 m 1
 350 600 l 1
 350 450 l 1
 200 450 l 1
 200 600 l 1
200 400 m 1
 350 400 l 1
 350 250 l 1
 200 250 l 1
 200 400 l 1
200 200 m 1
 350 200 l 1
 350 50 l 1
 200 50 l 1
 200 200 l 1
0 1000 m 1
 150 1000 l 1
 150 850 l 1
 0 850 l 1
 0 1000 l 1
EndSplineSet
EndChar

StartChar: uCF0000
Encoding: 207 13565952 207
Width: 800
VWidth: 0
Flags: HW
LayerCount: 2
Back
Fore
SplineSet
400 1000 m 1
 550 1000 l 1
 550 850 l 1
 400 850 l 1
 400 1000 l 1
200 600 m 1
 350 600 l 1
 350 450 l 1
 200 450 l 1
 200 600 l 1
200 400 m 1
 350 400 l 1
 350 250 l 1
 200 250 l 1
 200 400 l 1
200 200 m 1
 350 200 l 1
 350 50 l 1
 200 50 l 1
 200 200 l 1
0 1000 m 1
 150 1000 l 1
 150 850 l 1
 0 850 l 1
 0 1000 l 1
EndSplineSet
EndChar

StartChar: uD00000
Encoding: 208 13631488 208
Width: 1000
VWidth: 0
Flags: HW
LayerCount: 2
Back
Fore
SplineSet
200 1000 m 1
 350 1000 l 1
 350 850 l 1
 200 850 l 1
 200 1000 l 1
400 1000 m 1
 550 1000 l 1
 550 850 l 1
 400 850 l 1
 400 1000 l 1
600 1000 m 1
 750 1000 l 1
 750 850 l 1
 600 850 l 1
 600 1000 l 1
0 600 m 1
 150 600 l 1
 150 450 l 1
 0 450 l 1
 0 600 l 1
200 600 m 1
 350 600 l 1
 350 450 l 1
 200 450 l 1
 200 600 l 1
600 600 m 1
 750 600 l 1
 750 450 l 1
 600 450 l 1
 600 600 l 1
0 400 m 1
 150 400 l 1
 150 250 l 1
 0 250 l 1
 0 400 l 1
400 400 m 1
 550 400 l 1
 550 250 l 1
 400 250 l 1
 400 400 l 1
600 400 m 1
 750 400 l 1
 750 250 l 1
 600 250 l 1
 600 400 l 1
0 200 m 1
 150 200 l 1
 150 50 l 1
 0 50 l 1
 0 200 l 1
600 200 m 1
 750 200 l 1
 750 50 l 1
 600 50 l 1
 600 200 l 1
0 1000 m 1
 150 1000 l 1
 150 850 l 1
 0 850 l 1
 0 1000 l 1
EndSplineSet
EndChar

StartChar: uD10000
Encoding: 209 13697024 209
Width: 800
VWidth: 0
Flags: HW
LayerCount: 2
Back
Fore
SplineSet
200 1000 m 1
 350 1000 l 1
 350 850 l 1
 200 850 l 1
 200 1000 l 1
0 600 m 1
 150 600 l 1
 150 450 l 1
 0 450 l 1
 0 600 l 1
200 600 m 1
 350 600 l 1
 350 450 l 1
 200 450 l 1
 200 600 l 1
400 600 m 1
 550 600 l 1
 550 450 l 1
 400 450 l 1
 400 600 l 1
0 400 m 1
 150 400 l 1
 150 250 l 1
 0 250 l 1
 0 400 l 1
400 400 m 1
 550 400 l 1
 550 250 l 1
 400 250 l 1
 400 400 l 1
0 200 m 1
 150 200 l 1
 150 50 l 1
 0 50 l 1
 0 200 l 1
200 200 m 1
 350 200 l 1
 350 50 l 1
 200 50 l 1
 200 200 l 1
400 200 m 1
 550 200 l 1
 550 50 l 1
 400 50 l 1
 400 200 l 1
0 1000 m 1
 150 1000 l 1
 150 850 l 1
 0 850 l 1
 0 1000 l 1
EndSplineSet
EndChar

StartChar: uD20000
Encoding: 210 13762560 210
Width: 800
VWidth: 0
Flags: HW
LayerCount: 2
Back
Fore
SplineSet
200 1000 m 1
 350 1000 l 1
 350 850 l 1
 200 850 l 1
 200 1000 l 1
400 1000 m 1
 550 1000 l 1
 550 850 l 1
 400 850 l 1
 400 1000 l 1
0 600 m 1
 150 600 l 1
 150 450 l 1
 0 450 l 1
 0 600 l 1
200 600 m 1
 350 600 l 1
 350 450 l 1
 200 450 l 1
 200 600 l 1
400 600 m 1
 550 600 l 1
 550 450 l 1
 400 450 l 1
 400 600 l 1
0 400 m 1
 150 400 l 1
 150 250 l 1
 0 250 l 1
 0 400 l 1
400 400 m 1
 550 400 l 1
 550 250 l 1
 400 250 l 1
 400 400 l 1
0 200 m 1
 150 200 l 1
 150 50 l 1
 0 50 l 1
 0 200 l 1
200 200 m 1
 350 200 l 1
 350 50 l 1
 200 50 l 1
 200 200 l 1
400 200 m 1
 550 200 l 1
 550 50 l 1
 400 50 l 1
 400 200 l 1
EndSplineSet
EndChar

StartChar: uD30000
Encoding: 211 13828096 211
Width: 800
VWidth: 0
Flags: HW
LayerCount: 2
Back
Fore
SplineSet
200 1000 m 1
 350 1000 l 1
 350 850 l 1
 200 850 l 1
 200 1000 l 1
400 1000 m 1
 550 1000 l 1
 550 850 l 1
 400 850 l 1
 400 1000 l 1
0 600 m 1
 150 600 l 1
 150 450 l 1
 0 450 l 1
 0 600 l 1
200 600 m 1
 350 600 l 1
 350 450 l 1
 200 450 l 1
 200 600 l 1
400 600 m 1
 550 600 l 1
 550 450 l 1
 400 450 l 1
 400 600 l 1
0 400 m 1
 150 400 l 1
 150 250 l 1
 0 250 l 1
 0 400 l 1
400 400 m 1
 550 400 l 1
 550 250 l 1
 400 250 l 1
 400 400 l 1
0 200 m 1
 150 200 l 1
 150 50 l 1
 0 50 l 1
 0 200 l 1
200 200 m 1
 350 200 l 1
 350 50 l 1
 200 50 l 1
 200 200 l 1
400 200 m 1
 550 200 l 1
 550 50 l 1
 400 50 l 1
 400 200 l 1
0 1000 m 1
 150 1000 l 1
 150 850 l 1
 0 850 l 1
 0 1000 l 1
EndSplineSet
EndChar

StartChar: uD40000
Encoding: 212 13893632 212
Width: 800
VWidth: 0
Flags: HW
LayerCount: 2
Back
Fore
SplineSet
400 1000 m 1
 550 1000 l 1
 550 850 l 1
 400 850 l 1
 400 1000 l 1
0 600 m 1
 150 600 l 1
 150 450 l 1
 0 450 l 1
 0 600 l 1
200 600 m 1
 350 600 l 1
 350 450 l 1
 200 450 l 1
 200 600 l 1
400 600 m 1
 550 600 l 1
 550 450 l 1
 400 450 l 1
 400 600 l 1
0 400 m 1
 150 400 l 1
 150 250 l 1
 0 250 l 1
 0 400 l 1
400 400 m 1
 550 400 l 1
 550 250 l 1
 400 250 l 1
 400 400 l 1
0 200 m 1
 150 200 l 1
 150 50 l 1
 0 50 l 1
 0 200 l 1
200 200 m 1
 350 200 l 1
 350 50 l 1
 200 50 l 1
 200 200 l 1
400 200 m 1
 550 200 l 1
 550 50 l 1
 400 50 l 1
 400 200 l 1
0 1000 m 1
 150 1000 l 1
 150 850 l 1
 0 850 l 1
 0 1000 l 1
EndSplineSet
EndChar

StartChar: uD50000
Encoding: 213 13959168 213
Width: 800
VWidth: 0
Flags: HW
LayerCount: 2
Back
Fore
SplineSet
200 1000 m 1
 350 1000 l 1
 350 850 l 1
 200 850 l 1
 200 1000 l 1
400 1000 m 1
 550 1000 l 1
 550 850 l 1
 400 850 l 1
 400 1000 l 1
0 600 m 1
 150 600 l 1
 150 450 l 1
 0 450 l 1
 0 600 l 1
200 600 m 1
 350 600 l 1
 350 450 l 1
 200 450 l 1
 200 600 l 1
0 400 m 1
 150 400 l 1
 150 250 l 1
 0 250 l 1
 0 400 l 1
200 400 m 1
 350 400 l 1
 350 250 l 1
 200 250 l 1
 200 400 l 1
0 200 m 1
 150 200 l 1
 150 50 l 1
 0 50 l 1
 0 200 l 1
400 200 m 1
 550 200 l 1
 550 50 l 1
 400 50 l 1
 400 200 l 1
0 1000 m 1
 150 1000 l 1
 150 850 l 1
 0 850 l 1
 0 1000 l 1
EndSplineSet
EndChar

StartChar: uD60000
Encoding: 214 14024704 214
Width: 800
VWidth: 0
Flags: HW
LayerCount: 2
Back
Fore
SplineSet
200 1000 m 1
 350 1000 l 1
 350 850 l 1
 200 850 l 1
 200 1000 l 1
400 1000 m 1
 550 1000 l 1
 550 850 l 1
 400 850 l 1
 400 1000 l 1
200 600 m 1
 350 600 l 1
 350 450 l 1
 200 450 l 1
 200 600 l 1
400 600 m 1
 550 600 l 1
 550 450 l 1
 400 450 l 1
 400 600 l 1
200 400 m 1
 350 400 l 1
 350 250 l 1
 200 250 l 1
 200 400 l 1
0 200 m 1
 150 200 l 1
 150 50 l 1
 0 50 l 1
 0 200 l 1
200 200 m 1
 350 200 l 1
 350 50 l 1
 200 50 l 1
 200 200 l 1
0 1000 m 1
 150 1000 l 1
 150 850 l 1
 0 850 l 1
 0 1000 l 1
EndSplineSet
EndChar

StartChar: uD70000
Encoding: 215 14090240 215
Width: 800
VWidth: 0
Flags: HW
LayerCount: 2
Back
Fore
SplineSet
200 400 m 1
 350 400 l 1
 350 250 l 1
 200 250 l 1
 200 400 l 1
400 400 m 1
 550 400 l 1
 550 250 l 1
 400 250 l 1
 400 400 l 1
0 200 m 1
 150 200 l 1
 150 50 l 1
 0 50 l 1
 0 200 l 1
200 200 m 1
 350 200 l 1
 350 50 l 1
 200 50 l 1
 200 200 l 1
400 200 m 1
 550 200 l 1
 550 50 l 1
 400 50 l 1
 400 200 l 1
0 0 m 1
 150 0 l 1
 150 -150 l 1
 0 -150 l 1
 0 0 l 1
400 0 m 1
 550 0 l 1
 550 -150 l 1
 400 -150 l 1
 400 0 l 1
0 400 m 1
 150 400 l 1
 150 250 l 1
 0 250 l 1
 0 400 l 1
EndSplineSet
EndChar

StartChar: uD80000
Encoding: 216 14155776 216
Width: 800
VWidth: 0
Flags: HW
LayerCount: 2
Back
Fore
SplineSet
200 1000 m 1
 350 1000 l 1
 350 850 l 1
 200 850 l 1
 200 1000 l 1
0 600 m 1
 150 600 l 1
 150 450 l 1
 0 450 l 1
 0 600 l 1
400 600 m 1
 550 600 l 1
 550 450 l 1
 400 450 l 1
 400 600 l 1
0 400 m 1
 150 400 l 1
 150 250 l 1
 0 250 l 1
 0 400 l 1
400 400 m 1
 550 400 l 1
 550 250 l 1
 400 250 l 1
 400 400 l 1
0 200 m 1
 150 200 l 1
 150 50 l 1
 0 50 l 1
 0 200 l 1
200 200 m 1
 350 200 l 1
 350 50 l 1
 200 50 l 1
 200 200 l 1
400 200 m 1
 550 200 l 1
 550 50 l 1
 400 50 l 1
 400 200 l 1
0 1000 m 1
 150 1000 l 1
 150 850 l 1
 0 850 l 1
 0 1000 l 1
EndSplineSet
EndChar

StartChar: uD90000
Encoding: 217 14221312 217
Width: 800
VWidth: 0
Flags: HW
LayerCount: 2
Back
Fore
SplineSet
200 1000 m 1
 350 1000 l 1
 350 850 l 1
 200 850 l 1
 200 1000 l 1
400 1000 m 1
 550 1000 l 1
 550 850 l 1
 400 850 l 1
 400 1000 l 1
0 600 m 1
 150 600 l 1
 150 450 l 1
 0 450 l 1
 0 600 l 1
400 600 m 1
 550 600 l 1
 550 450 l 1
 400 450 l 1
 400 600 l 1
0 400 m 1
 150 400 l 1
 150 250 l 1
 0 250 l 1
 0 400 l 1
400 400 m 1
 550 400 l 1
 550 250 l 1
 400 250 l 1
 400 400 l 1
0 200 m 1
 150 200 l 1
 150 50 l 1
 0 50 l 1
 0 200 l 1
200 200 m 1
 350 200 l 1
 350 50 l 1
 200 50 l 1
 200 200 l 1
400 200 m 1
 550 200 l 1
 550 50 l 1
 400 50 l 1
 400 200 l 1
EndSplineSet
EndChar

StartChar: uDA0000
Encoding: 218 14286848 218
Width: 800
VWidth: 0
Flags: HW
LayerCount: 2
Back
Fore
SplineSet
200 1000 m 1
 350 1000 l 1
 350 850 l 1
 200 850 l 1
 200 1000 l 1
400 1000 m 1
 550 1000 l 1
 550 850 l 1
 400 850 l 1
 400 1000 l 1
0 600 m 1
 150 600 l 1
 150 450 l 1
 0 450 l 1
 0 600 l 1
400 600 m 1
 550 600 l 1
 550 450 l 1
 400 450 l 1
 400 600 l 1
0 400 m 1
 150 400 l 1
 150 250 l 1
 0 250 l 1
 0 400 l 1
400 400 m 1
 550 400 l 1
 550 250 l 1
 400 250 l 1
 400 400 l 1
0 200 m 1
 150 200 l 1
 150 50 l 1
 0 50 l 1
 0 200 l 1
200 200 m 1
 350 200 l 1
 350 50 l 1
 200 50 l 1
 200 200 l 1
400 200 m 1
 550 200 l 1
 550 50 l 1
 400 50 l 1
 400 200 l 1
0 1000 m 1
 150 1000 l 1
 150 850 l 1
 0 850 l 1
 0 1000 l 1
EndSplineSet
EndChar

StartChar: uDB0000
Encoding: 219 14352384 219
Width: 800
VWidth: 0
Flags: HW
LayerCount: 2
Back
Fore
SplineSet
400 1000 m 1
 550 1000 l 1
 550 850 l 1
 400 850 l 1
 400 1000 l 1
0 600 m 1
 150 600 l 1
 150 450 l 1
 0 450 l 1
 0 600 l 1
400 600 m 1
 550 600 l 1
 550 450 l 1
 400 450 l 1
 400 600 l 1
0 400 m 1
 150 400 l 1
 150 250 l 1
 0 250 l 1
 0 400 l 1
400 400 m 1
 550 400 l 1
 550 250 l 1
 400 250 l 1
 400 400 l 1
0 200 m 1
 150 200 l 1
 150 50 l 1
 0 50 l 1
 0 200 l 1
200 200 m 1
 350 200 l 1
 350 50 l 1
 200 50 l 1
 200 200 l 1
400 200 m 1
 550 200 l 1
 550 50 l 1
 400 50 l 1
 400 200 l 1
0 1000 m 1
 150 1000 l 1
 150 850 l 1
 0 850 l 1
 0 1000 l 1
EndSplineSet
EndChar

StartChar: uDC0000
Encoding: 220 14417920 220
Width: 800
VWidth: 0
Flags: HW
LayerCount: 2
Back
Fore
SplineSet
200 1000 m 1
 350 1000 l 1
 350 850 l 1
 200 850 l 1
 200 1000 l 1
0 600 m 1
 150 600 l 1
 150 450 l 1
 0 450 l 1
 0 600 l 1
400 600 m 1
 550 600 l 1
 550 450 l 1
 400 450 l 1
 400 600 l 1
0 400 m 1
 150 400 l 1
 150 250 l 1
 0 250 l 1
 0 400 l 1
400 400 m 1
 550 400 l 1
 550 250 l 1
 400 250 l 1
 400 400 l 1
0 200 m 1
 150 200 l 1
 150 50 l 1
 0 50 l 1
 0 200 l 1
200 200 m 1
 350 200 l 1
 350 50 l 1
 200 50 l 1
 200 200 l 1
400 200 m 1
 550 200 l 1
 550 50 l 1
 400 50 l 1
 400 200 l 1
EndSplineSet
EndChar

StartChar: uDD0000
Encoding: 221 14483456 221
Width: 800
VWidth: 0
Flags: HW
LayerCount: 2
Back
Fore
SplineSet
200 1000 m 1
 350 1000 l 1
 350 850 l 1
 200 850 l 1
 200 1000 l 1
400 1000 m 1
 550 1000 l 1
 550 850 l 1
 400 850 l 1
 400 1000 l 1
0 600 m 1
 150 600 l 1
 150 450 l 1
 0 450 l 1
 0 600 l 1
400 600 m 1
 550 600 l 1
 550 450 l 1
 400 450 l 1
 400 600 l 1
200 400 m 1
 350 400 l 1
 350 250 l 1
 200 250 l 1
 200 400 l 1
200 200 m 1
 350 200 l 1
 350 50 l 1
 200 50 l 1
 200 200 l 1
EndSplineSet
EndChar

StartChar: uDE0000
Encoding: 222 14548992 222
Width: 800
VWidth: 0
Flags: HW
LayerCount: 2
Back
Fore
SplineSet
400 1000 m 1
 550 1000 l 1
 550 850 l 1
 400 850 l 1
 400 1000 l 1
0 600 m 1
 150 600 l 1
 150 450 l 1
 0 450 l 1
 0 600 l 1
400 600 m 1
 550 600 l 1
 550 450 l 1
 400 450 l 1
 400 600 l 1
200 400 m 1
 350 400 l 1
 350 250 l 1
 200 250 l 1
 200 400 l 1
200 200 m 1
 350 200 l 1
 350 50 l 1
 200 50 l 1
 200 200 l 1
0 1000 m 1
 150 1000 l 1
 150 850 l 1
 0 850 l 1
 0 1000 l 1
EndSplineSet
EndChar

StartChar: uDF0000
Encoding: 223 14614528 223
Width: 800
VWidth: 0
Flags: HW
LayerCount: 2
Back
Fore
SplineSet
200 1000 m 1
 350 1000 l 1
 350 850 l 1
 200 850 l 1
 200 1000 l 1
400 1000 m 1
 550 1000 l 1
 550 850 l 1
 400 850 l 1
 400 1000 l 1
0 600 m 1
 150 600 l 1
 150 450 l 1
 0 450 l 1
 0 600 l 1
200 600 m 1
 350 600 l 1
 350 450 l 1
 200 450 l 1
 200 600 l 1
200 400 m 1
 350 400 l 1
 350 250 l 1
 200 250 l 1
 200 400 l 1
200 200 m 1
 350 200 l 1
 350 50 l 1
 200 50 l 1
 200 200 l 1
400 200 m 1
 550 200 l 1
 550 50 l 1
 400 50 l 1
 400 200 l 1
0 1000 m 1
 150 1000 l 1
 150 850 l 1
 0 850 l 1
 0 1000 l 1
EndSplineSet
EndChar

StartChar: uE00000
Encoding: 224 14680064 224
Width: 800
VWidth: 0
Flags: HW
LayerCount: 2
Back
Fore
SplineSet
200 1000 m 1
 350 1000 l 1
 350 850 l 1
 200 850 l 1
 200 1000 l 1
200 600 m 1
 350 600 l 1
 350 450 l 1
 200 450 l 1
 200 600 l 1
400 600 m 1
 550 600 l 1
 550 450 l 1
 400 450 l 1
 400 600 l 1
0 400 m 1
 150 400 l 1
 150 250 l 1
 0 250 l 1
 0 400 l 1
400 400 m 1
 550 400 l 1
 550 250 l 1
 400 250 l 1
 400 400 l 1
200 200 m 1
 350 200 l 1
 350 50 l 1
 200 50 l 1
 200 200 l 1
400 200 m 1
 550 200 l 1
 550 50 l 1
 400 50 l 1
 400 200 l 1
0 1000 m 1
 150 1000 l 1
 150 850 l 1
 0 850 l 1
 0 1000 l 1
EndSplineSet
EndChar

StartChar: uE10000
Encoding: 225 14745600 225
Width: 800
VWidth: 0
Flags: HW
LayerCount: 2
Back
Fore
SplineSet
200 1000 m 1
 350 1000 l 1
 350 850 l 1
 200 850 l 1
 200 1000 l 1
400 1000 m 1
 550 1000 l 1
 550 850 l 1
 400 850 l 1
 400 1000 l 1
200 600 m 1
 350 600 l 1
 350 450 l 1
 200 450 l 1
 200 600 l 1
400 600 m 1
 550 600 l 1
 550 450 l 1
 400 450 l 1
 400 600 l 1
0 400 m 1
 150 400 l 1
 150 250 l 1
 0 250 l 1
 0 400 l 1
400 400 m 1
 550 400 l 1
 550 250 l 1
 400 250 l 1
 400 400 l 1
200 200 m 1
 350 200 l 1
 350 50 l 1
 200 50 l 1
 200 200 l 1
400 200 m 1
 550 200 l 1
 550 50 l 1
 400 50 l 1
 400 200 l 1
EndSplineSet
EndChar

StartChar: uE20000
Encoding: 226 14811136 226
Width: 800
VWidth: 0
Flags: HW
LayerCount: 2
Back
Fore
SplineSet
200 1000 m 1
 350 1000 l 1
 350 850 l 1
 200 850 l 1
 200 1000 l 1
400 1000 m 1
 550 1000 l 1
 550 850 l 1
 400 850 l 1
 400 1000 l 1
200 600 m 1
 350 600 l 1
 350 450 l 1
 200 450 l 1
 200 600 l 1
400 600 m 1
 550 600 l 1
 550 450 l 1
 400 450 l 1
 400 600 l 1
0 400 m 1
 150 400 l 1
 150 250 l 1
 0 250 l 1
 0 400 l 1
400 400 m 1
 550 400 l 1
 550 250 l 1
 400 250 l 1
 400 400 l 1
200 200 m 1
 350 200 l 1
 350 50 l 1
 200 50 l 1
 200 200 l 1
400 200 m 1
 550 200 l 1
 550 50 l 1
 400 50 l 1
 400 200 l 1
0 1000 m 1
 150 1000 l 1
 150 850 l 1
 0 850 l 1
 0 1000 l 1
EndSplineSet
EndChar

StartChar: uE30000
Encoding: 227 14876672 227
Width: 800
VWidth: 0
Flags: HW
LayerCount: 2
Back
Fore
SplineSet
400 1000 m 1
 550 1000 l 1
 550 850 l 1
 400 850 l 1
 400 1000 l 1
200 600 m 1
 350 600 l 1
 350 450 l 1
 200 450 l 1
 200 600 l 1
400 600 m 1
 550 600 l 1
 550 450 l 1
 400 450 l 1
 400 600 l 1
0 400 m 1
 150 400 l 1
 150 250 l 1
 0 250 l 1
 0 400 l 1
400 400 m 1
 550 400 l 1
 550 250 l 1
 400 250 l 1
 400 400 l 1
200 200 m 1
 350 200 l 1
 350 50 l 1
 200 50 l 1
 200 200 l 1
400 200 m 1
 550 200 l 1
 550 50 l 1
 400 50 l 1
 400 200 l 1
0 1000 m 1
 150 1000 l 1
 150 850 l 1
 0 850 l 1
 0 1000 l 1
EndSplineSet
EndChar

StartChar: uE40000
Encoding: 228 14942208 228
Width: 800
VWidth: 0
Flags: HW
LayerCount: 2
Back
Fore
SplineSet
200 1000 m 1
 350 1000 l 1
 350 850 l 1
 200 850 l 1
 200 1000 l 1
200 600 m 1
 350 600 l 1
 350 450 l 1
 200 450 l 1
 200 600 l 1
400 600 m 1
 550 600 l 1
 550 450 l 1
 400 450 l 1
 400 600 l 1
0 400 m 1
 150 400 l 1
 150 250 l 1
 0 250 l 1
 0 400 l 1
400 400 m 1
 550 400 l 1
 550 250 l 1
 400 250 l 1
 400 400 l 1
200 200 m 1
 350 200 l 1
 350 50 l 1
 200 50 l 1
 200 200 l 1
400 200 m 1
 550 200 l 1
 550 50 l 1
 400 50 l 1
 400 200 l 1
EndSplineSet
EndChar

StartChar: uE50000
Encoding: 229 15007744 229
Width: 800
VWidth: 0
Flags: HW
LayerCount: 2
Back
Fore
SplineSet
200 1000 m 1
 350 1000 l 1
 350 850 l 1
 200 850 l 1
 200 1000 l 1
400 1000 m 1
 550 1000 l 1
 550 850 l 1
 400 850 l 1
 400 1000 l 1
0 600 m 1
 150 600 l 1
 150 450 l 1
 0 450 l 1
 0 600 l 1
200 600 m 1
 350 600 l 1
 350 450 l 1
 200 450 l 1
 200 600 l 1
400 600 m 1
 550 600 l 1
 550 450 l 1
 400 450 l 1
 400 600 l 1
0 400 m 1
 150 400 l 1
 150 250 l 1
 0 250 l 1
 0 400 l 1
200 200 m 1
 350 200 l 1
 350 50 l 1
 200 50 l 1
 200 200 l 1
400 200 m 1
 550 200 l 1
 550 50 l 1
 400 50 l 1
 400 200 l 1
EndSplineSet
EndChar

StartChar: uE60000
Encoding: 230 15073280 230
Width: 800
VWidth: 0
Flags: HW
LayerCount: 2
Back
Fore
SplineSet
200 1000 m 1
 350 1000 l 1
 350 850 l 1
 200 850 l 1
 200 1000 l 1
400 1000 m 1
 550 1000 l 1
 550 850 l 1
 400 850 l 1
 400 1000 l 1
0 600 m 1
 150 600 l 1
 150 450 l 1
 0 450 l 1
 0 600 l 1
200 600 m 1
 350 600 l 1
 350 450 l 1
 200 450 l 1
 200 600 l 1
400 600 m 1
 550 600 l 1
 550 450 l 1
 400 450 l 1
 400 600 l 1
0 400 m 1
 150 400 l 1
 150 250 l 1
 0 250 l 1
 0 400 l 1
200 200 m 1
 350 200 l 1
 350 50 l 1
 200 50 l 1
 200 200 l 1
400 200 m 1
 550 200 l 1
 550 50 l 1
 400 50 l 1
 400 200 l 1
0 1000 m 1
 150 1000 l 1
 150 850 l 1
 0 850 l 1
 0 1000 l 1
EndSplineSet
EndChar

StartChar: uE70000
Encoding: 231 15138816 231
Width: 800
VWidth: 0
Flags: HW
LayerCount: 2
Back
Fore
SplineSet
200 800 m 1
 350 800 l 1
 350 650 l 1
 200 650 l 1
 200 800 l 1
400 800 m 1
 550 800 l 1
 550 650 l 1
 400 650 l 1
 400 800 l 1
0 600 m 1
 150 600 l 1
 150 450 l 1
 0 450 l 1
 0 600 l 1
0 400 m 1
 150 400 l 1
 150 250 l 1
 0 250 l 1
 0 400 l 1
200 200 m 1
 350 200 l 1
 350 50 l 1
 200 50 l 1
 200 200 l 1
400 200 m 1
 550 200 l 1
 550 50 l 1
 400 50 l 1
 400 200 l 1
0 0 m 1
 150 0 l 1
 150 -150 l 1
 0 -150 l 1
 0 0 l 1
200 0 m 1
 350 0 l 1
 350 -150 l 1
 200 -150 l 1
 200 0 l 1
EndSplineSet
EndChar

StartChar: uE80000
Encoding: 232 15204352 232
Width: 800
VWidth: 0
Flags: HW
LayerCount: 2
Back
Fore
SplineSet
200 1000 m 1
 350 1000 l 1
 350 850 l 1
 200 850 l 1
 200 1000 l 1
0 600 m 1
 150 600 l 1
 150 450 l 1
 0 450 l 1
 0 600 l 1
200 600 m 1
 350 600 l 1
 350 450 l 1
 200 450 l 1
 200 600 l 1
400 600 m 1
 550 600 l 1
 550 450 l 1
 400 450 l 1
 400 600 l 1
0 400 m 1
 150 400 l 1
 150 250 l 1
 0 250 l 1
 0 400 l 1
200 400 m 1
 350 400 l 1
 350 250 l 1
 200 250 l 1
 200 400 l 1
200 200 m 1
 350 200 l 1
 350 50 l 1
 200 50 l 1
 200 200 l 1
400 200 m 1
 550 200 l 1
 550 50 l 1
 400 50 l 1
 400 200 l 1
0 1000 m 1
 150 1000 l 1
 150 850 l 1
 0 850 l 1
 0 1000 l 1
EndSplineSet
EndChar

StartChar: uE90000
Encoding: 233 15269888 233
Width: 800
VWidth: 0
Flags: HW
LayerCount: 2
Back
Fore
SplineSet
200 1000 m 1
 350 1000 l 1
 350 850 l 1
 200 850 l 1
 200 1000 l 1
400 1000 m 1
 550 1000 l 1
 550 850 l 1
 400 850 l 1
 400 1000 l 1
0 600 m 1
 150 600 l 1
 150 450 l 1
 0 450 l 1
 0 600 l 1
200 600 m 1
 350 600 l 1
 350 450 l 1
 200 450 l 1
 200 600 l 1
400 600 m 1
 550 600 l 1
 550 450 l 1
 400 450 l 1
 400 600 l 1
0 400 m 1
 150 400 l 1
 150 250 l 1
 0 250 l 1
 0 400 l 1
200 400 m 1
 350 400 l 1
 350 250 l 1
 200 250 l 1
 200 400 l 1
200 200 m 1
 350 200 l 1
 350 50 l 1
 200 50 l 1
 200 200 l 1
400 200 m 1
 550 200 l 1
 550 50 l 1
 400 50 l 1
 400 200 l 1
EndSplineSet
EndChar

StartChar: uEA0000
Encoding: 234 15335424 234
Width: 800
VWidth: 0
Flags: HW
LayerCount: 2
Back
Fore
SplineSet
200 1000 m 1
 350 1000 l 1
 350 850 l 1
 200 850 l 1
 200 1000 l 1
400 1000 m 1
 550 1000 l 1
 550 850 l 1
 400 850 l 1
 400 1000 l 1
0 600 m 1
 150 600 l 1
 150 450 l 1
 0 450 l 1
 0 600 l 1
200 600 m 1
 350 600 l 1
 350 450 l 1
 200 450 l 1
 200 600 l 1
400 600 m 1
 550 600 l 1
 550 450 l 1
 400 450 l 1
 400 600 l 1
0 400 m 1
 150 400 l 1
 150 250 l 1
 0 250 l 1
 0 400 l 1
200 400 m 1
 350 400 l 1
 350 250 l 1
 200 250 l 1
 200 400 l 1
200 200 m 1
 350 200 l 1
 350 50 l 1
 200 50 l 1
 200 200 l 1
400 200 m 1
 550 200 l 1
 550 50 l 1
 400 50 l 1
 400 200 l 1
0 1000 m 1
 150 1000 l 1
 150 850 l 1
 0 850 l 1
 0 1000 l 1
EndSplineSet
EndChar

StartChar: uEB0000
Encoding: 235 15400960 235
Width: 800
VWidth: 0
Flags: HW
LayerCount: 2
Back
Fore
SplineSet
400 1000 m 1
 550 1000 l 1
 550 850 l 1
 400 850 l 1
 400 1000 l 1
0 600 m 1
 150 600 l 1
 150 450 l 1
 0 450 l 1
 0 600 l 1
200 600 m 1
 350 600 l 1
 350 450 l 1
 200 450 l 1
 200 600 l 1
400 600 m 1
 550 600 l 1
 550 450 l 1
 400 450 l 1
 400 600 l 1
0 400 m 1
 150 400 l 1
 150 250 l 1
 0 250 l 1
 0 400 l 1
200 400 m 1
 350 400 l 1
 350 250 l 1
 200 250 l 1
 200 400 l 1
200 200 m 1
 350 200 l 1
 350 50 l 1
 200 50 l 1
 200 200 l 1
400 200 m 1
 550 200 l 1
 550 50 l 1
 400 50 l 1
 400 200 l 1
0 1000 m 1
 150 1000 l 1
 150 850 l 1
 0 850 l 1
 0 1000 l 1
EndSplineSet
EndChar

StartChar: uEC0000
Encoding: 236 15466496 236
Width: 800
VWidth: 0
Flags: HW
LayerCount: 2
Back
Fore
SplineSet
200 1000 m 1
 350 1000 l 1
 350 850 l 1
 200 850 l 1
 200 1000 l 1
200 600 m 1
 350 600 l 1
 350 450 l 1
 200 450 l 1
 200 600 l 1
200 400 m 1
 350 400 l 1
 350 250 l 1
 200 250 l 1
 200 400 l 1
200 200 m 1
 350 200 l 1
 350 50 l 1
 200 50 l 1
 200 200 l 1
400 200 m 1
 550 200 l 1
 550 50 l 1
 400 50 l 1
 400 200 l 1
0 1000 m 1
 150 1000 l 1
 150 850 l 1
 0 850 l 1
 0 1000 l 1
EndSplineSet
EndChar

StartChar: uED0000
Encoding: 237 15532032 237
Width: 600
VWidth: 0
Flags: HW
LayerCount: 2
Back
Fore
SplineSet
200 1000 m 1
 350 1000 l 1
 350 850 l 1
 200 850 l 1
 200 1000 l 1
0 600 m 1
 150 600 l 1
 150 450 l 1
 0 450 l 1
 0 600 l 1
0 400 m 1
 150 400 l 1
 150 250 l 1
 0 250 l 1
 0 400 l 1
0 200 m 1
 150 200 l 1
 150 50 l 1
 0 50 l 1
 0 200 l 1
200 200 m 1
 350 200 l 1
 350 50 l 1
 200 50 l 1
 200 200 l 1
0 1000 m 1
 150 1000 l 1
 150 850 l 1
 0 850 l 1
 0 1000 l 1
EndSplineSet
EndChar

StartChar: uEE0000
Encoding: 238 15597568 238
Width: 800
VWidth: 0
Flags: HW
LayerCount: 2
Back
Fore
SplineSet
200 1000 m 1
 350 1000 l 1
 350 850 l 1
 200 850 l 1
 200 1000 l 1
400 1000 m 1
 550 1000 l 1
 550 850 l 1
 400 850 l 1
 400 1000 l 1
200 600 m 1
 350 600 l 1
 350 450 l 1
 200 450 l 1
 200 600 l 1
200 400 m 1
 350 400 l 1
 350 250 l 1
 200 250 l 1
 200 400 l 1
200 200 m 1
 350 200 l 1
 350 50 l 1
 200 50 l 1
 200 200 l 1
400 200 m 1
 550 200 l 1
 550 50 l 1
 400 50 l 1
 400 200 l 1
0 1000 m 1
 150 1000 l 1
 150 850 l 1
 0 850 l 1
 0 1000 l 1
EndSplineSet
EndChar

StartChar: uEF0000
Encoding: 239 15663104 239
Width: 800
VWidth: 0
Flags: HW
LayerCount: 2
Back
Fore
SplineSet
400 1000 m 1
 550 1000 l 1
 550 850 l 1
 400 850 l 1
 400 1000 l 1
200 600 m 1
 350 600 l 1
 350 450 l 1
 200 450 l 1
 200 600 l 1
200 400 m 1
 350 400 l 1
 350 250 l 1
 200 250 l 1
 200 400 l 1
200 200 m 1
 350 200 l 1
 350 50 l 1
 200 50 l 1
 200 200 l 1
400 200 m 1
 550 200 l 1
 550 50 l 1
 400 50 l 1
 400 200 l 1
0 1000 m 1
 150 1000 l 1
 150 850 l 1
 0 850 l 1
 0 1000 l 1
EndSplineSet
EndChar

StartChar: uF00000
Encoding: 240 15728640 240
Width: 800
VWidth: 0
Flags: HW
LayerCount: 2
Back
Fore
SplineSet
200 1000 m 1
 350 1000 l 1
 350 850 l 1
 200 850 l 1
 200 1000 l 1
400 1000 m 1
 550 1000 l 1
 550 850 l 1
 400 850 l 1
 400 1000 l 1
0 600 m 1
 150 600 l 1
 150 450 l 1
 0 450 l 1
 0 600 l 1
200 600 m 1
 350 600 l 1
 350 450 l 1
 200 450 l 1
 200 600 l 1
0 400 m 1
 150 400 l 1
 150 250 l 1
 0 250 l 1
 0 400 l 1
400 400 m 1
 550 400 l 1
 550 250 l 1
 400 250 l 1
 400 400 l 1
0 200 m 1
 150 200 l 1
 150 50 l 1
 0 50 l 1
 0 200 l 1
400 200 m 1
 550 200 l 1
 550 50 l 1
 400 50 l 1
 400 200 l 1
0 1000 m 1
 150 1000 l 1
 150 850 l 1
 0 850 l 1
 0 1000 l 1
EndSplineSet
EndChar

StartChar: uF10000
Encoding: 241 15794176 241
Width: 800
VWidth: 0
Flags: HW
LayerCount: 2
Back
Fore
SplineSet
200 1000 m 1
 350 1000 l 1
 350 850 l 1
 200 850 l 1
 200 1000 l 1
0 600 m 1
 150 600 l 1
 150 450 l 1
 0 450 l 1
 0 600 l 1
200 600 m 1
 350 600 l 1
 350 450 l 1
 200 450 l 1
 200 600 l 1
0 400 m 1
 150 400 l 1
 150 250 l 1
 0 250 l 1
 0 400 l 1
400 400 m 1
 550 400 l 1
 550 250 l 1
 400 250 l 1
 400 400 l 1
200 200 m 1
 350 200 l 1
 350 50 l 1
 200 50 l 1
 200 200 l 1
400 200 m 1
 550 200 l 1
 550 50 l 1
 400 50 l 1
 400 200 l 1
0 1000 m 1
 150 1000 l 1
 150 850 l 1
 0 850 l 1
 0 1000 l 1
EndSplineSet
EndChar

StartChar: uF20000
Encoding: 242 15859712 242
Width: 800
VWidth: 0
Flags: HW
LayerCount: 2
Back
Fore
SplineSet
200 1000 m 1
 350 1000 l 1
 350 850 l 1
 200 850 l 1
 200 1000 l 1
400 1000 m 1
 550 1000 l 1
 550 850 l 1
 400 850 l 1
 400 1000 l 1
0 600 m 1
 150 600 l 1
 150 450 l 1
 0 450 l 1
 0 600 l 1
200 600 m 1
 350 600 l 1
 350 450 l 1
 200 450 l 1
 200 600 l 1
0 400 m 1
 150 400 l 1
 150 250 l 1
 0 250 l 1
 0 400 l 1
400 400 m 1
 550 400 l 1
 550 250 l 1
 400 250 l 1
 400 400 l 1
200 200 m 1
 350 200 l 1
 350 50 l 1
 200 50 l 1
 200 200 l 1
400 200 m 1
 550 200 l 1
 550 50 l 1
 400 50 l 1
 400 200 l 1
EndSplineSet
EndChar

StartChar: uF30000
Encoding: 243 15925248 243
Width: 800
VWidth: 0
Flags: HW
LayerCount: 2
Back
Fore
SplineSet
200 1000 m 1
 350 1000 l 1
 350 850 l 1
 200 850 l 1
 200 1000 l 1
400 1000 m 1
 550 1000 l 1
 550 850 l 1
 400 850 l 1
 400 1000 l 1
0 600 m 1
 150 600 l 1
 150 450 l 1
 0 450 l 1
 0 600 l 1
200 600 m 1
 350 600 l 1
 350 450 l 1
 200 450 l 1
 200 600 l 1
0 400 m 1
 150 400 l 1
 150 250 l 1
 0 250 l 1
 0 400 l 1
400 400 m 1
 550 400 l 1
 550 250 l 1
 400 250 l 1
 400 400 l 1
200 200 m 1
 350 200 l 1
 350 50 l 1
 200 50 l 1
 200 200 l 1
400 200 m 1
 550 200 l 1
 550 50 l 1
 400 50 l 1
 400 200 l 1
0 1000 m 1
 150 1000 l 1
 150 850 l 1
 0 850 l 1
 0 1000 l 1
EndSplineSet
EndChar

StartChar: uF40000
Encoding: 244 15990784 244
Width: 800
VWidth: 0
Flags: HW
LayerCount: 2
Back
Fore
SplineSet
400 1000 m 1
 550 1000 l 1
 550 850 l 1
 400 850 l 1
 400 1000 l 1
0 600 m 1
 150 600 l 1
 150 450 l 1
 0 450 l 1
 0 600 l 1
200 600 m 1
 350 600 l 1
 350 450 l 1
 200 450 l 1
 200 600 l 1
0 400 m 1
 150 400 l 1
 150 250 l 1
 0 250 l 1
 0 400 l 1
400 400 m 1
 550 400 l 1
 550 250 l 1
 400 250 l 1
 400 400 l 1
200 200 m 1
 350 200 l 1
 350 50 l 1
 200 50 l 1
 200 200 l 1
400 200 m 1
 550 200 l 1
 550 50 l 1
 400 50 l 1
 400 200 l 1
0 1000 m 1
 150 1000 l 1
 150 850 l 1
 0 850 l 1
 0 1000 l 1
EndSplineSet
EndChar

StartChar: uF50000
Encoding: 245 16056320 245
Width: 800
VWidth: 0
Flags: HW
LayerCount: 2
Back
Fore
SplineSet
200 1000 m 1
 350 1000 l 1
 350 850 l 1
 200 850 l 1
 200 1000 l 1
400 1000 m 1
 550 1000 l 1
 550 850 l 1
 400 850 l 1
 400 1000 l 1
200 600 m 1
 350 600 l 1
 350 450 l 1
 200 450 l 1
 200 600 l 1
400 600 m 1
 550 600 l 1
 550 450 l 1
 400 450 l 1
 400 600 l 1
0 400 m 1
 150 400 l 1
 150 250 l 1
 0 250 l 1
 0 400 l 1
0 200 m 1
 150 200 l 1
 150 50 l 1
 0 50 l 1
 0 200 l 1
0 1000 m 1
 150 1000 l 1
 150 850 l 1
 0 850 l 1
 0 1000 l 1
EndSplineSet
EndChar

StartChar: uF60000
Encoding: 246 16121856 246
Width: 800
VWidth: 0
Flags: HW
LayerCount: 2
Back
Fore
SplineSet
200 1000 m 1
 350 1000 l 1
 350 850 l 1
 200 850 l 1
 200 1000 l 1
400 1000 m 1
 550 1000 l 1
 550 850 l 1
 400 850 l 1
 400 1000 l 1
200 600 m 1
 350 600 l 1
 350 450 l 1
 200 450 l 1
 200 600 l 1
400 600 m 1
 550 600 l 1
 550 450 l 1
 400 450 l 1
 400 600 l 1
200 400 m 1
 350 400 l 1
 350 250 l 1
 200 250 l 1
 200 400 l 1
0 200 m 1
 150 200 l 1
 150 50 l 1
 0 50 l 1
 0 200 l 1
200 200 m 1
 350 200 l 1
 350 50 l 1
 200 50 l 1
 200 200 l 1
0 1000 m 1
 150 1000 l 1
 150 850 l 1
 0 850 l 1
 0 1000 l 1
EndSplineSet
EndChar

StartChar: uF70000
Encoding: 247 16187392 247
Width: 800
VWidth: 0
Flags: HW
LayerCount: 2
Back
Fore
SplineSet
400 400 m 1
 550 400 l 1
 550 250 l 1
 400 250 l 1
 400 400 l 1
0 200 m 1
 150 200 l 1
 150 50 l 1
 0 50 l 1
 0 200 l 1
200 200 m 1
 350 200 l 1
 350 50 l 1
 200 50 l 1
 200 200 l 1
0 0 m 1
 150 0 l 1
 150 -150 l 1
 0 -150 l 1
 0 0 l 1
400 0 m 1
 550 0 l 1
 550 -150 l 1
 400 -150 l 1
 400 0 l 1
0 400 m 1
 150 400 l 1
 150 250 l 1
 0 250 l 1
 0 400 l 1
EndSplineSet
EndChar

StartChar: uF80000
Encoding: 248 16252928 248
Width: 800
VWidth: 0
Flags: HW
LayerCount: 2
Back
Fore
SplineSet
200 1000 m 1
 350 1000 l 1
 350 850 l 1
 200 850 l 1
 200 1000 l 1
0 600 m 1
 150 600 l 1
 150 450 l 1
 0 450 l 1
 0 600 l 1
400 600 m 1
 550 600 l 1
 550 450 l 1
 400 450 l 1
 400 600 l 1
0 400 m 1
 150 400 l 1
 150 250 l 1
 0 250 l 1
 0 400 l 1
400 400 m 1
 550 400 l 1
 550 250 l 1
 400 250 l 1
 400 400 l 1
200 200 m 1
 350 200 l 1
 350 50 l 1
 200 50 l 1
 200 200 l 1
400 200 m 1
 550 200 l 1
 550 50 l 1
 400 50 l 1
 400 200 l 1
0 1000 m 1
 150 1000 l 1
 150 850 l 1
 0 850 l 1
 0 1000 l 1
EndSplineSet
EndChar

StartChar: uF90000
Encoding: 249 16318464 249
Width: 800
VWidth: 0
Flags: HW
LayerCount: 2
Back
Fore
SplineSet
200 1000 m 1
 350 1000 l 1
 350 850 l 1
 200 850 l 1
 200 1000 l 1
400 1000 m 1
 550 1000 l 1
 550 850 l 1
 400 850 l 1
 400 1000 l 1
0 600 m 1
 150 600 l 1
 150 450 l 1
 0 450 l 1
 0 600 l 1
400 600 m 1
 550 600 l 1
 550 450 l 1
 400 450 l 1
 400 600 l 1
0 400 m 1
 150 400 l 1
 150 250 l 1
 0 250 l 1
 0 400 l 1
400 400 m 1
 550 400 l 1
 550 250 l 1
 400 250 l 1
 400 400 l 1
200 200 m 1
 350 200 l 1
 350 50 l 1
 200 50 l 1
 200 200 l 1
400 200 m 1
 550 200 l 1
 550 50 l 1
 400 50 l 1
 400 200 l 1
EndSplineSet
EndChar

StartChar: uFA0000
Encoding: 250 16384000 250
Width: 800
VWidth: 0
Flags: HW
LayerCount: 2
Back
Fore
SplineSet
200 1000 m 1
 350 1000 l 1
 350 850 l 1
 200 850 l 1
 200 1000 l 1
400 1000 m 1
 550 1000 l 1
 550 850 l 1
 400 850 l 1
 400 1000 l 1
0 600 m 1
 150 600 l 1
 150 450 l 1
 0 450 l 1
 0 600 l 1
400 600 m 1
 550 600 l 1
 550 450 l 1
 400 450 l 1
 400 600 l 1
0 400 m 1
 150 400 l 1
 150 250 l 1
 0 250 l 1
 0 400 l 1
400 400 m 1
 550 400 l 1
 550 250 l 1
 400 250 l 1
 400 400 l 1
200 200 m 1
 350 200 l 1
 350 50 l 1
 200 50 l 1
 200 200 l 1
400 200 m 1
 550 200 l 1
 550 50 l 1
 400 50 l 1
 400 200 l 1
0 1000 m 1
 150 1000 l 1
 150 850 l 1
 0 850 l 1
 0 1000 l 1
EndSplineSet
EndChar

StartChar: uFB0000
Encoding: 251 16449536 251
Width: 800
VWidth: 0
Flags: HW
LayerCount: 2
Back
Fore
SplineSet
400 1000 m 1
 550 1000 l 1
 550 850 l 1
 400 850 l 1
 400 1000 l 1
0 600 m 1
 150 600 l 1
 150 450 l 1
 0 450 l 1
 0 600 l 1
400 600 m 1
 550 600 l 1
 550 450 l 1
 400 450 l 1
 400 600 l 1
0 400 m 1
 150 400 l 1
 150 250 l 1
 0 250 l 1
 0 400 l 1
400 400 m 1
 550 400 l 1
 550 250 l 1
 400 250 l 1
 400 400 l 1
200 200 m 1
 350 200 l 1
 350 50 l 1
 200 50 l 1
 200 200 l 1
400 200 m 1
 550 200 l 1
 550 50 l 1
 400 50 l 1
 400 200 l 1
0 1000 m 1
 150 1000 l 1
 150 850 l 1
 0 850 l 1
 0 1000 l 1
EndSplineSet
EndChar

StartChar: uFC0000
Encoding: 252 16515072 252
Width: 800
VWidth: 0
Flags: HW
LayerCount: 2
Back
Fore
SplineSet
200 1000 m 1
 350 1000 l 1
 350 850 l 1
 200 850 l 1
 200 1000 l 1
0 600 m 1
 150 600 l 1
 150 450 l 1
 0 450 l 1
 0 600 l 1
400 600 m 1
 550 600 l 1
 550 450 l 1
 400 450 l 1
 400 600 l 1
0 400 m 1
 150 400 l 1
 150 250 l 1
 0 250 l 1
 0 400 l 1
400 400 m 1
 550 400 l 1
 550 250 l 1
 400 250 l 1
 400 400 l 1
200 200 m 1
 350 200 l 1
 350 50 l 1
 200 50 l 1
 200 200 l 1
400 200 m 1
 550 200 l 1
 550 50 l 1
 400 50 l 1
 400 200 l 1
EndSplineSet
EndChar

StartChar: uFD0000
Encoding: 253 16580608 253
Width: 800
VWidth: 0
Flags: HW
LayerCount: 2
Back
Fore
SplineSet
200 1000 m 1
 350 1000 l 1
 350 850 l 1
 200 850 l 1
 200 1000 l 1
400 1000 m 1
 550 1000 l 1
 550 850 l 1
 400 850 l 1
 400 1000 l 1
0 600 m 1
 150 600 l 1
 150 450 l 1
 0 450 l 1
 0 600 l 1
400 600 m 1
 550 600 l 1
 550 450 l 1
 400 450 l 1
 400 600 l 1
0 400 m 1
 150 400 l 1
 150 250 l 1
 0 250 l 1
 0 400 l 1
200 400 m 1
 350 400 l 1
 350 250 l 1
 200 250 l 1
 200 400 l 1
400 400 m 1
 550 400 l 1
 550 250 l 1
 400 250 l 1
 400 400 l 1
400 200 m 1
 550 200 l 1
 550 50 l 1
 400 50 l 1
 400 200 l 1
0 0 m 1
 150 0 l 1
 150 -150 l 1
 0 -150 l 1
 0 0 l 1
200 0 m 1
 350 0 l 1
 350 -150 l 1
 200 -150 l 1
 200 0 l 1
EndSplineSet
EndChar

StartChar: uFE0000
Encoding: 254 16646144 254
Width: 800
VWidth: 0
Flags: HW
LayerCount: 2
Back
Fore
SplineSet
400 1000 m 1
 550 1000 l 1
 550 850 l 1
 400 850 l 1
 400 1000 l 1
0 600 m 1
 150 600 l 1
 150 450 l 1
 0 450 l 1
 0 600 l 1
400 600 m 1
 550 600 l 1
 550 450 l 1
 400 450 l 1
 400 600 l 1
0 400 m 1
 150 400 l 1
 150 250 l 1
 0 250 l 1
 0 400 l 1
200 400 m 1
 350 400 l 1
 350 250 l 1
 200 250 l 1
 200 400 l 1
400 400 m 1
 550 400 l 1
 550 250 l 1
 400 250 l 1
 400 400 l 1
400 200 m 1
 550 200 l 1
 550 50 l 1
 400 50 l 1
 400 200 l 1
0 0 m 1
 150 0 l 1
 150 -150 l 1
 0 -150 l 1
 0 0 l 1
200 0 m 1
 350 0 l 1
 350 -150 l 1
 200 -150 l 1
 200 0 l 1
0 1000 m 1
 150 1000 l 1
 150 850 l 1
 0 850 l 1
 0 1000 l 1
EndSplineSet
EndChar

StartChar: uFF0000
Encoding: 255 16711680 255
Width: 800
VWidth: 0
Flags: HW
LayerCount: 2
Back
Fore
SplineSet
200 1000 m 1
 350 1000 l 1
 350 850 l 1
 200 850 l 1
 200 1000 l 1
400 1000 m 1
 550 1000 l 1
 550 850 l 1
 400 850 l 1
 400 1000 l 1
0 600 m 1
 150 600 l 1
 150 450 l 1
 0 450 l 1
 0 600 l 1
200 600 m 1
 350 600 l 1
 350 450 l 1
 200 450 l 1
 200 600 l 1
200 400 m 1
 350 400 l 1
 350 250 l 1
 200 250 l 1
 200 400 l 1
200 200 m 1
 350 200 l 1
 350 50 l 1
 200 50 l 1
 200 200 l 1
400 200 m 1
 550 200 l 1
 550 50 l 1
 400 50 l 1
 400 200 l 1
0 1000 m 1
 150 1000 l 1
 150 850 l 1
 0 850 l 1
 0 1000 l 1
EndSplineSet
EndChar
